<svg width="300" height="300" viewBox="0 0 300 300" fill="none" xmlns="http://www.w3.org/2000/svg">
<rect width="300" height="300" fill="#E5E5E5"/>
<g id="SPLASH 2" clip-path="url(#clip0_1186_4980)">
<rect width="1440" height="1024" transform="translate(-59 -381)" fill="white"/>
<g id="Group 1001">
<g id="BACKGROUND">
<path id="Vector" fill-rule="evenodd" clip-rule="evenodd" d="M235.461 140.076C281.33 143.125 328.358 123.423 367.954 146.778C418.136 176.376 467.823 221.124 471.459 279.271C475.199 339.091 428.032 387.08 385.626 429.437C343.253 471.761 295.35 515.209 235.461 514.999C175.705 514.79 126.14 472.964 86.3437 428.388C49.1338 386.709 25.4279 335.142 25.0102 279.271C24.5892 222.967 37.1344 158.969 84.0969 127.908C127.985 98.879 182.956 136.585 235.461 140.076Z" fill="#F5F5FB" fill-opacity="0.1"/>
<path id="Vector_2" fill-rule="evenodd" clip-rule="evenodd" d="M382.185 -358.782C436.301 -366.487 491.969 -373.871 539.474 -346.832C588.615 -318.863 623.768 -270.099 635.266 -214.738C646.509 -160.606 627.6 -106.751 599.187 -59.3244C570.208 -10.9548 531.181 31.5271 477.462 48.6605C419.406 67.1768 355.408 64.9637 302.109 35.426C246.311 4.5038 206.687 -49.0437 190.039 -110.626C172.794 -174.417 170.941 -247.875 211.398 -300.125C249.708 -349.602 320.235 -349.963 382.185 -358.782Z" fill="#F5F5FB" fill-opacity="0.1"/>
</g>
</g>
<g id="Frame 1493">
<g id="STREAM OPENING 1">
<g id="Illustration/Downloading">
<g id="Downloading">
<path id="Blob" fill-rule="evenodd" clip-rule="evenodd" d="M168.375 227.215C142.967 210.796 108.941 205.386 90.0544 221.786C59.9359 247.941 12.1395 214.632 26.5506 175.711C40.962 136.79 145.967 -10.3733 234.957 108.313C323.945 226.999 222.97 262.49 168.375 227.215Z" fill="#64FCD9"/>
<g id="Group">
<path id="Shape" fill-rule="evenodd" clip-rule="evenodd" d="M141.974 95.8549C145.907 95.3384 148.783 92.4494 151.682 89.5372C154.322 86.8847 156.982 84.213 160.477 83.2971L160.356 83.4089L160.348 83.4161C155.906 87.5169 151.465 91.6177 147.022 95.7185C152.824 95.0127 157.892 96.1223 163.92 99.1096C164.098 101.396 166.343 102.027 172.707 103.817C177.798 105.249 185.525 107.422 196.938 111.776C198.019 112.188 199.131 112.634 199.939 113.462C200.874 114.421 201.28 115.765 201.634 117.058C209.099 144.301 207.594 173.924 197.404 200.269C203.516 201.161 209.175 202.061 214.835 202.962C220.495 203.862 226.154 204.762 232.266 205.654C234.893 206.037 238.509 208.02 237.677 210.541L237.617 210.722C236.822 213.137 236.342 214.593 233.806 215.121C231.208 215.663 228.515 215.286 225.887 214.909C221.732 214.313 217.567 213.705 213.395 213.096C165.223 206.065 116.087 198.893 68.4003 207.617L67.9052 207.707C64.2432 208.379 60.4926 209.067 56.8531 208.326C56.5223 208.259 56.1943 208.195 55.8708 208.132C52.4739 207.472 49.5689 206.907 49.0989 203.393C49.0345 202.911 49.0303 202.386 49.3004 201.982C49.5963 201.541 50.1431 201.352 50.6516 201.198C60.0469 198.317 72.4033 195.949 82.2079 195.293C75.0875 169.968 72.2131 143.542 77.3424 116.798C77.5962 115.475 78.2362 113.846 79.1055 112.816C79.9443 111.822 80.9124 111.502 82.0964 111.11L82.0971 111.11C82.2258 111.067 82.3571 111.024 82.4911 110.978C94.179 107.028 105.083 104.199 117.256 102.191C118.391 99.0244 121.471 96.9489 124.794 96.4324C125.72 96.2886 126.577 96.1019 127.403 95.922C129.541 95.456 131.468 95.0358 133.845 95.5262C130.147 90.1268 125.724 85.2241 120.733 80.9902C120.037 80.3999 120.868 79.1494 121.779 79.1853C122.691 79.2211 123.392 79.9711 123.984 80.6659C126.18 83.2436 128.377 85.8214 130.574 88.3991C132.262 90.3808 133.951 92.3625 135.64 94.3441C132.737 91.3804 129.834 88.4168 126.93 85.453C130.488 90.826 135.585 96.6939 141.974 95.8549ZM106.548 118.481C106.548 118.481 96.9149 138.798 107.559 163.189L109.591 164.388C109.591 164.388 160.235 166.739 170.553 166.735L172.339 165.134C172.339 165.134 187.327 138.147 173.449 116.318C173.449 116.318 121.87 115.45 106.548 118.481ZM122.378 80.0256C122.371 80.4707 122.363 80.9158 122.356 81.3611L122.312 81.3402C121.715 81.2284 121.333 80.4842 121.59 79.9336C121.855 79.892 122.13 79.9242 122.378 80.0256Z" fill="white"/>
</g>
<g id="Group_2">
<path id="Whites" fill-rule="evenodd" clip-rule="evenodd" d="M111.569 124.217C111.569 124.217 104.821 140.689 110.847 157.009C110.847 157.009 138.26 166.183 167.287 158.699C167.287 158.699 173.759 150.595 169.233 124.432C149.836 119.273 131.789 119.508 111.569 124.217Z" fill="white"/>
</g>
<g id="Group_3">
<g id="Group_4">
<path id="Stroke" fill-rule="evenodd" clip-rule="evenodd" d="M160.601 82.6666C160.121 82.5154 159.709 82.1295 159.576 81.6442C159.442 81.159 159.616 80.5906 160.028 80.3015C160.348 80.0766 160.764 80.0339 161.154 80.0718C161.54 80.1094 161.935 80.2288 162.21 80.5018C162.648 80.9361 162.658 81.7075 162.275 82.1913C161.892 82.675 161.19 82.8518 160.601 82.6666ZM161.534 81.0884C161.362 80.9719 161.125 80.9608 160.943 81.0612C160.655 81.2425 160.771 81.7806 161.107 81.8287C161.443 81.8765 161.704 81.3917 161.479 81.1375L161.534 81.0884Z" fill="#00160A"/>
</g>
<g id="Group_5">
<path id="Highlights" fill-rule="evenodd" clip-rule="evenodd" d="M131.505 174.65C131.665 176.295 131.825 177.941 131.985 179.586C132.023 179.976 131.889 180.539 131.503 180.471C130.906 179.686 130.944 178.611 130.908 177.626C130.863 176.394 130.659 175.168 130.303 173.988C130.191 173.617 130.783 173.369 131.094 173.6C131.405 173.832 131.467 174.264 131.505 174.65Z" fill="#FFB61D"/>
</g>
<g id="Group_6">
<path id="Stroke_2" fill-rule="evenodd" clip-rule="evenodd" d="M107.472 182.589C106.584 184.51 105.079 186.226 103.097 186.967C100.531 187.926 97.6282 187.123 95.2044 185.848C94.2611 185.352 93.3445 184.777 92.6069 184.007C91.0978 182.433 90.4795 180.192 90.3249 178.017C90.2157 176.482 90.3146 174.911 90.8349 173.464C91.9877 170.255 95.2823 167.993 98.6901 167.9C102.098 167.806 105.438 169.794 107.137 172.75C108.836 175.706 108.902 179.494 107.472 182.589ZM105.067 184.685C105.782 183.975 106.31 183.093 106.704 182.165C108.225 178.587 107.631 174.089 104.914 171.308C102.196 168.527 97.3977 167.912 94.2857 170.243C92.2718 171.751 91.1255 174.288 91.1332 176.804C91.1408 179.32 92.2456 181.78 93.9835 183.599C95.4118 185.095 97.3005 186.196 99.3499 186.473C101.399 186.749 103.598 186.141 105.067 184.685Z" fill="#00160A"/>
</g>
<g id="Group_7">
<path id="Stroke_3" fill-rule="evenodd" clip-rule="evenodd" d="M122.455 180.534C121.971 182.612 119.532 183.931 117.472 183.373C115.413 182.815 113.993 180.627 114.126 178.497C114.162 177.913 114.304 177.324 114.628 176.838C115.413 175.657 116.996 175.376 118.402 175.198C118.865 175.139 119.339 175.081 119.795 175.181C120.701 175.381 121.361 176.163 121.806 176.977C122.397 178.058 122.735 179.333 122.455 180.534ZM120.143 181.958C120.812 181.316 121.045 180.32 120.964 179.396C120.85 178.091 120.084 176.792 118.867 176.308C117.649 175.825 116.038 176.391 115.607 177.628C115.134 178.986 115.3 180.625 116.278 181.678C117.257 182.731 119.105 182.953 120.143 181.958Z" fill="#00160A"/>
</g>
<g id="Group_8">
<path id="Stroke_4" fill-rule="evenodd" clip-rule="evenodd" d="M170.452 173.246C170.916 172.252 171.602 171.369 172.419 170.636C175.935 167.482 181.834 167.65 185.37 170.784C188.905 173.918 189.848 179.5 187.818 183.766C186.726 186.06 184.759 188.044 182.292 188.647C179.904 189.231 177.384 188.479 175.177 187.396C173.452 186.55 171.757 185.424 170.857 183.727C170.339 182.75 170.118 181.645 169.945 180.552C169.558 178.104 169.404 175.493 170.452 173.246ZM180.299 169.373C178.901 169.129 177.444 169.111 176.082 169.507C173.143 170.361 170.975 173.169 170.546 176.199C170.117 179.229 171.291 182.367 173.344 184.637C175.88 187.441 180.197 188.957 183.564 187.239C185.499 186.252 186.864 184.332 187.456 182.241C188.047 180.151 187.92 177.907 187.4 175.797C187.142 174.751 186.784 173.715 186.187 172.818C184.893 170.87 182.603 169.774 180.299 169.373ZM172.24 184.366C172.217 184.662 172.408 184.962 172.686 185.066C172.728 184.788 172.547 184.493 172.28 184.405L172.24 184.366Z" fill="#00160A"/>
</g>
<g id="Group_9">
<path id="Stroke_5" fill-rule="evenodd" clip-rule="evenodd" d="M143.057 176.591C143.38 177.171 143.269 177.96 142.799 178.428C142.366 177.895 142.103 177.226 142.057 176.541C141.393 176.543 140.729 176.546 140.064 176.549C140.237 177.187 140.106 177.9 139.717 178.435C139.185 177.981 138.92 177.233 139.047 176.544C138.385 176.544 137.722 176.543 137.059 176.542C137.14 177.171 136.906 177.831 136.448 178.268C136.342 178.047 136.235 177.825 136.129 177.604C135.951 177.232 135.76 176.845 135.432 176.597C135.102 176.348 134.591 176.288 134.298 176.579C133.775 177.096 134.195 178.334 133.478 178.497C133.07 178.047 132.92 177.378 133.097 176.797C132.68 176.8 132.266 176.605 132.002 176.282C131.927 176.026 132.294 175.889 132.561 175.879C137.338 175.716 142.121 175.753 146.895 175.989C147.439 176.016 148.061 176.088 148.367 176.537C148.541 176.792 148.57 177.116 148.593 177.424C148.642 178.069 148.691 178.715 148.741 179.36C148.788 179.978 148.827 180.633 148.539 181.181C147.989 182.223 146.586 182.375 145.409 182.397C140.942 182.477 136.475 182.557 132.008 182.638C130.873 182.658 129.63 182.643 128.758 181.915C128.119 181.382 127.803 180.557 127.616 179.746C127.392 178.772 127.338 177.674 127.903 176.85C128.468 176.026 129.842 175.744 130.457 176.531C130.426 176.848 129.96 176.803 129.641 176.806C129.026 176.812 128.536 177.386 128.411 177.988C128.285 178.591 128.436 179.212 128.586 179.809C128.746 180.443 128.941 181.131 129.476 181.508C129.92 181.82 130.499 181.843 131.042 181.853C135.113 181.925 139.188 181.858 143.255 181.652C144.424 181.592 145.596 181.521 146.747 181.31C147.712 181.132 147.985 179.878 147.922 178.899C147.878 178.222 147.758 177.506 147.306 177C146.853 176.495 145.969 176.329 145.506 176.825C145.528 177.388 145.239 177.952 144.771 178.264C144.689 177.797 144.598 177.311 144.308 176.936C144.018 176.562 143.463 176.347 143.057 176.591Z" fill="#00160A"/>
</g>
<g id="Group_10">
<path id="Stroke_6" fill-rule="evenodd" clip-rule="evenodd" d="M161.025 181.09C160.07 183.009 157.28 183.471 155.449 182.356C154.327 181.672 153.496 180.485 153.35 179.179C153.204 177.873 153.796 176.483 154.902 175.772C155.414 175.444 156.009 175.264 156.605 175.145C157.77 174.911 159.1 174.93 160 175.706C160.515 176.15 160.822 176.787 161.041 177.429C161.446 178.615 161.584 179.968 161.025 181.09ZM157.175 182.196C158.06 182.272 158.948 181.796 159.452 181.065C159.955 180.334 160.089 179.381 159.9 178.514C159.64 177.318 158.705 176.239 157.503 176.012C156.3 175.785 154.936 176.585 154.723 177.79C154.559 178.723 154.595 179.717 155.002 180.571C155.409 181.426 156.232 182.114 157.175 182.196Z" fill="#00160A"/>
</g>
<g id="Group_11">
<path id="Stroke_7" fill-rule="evenodd" clip-rule="evenodd" d="M141.973 95.8551C149.489 94.8681 153.144 85.2187 160.477 83.2973C155.992 87.4378 151.507 91.5782 147.023 95.7186C152.823 95.0129 158.841 96.2205 163.921 99.1097C157.934 96.7521 151.349 96.5486 144.917 96.3749C137.918 96.1858 130.918 95.9967 123.919 95.8078C122.473 95.7686 120.947 95.7478 119.681 96.4474C118.414 97.1471 117.574 98.8392 118.304 100.089C145.619 97.0318 173.652 100.597 199.333 110.394C200.414 110.807 201.526 111.252 202.333 112.08C203.27 113.04 203.675 114.384 204.029 115.677C211.495 142.92 209.988 172.543 199.799 198.888C212.022 200.672 224.245 202.456 236.468 204.24C239.096 204.623 240.602 207.88 239.77 210.402C238.937 212.924 236.406 214.58 233.807 215.121C231.207 215.663 228.515 215.286 225.887 214.909C173.744 207.426 120.475 200.613 68.6586 210.091C64.8401 210.79 60.9151 211.577 57.1114 210.802C53.3077 210.027 49.6137 207.242 49.0989 203.393C49.0345 202.912 49.0303 202.386 49.3003 201.983C49.5961 201.541 50.1431 201.353 50.6516 201.197C60.0469 198.318 69.775 196.526 79.5794 195.869C71.4983 169.865 69.9312 141.862 75.0606 115.118C75.3144 113.794 75.6129 112.413 76.4822 111.383C77.4123 110.28 78.8428 109.76 80.2091 109.298C91.8972 105.347 103.907 102.349 116.08 100.341C117.214 97.1741 120.523 95.1972 123.847 94.6807C127.171 94.1644 130.551 94.8467 133.845 95.5263C130.146 90.127 125.724 85.2242 120.733 80.9904C120.037 80.4001 120.868 79.1496 121.779 79.1853C122.691 79.2213 123.392 79.9713 123.984 80.6659C127.869 85.2255 131.754 89.7849 135.639 94.3443C132.736 91.3805 129.833 88.417 126.93 85.4532C130.488 90.826 135.585 96.6941 141.973 95.8551ZM201.847 112.895C201.023 111.91 199.769 111.413 198.565 110.967C159.543 96.5059 115.004 95.8773 76.6672 112.068C72.5803 138.226 73.5166 165.159 79.4104 190.97C79.8761 193.01 80.9307 195.507 83.0226 195.479C114.733 195.047 146.437 196.466 178.119 197.885C184.031 198.149 189.944 198.414 195.85 198.786C198.32 198.942 199.821 196.166 200.614 193.821C209.068 168.812 209.949 141.296 203.11 115.797C202.834 114.77 202.529 113.711 201.847 112.895ZM50.3079 203.266C50.5346 206.684 53.7369 209.295 57.081 210.032C60.4251 210.77 63.8963 210.07 67.2621 209.44C120.076 199.547 174.428 206.755 227.635 214.248C230.718 214.682 234.142 215.039 236.678 213.236C239.215 211.432 239.355 206.569 236.338 205.803C203.358 197.42 168.818 198.836 134.825 197.258C125.603 196.83 116.39 196.178 107.159 196.012C91.429 195.728 75.6734 196.859 60.1447 199.387C56.6053 199.963 52.8429 200.729 50.3079 203.266ZM73.6915 130.79C73.2692 138.514 73.0317 146.248 72.9793 153.983C72.9672 155.76 72.9673 157.558 73.3902 159.284C73.6703 149.788 73.9505 140.286 73.6915 130.79ZM78.0336 188.339C77.6466 186.246 77.2595 184.153 76.8726 182.06C76.7348 181.315 76.5868 180.545 76.1537 179.924C76.4699 182.786 77.1016 185.614 78.0336 188.339ZM122.356 81.3613C122.363 80.916 122.371 80.4709 122.378 80.0258C122.13 79.9244 121.855 79.8922 121.59 79.9338C121.333 80.4844 121.715 81.2286 122.312 81.3403L122.356 81.3613Z" fill="#00160A"/>
</g>
<g id="Group_12">
<path id="Stroke_8" fill-rule="evenodd" clip-rule="evenodd" d="M180.031 185.349C181.414 184.123 182.797 182.897 184.179 181.671C184.482 181.403 185.086 181.214 185.175 181.609C183.692 183.094 182.139 184.51 180.522 185.848C180.359 185.682 180.195 185.515 180.031 185.349Z" fill="#00160A"/>
</g>
<g id="Group_13">
<path id="Stroke_9" fill-rule="evenodd" clip-rule="evenodd" d="M95.8078 171.534C95.9505 171.562 96.0931 171.591 96.2356 171.619C95.75 172.092 95.1377 172.433 94.4805 172.598C94.824 172.148 95.2871 171.789 95.8096 171.57L95.8078 171.534Z" fill="#00160A"/>
</g>
<g id="Group_14">
<path id="Stroke_10" fill-rule="evenodd" clip-rule="evenodd" d="M101.087 184.348C100.753 184.233 101.026 183.731 101.321 183.536C101.962 183.113 102.604 182.689 103.245 182.266C103.529 182.078 103.982 181.926 104.146 182.224C103.355 183.031 102.446 183.721 101.456 184.266C101.342 184.328 101.21 184.391 101.087 184.348Z" fill="#00160A"/>
</g>
<g id="Group_15">
<path id="Stroke_11" fill-rule="evenodd" clip-rule="evenodd" d="M184.513 177.28C184.82 177 185.419 176.781 185.55 177.176C182.776 179.789 179.984 182.381 177.173 184.953C176.942 184.95 176.802 184.666 176.855 184.442C176.909 184.217 177.087 184.048 177.258 183.893C179.676 181.689 182.094 179.484 184.513 177.28Z" fill="#00160A"/>
</g>
<g id="Group_16">
<path id="Stroke_12" fill-rule="evenodd" clip-rule="evenodd" d="M105.076 178.686C102.753 180.367 100.389 181.993 97.9874 183.559C97.8554 183.645 97.6956 183.735 97.5492 183.677C97.2141 183.544 97.5 183.043 97.8009 182.844C99.8104 181.519 101.82 180.194 103.83 178.869C104.209 178.619 104.743 178.376 105.076 178.686Z" fill="#00160A"/>
</g>
<g id="Group_17">
<path id="Stroke_13" fill-rule="evenodd" clip-rule="evenodd" d="M105.107 114.744C108.537 115.524 112.104 115.294 115.616 115.096C134.926 114.007 154.298 114.018 173.606 115.129C174.365 115.173 175.255 115.298 175.614 115.967C175.208 116.004 174.793 115.944 174.413 115.793C181.437 130.383 181.309 148.218 174.076 162.705C173.342 164.176 172.518 165.703 172.579 167.346C171.267 166.799 169.804 166.778 168.382 166.763C148.189 166.549 128.001 165.901 107.836 164.819C107.198 164.784 106.531 164.741 105.984 164.412C105.218 163.951 104.862 163.044 104.572 162.197C100.63 150.675 99.363 138.246 100.901 126.165C101.421 122.076 102.36 117.816 105.107 114.744ZM113.19 157.416C129.87 161.073 147.307 162.88 163.981 159.195C164.993 158.972 166.033 158.714 166.858 158.087C168.126 157.123 168.649 155.484 169.011 153.932C171.156 144.733 170.094 135.128 169.02 125.743C168.787 123.706 166.373 122.81 164.364 122.397C147.427 118.919 129.782 118.923 112.846 122.409C111.8 122.624 110.72 122.869 109.875 123.521C109.03 124.173 108.493 125.352 108.908 126.335C108.896 125.333 109.498 124.349 110.395 123.903C106.548 133.682 106.097 144.761 109.139 154.82C109.627 156.435 111.542 157.055 113.19 157.416ZM177.736 149.161C179.469 138.225 178.037 126.806 173.656 116.638C172.006 118.267 170.269 120.061 169.917 122.352C169.365 125.945 172.402 129.672 170.994 133.022C170.746 131.773 170.497 130.523 170.249 129.274C171.885 137.727 171.772 146.516 169.918 154.924C169.708 155.877 169.421 156.91 168.623 157.472C167.911 157.973 168.337 159.084 168.821 159.808C169.881 161.395 170.941 162.982 172.002 164.569C174.855 158.755 176.752 152.475 177.597 146.054C177.643 147.09 177.69 148.125 177.736 149.161ZM111.522 121.584C129.404 116.601 148.527 118.072 166.643 122.124C167.097 122.225 167.608 122.32 168.001 122.071C168.189 121.952 168.324 121.768 168.456 121.588C169.793 119.755 171.13 117.922 172.467 116.089C150.441 114.643 128.307 114.846 106.311 116.695C106.727 117.95 107.163 119.238 108.015 120.249C108.868 121.259 110.249 121.939 111.522 121.584ZM110.044 157.329C108.977 158.527 108.09 159.883 107.42 161.34C107.191 161.838 106.986 162.411 107.191 162.919C107.497 163.678 108.486 163.83 109.303 163.867C129.411 164.78 149.529 165.473 169.652 165.946C169.892 165.952 170.173 165.937 170.309 165.74C170.425 165.573 170.383 165.348 170.336 165.15C170.005 163.752 169.652 162.307 168.768 161.175C167.885 160.043 166.312 159.314 164.981 159.851C154.924 163.909 143.625 162.939 132.862 161.62C125.17 160.676 117.459 159.58 110.044 157.329ZM108.255 155.051C104.278 145.29 106.146 134.227 108.395 123.929C108.499 123.456 108.603 122.965 108.498 122.492C108.407 122.086 108.169 121.73 107.936 121.384C106.907 119.859 105.877 118.332 104.848 116.807C99.9141 131.314 100.235 147.548 105.738 161.85C107.42 159.93 109.218 157.415 108.255 155.051ZM134.905 119.268C131.278 119.167 127.644 119.333 124.041 119.765C123.816 119.792 123.513 119.984 123.653 120.162C127.506 119.938 131.358 119.714 135.211 119.489C135.255 119.349 135.052 119.272 134.905 119.268ZM144.895 162.135C148.417 162.462 151.982 162.321 155.468 161.718C155.633 161.689 155.835 161.623 155.857 161.457C152.203 161.683 148.549 161.909 144.895 162.135ZM157.555 161.472C157.922 161.544 158.322 161.413 158.575 161.138C158.071 161.052 157.541 161.124 157.078 161.342C157.068 161.544 157.348 161.688 157.506 161.562M159.312 161.224C159.46 161.337 159.608 161.027 159.48 160.893C159.33 160.853 159.163 160.879 159.033 160.963C159.001 161.107 159.157 161.255 159.298 161.217L159.312 161.224Z" fill="#00160A"/>
</g>
<g id="Group_18">
<path id="Stroke_14" fill-rule="evenodd" clip-rule="evenodd" d="M97.8437 185.051C94.7964 183.921 92.2521 181.246 91.7274 178.038C91.2025 174.83 92.9981 171.264 96.0553 170.161C97.4922 169.643 99.0696 169.666 100.583 169.867C101.213 169.951 101.841 170.066 102.438 170.282C104.513 171.033 106.012 172.992 106.552 175.132C107.091 177.272 106.763 179.559 105.998 181.629C105.653 182.563 105.207 183.483 104.5 184.184C102.821 185.849 100.06 185.872 97.8437 185.051ZM96.6332 183.676C97.1306 184.066 97.8191 184.469 98.3433 184.116C100.29 182.804 102.237 181.493 104.184 180.181C104.515 179.958 105.127 179.85 105.168 180.247C103.148 181.64 101.129 183.033 99.1089 184.426C100.624 185.454 102.827 184.837 104.043 183.469C105.258 182.101 105.673 180.199 105.796 178.372C105.917 176.584 105.786 174.723 104.977 173.124C104.749 172.675 104.368 172.197 103.866 172.241C103.631 172.261 103.424 172.397 103.228 172.528C99.9245 174.742 96.6208 176.957 93.317 179.171C93.1285 179.298 92.9245 179.446 92.8788 179.669C92.8329 179.891 93.0778 180.155 93.2704 180.035C96.8223 177.562 100.419 175.153 104.059 172.811C104.397 172.976 104.082 173.48 103.766 173.684C100.498 175.792 97.2793 177.978 94.1138 180.238C93.787 180.471 93.4213 180.874 93.6356 181.213C93.9864 181.031 94.3164 180.811 94.6454 180.592C97.6539 178.586 100.662 176.581 103.671 174.576C104.113 174.281 104.884 174.093 105.026 174.605C101.295 176.827 97.6782 179.239 94.1938 181.83C94.2671 182.037 94.4818 182.185 94.7015 182.181C97.7638 180.116 100.851 178.088 103.963 176.098C104.456 175.783 105.117 175.47 105.584 175.823C102.001 177.991 98.5048 180.302 95.1061 182.748C95.1732 182.939 95.3731 183.073 95.5747 183.063C98.5936 180.819 101.757 178.768 105.039 176.929C105.204 177.344 104.745 177.721 104.354 177.938C101.709 179.405 99.1692 181.062 96.7613 182.893C96.571 183.038 96.3586 183.261 96.4539 183.48C96.4897 183.562 96.5628 183.621 96.6332 183.676ZM92.5385 176.177C94.9476 174.399 97.4422 172.737 100.011 171.199C100.296 171.028 100.732 170.89 100.904 171.174C98.3449 172.909 95.7862 174.644 93.2274 176.378C92.8197 176.654 92.3562 177.09 92.531 177.55C95.3651 175.651 98.1994 173.752 101.034 171.853C101.404 171.605 101.991 171.397 102.217 171.782C99.2626 173.747 96.3086 175.712 93.3548 177.677C92.9622 177.938 92.515 178.372 92.7151 178.799C96.1789 176.538 99.6427 174.277 103.106 172.016C103.199 171.955 103.299 171.887 103.333 171.781C103.41 171.542 103.12 171.359 102.884 171.275C102.315 171.072 101.746 170.869 101.178 170.666C100.892 170.564 100.598 170.461 100.296 170.473C99.8647 170.491 99.4819 170.741 99.1235 170.981C97.1793 172.287 95.2351 173.592 93.2911 174.898C93.1628 174.768 92.9611 174.717 92.787 174.771C92.6075 175.215 92.5223 175.698 92.5385 176.177ZM94.2916 172.787C93.5954 173.117 93.0506 173.751 92.8297 174.489C94.8514 173.171 96.873 171.852 98.8945 170.534C97.5101 170.553 96.131 170.898 94.9003 171.532C94.4151 171.783 93.9001 172.406 94.2916 172.787Z" fill="#00160A"/>
</g>
<g id="Group_19">
<path id="Stroke_15" fill-rule="evenodd" clip-rule="evenodd" d="M177.895 186.507C174.595 185.461 171.8 182.667 171.155 179.264C170.509 175.861 172.291 172.035 175.479 170.682C177.314 169.903 179.419 169.952 181.348 170.459C182.824 170.846 184.27 171.521 185.287 172.659C187.059 174.642 187.19 177.594 186.829 180.23C186.557 182.22 185.981 184.313 184.457 185.621C182.706 187.122 180.093 187.204 177.895 186.507ZM184.935 179.014C185.247 178.756 185.857 178.592 185.932 178.99C183.452 181.192 181.015 183.443 178.623 185.741C180.75 186.748 183.542 186.048 184.943 184.158C184.524 183.834 183.972 184.321 183.653 184.744C183.335 185.167 182.7 185.594 182.352 185.195C182.862 184.506 183.514 183.923 184.256 183.493C184.549 183.324 184.861 183.174 185.095 182.929C185.371 182.643 185.511 182.255 185.625 181.874C186.255 179.772 186.305 177.499 185.769 175.371C182.608 178.19 179.447 181.009 176.286 183.828C176.103 183.992 175.9 184.164 175.655 184.177C175.41 184.191 175.146 183.946 175.241 183.72C178.272 181.118 181.303 178.517 184.334 175.916C184.759 175.552 185.204 175.157 185.365 174.622C185.526 174.086 185.259 173.382 184.707 173.295C184.285 173.229 183.901 173.526 183.578 173.804C180.428 176.52 177.278 179.235 174.128 181.951C173.78 182.25 173.411 182.765 173.716 183.107C177.062 180.238 180.407 177.37 183.753 174.501C184.146 174.163 184.734 173.818 185.133 174.151C181.62 177.183 178.107 180.216 174.594 183.249C174.448 183.375 174.288 183.54 174.325 183.729C174.353 183.872 174.486 183.968 174.609 184.047C175.406 184.556 176.245 185 177.114 185.373C177.396 185.494 177.763 185.594 177.979 185.375C180.187 183.137 182.509 181.013 184.935 179.014ZM172.399 177.201C172.154 177.398 171.888 177.745 172.093 177.985C174.628 176.025 177.164 174.065 179.699 172.105C180.04 171.841 180.504 171.567 180.87 171.796C178.151 173.947 175.432 176.098 172.714 178.249C172.272 178.599 171.782 179.156 172.057 179.647C175.392 176.809 178.832 174.093 182.366 171.506C181.446 171.2 180.49 171 179.523 170.913C178.587 170.828 177.617 170.853 176.746 171.207C175.875 171.56 175.116 172.29 174.924 173.21C175.854 172.323 177.019 171.685 178.267 171.381C176.464 172.707 174.66 174.033 172.857 175.359C172.343 175.736 171.772 176.391 172.132 176.916C174.296 174.748 176.793 172.912 179.508 171.493C177.139 173.396 174.769 175.298 172.399 177.201ZM172.225 180.209C172.289 180.439 172.352 180.67 172.416 180.9C176.05 177.958 179.684 175.016 183.319 172.073C182.903 171.716 182.277 172.065 181.851 172.41C178.643 175.009 175.434 177.609 172.225 180.209ZM173.411 180.921C173.069 181.205 172.739 181.786 173.123 182.008C176.758 178.929 180.394 175.85 184.029 172.77C183.758 172.48 183.281 172.729 182.975 172.983C179.787 175.629 176.599 178.275 173.411 180.921ZM173.41 173.286C174.155 173.006 174.807 172.484 175.243 171.818C174.384 171.756 173.537 172.435 173.41 173.286Z" fill="#00160A"/>
</g>
</g>
<path id="Stroke_16" fill-rule="evenodd" clip-rule="evenodd" d="M127.588 134.967C127.91 134.455 130.057 133.761 131.494 135.039C132.931 136.316 127.806 137.405 131.507 138.45C135.207 139.494 141.706 139.579 144.847 138.808C147.988 138.038 144.427 135.596 145.034 135.132C145.64 134.668 148.831 133.137 150.191 135.132C151.55 137.127 155.178 139.605 149.294 141.191C143.411 142.776 132.79 142.742 127.588 141.251C122.386 139.759 127.267 135.478 127.588 134.967Z" fill="#00160A"/>
<path id="Stroke_17" fill-rule="evenodd" clip-rule="evenodd" d="M136.469 127.792C138.169 126.831 139.671 127.195 140.844 127.792C142.017 128.389 140.657 131.11 140.657 131.11C140.657 131.11 144.522 130.226 144.413 130.936C144.305 131.645 141.545 136.23 138.784 136.292C136.023 136.353 133.486 131.726 133.128 131.11C132.771 130.494 136.574 131.11 136.574 131.11C136.574 131.11 134.768 128.754 136.469 127.792Z" fill="#00160A"/>
</g>
<path id="Stroke_18" fill-rule="evenodd" clip-rule="evenodd" d="M159.227 148.349C160.11 148.364 160.814 149.093 160.798 149.977C160.783 150.86 160.054 151.564 159.171 151.549L119.177 150.85C118.293 150.835 117.589 150.106 117.605 149.223C117.62 148.339 118.349 147.636 119.233 147.651L159.227 148.349ZM159.216 148.949L119.222 148.251C118.67 148.241 118.214 148.681 118.205 149.233C118.196 149.763 118.601 150.204 119.121 150.247L119.187 150.251L159.181 150.949C159.733 150.958 160.189 150.518 160.198 149.966C160.208 149.436 159.803 148.995 159.282 148.952L159.216 148.949Z" fill="#00160A"/>
<rect id="Highlights_2" x="117.633" y="147.623" width="34" height="3.20002" rx="1.60001" transform="rotate(1.00001 117.633 147.623)" fill="#FFB61D"/>
</g>
</g>
</g>
</g>
<defs>
<clipPath id="clip0_1186_4980">
<rect width="1440" height="1024" fill="white" transform="translate(-59 -381)"/>
</clipPath>
</defs>
</svg>
