<svg width="38" height="38" viewBox="0 0 38 38" fill="none" xmlns="http://www.w3.org/2000/svg">
<path d="M12.2188 6.35938H7.53125C6.88404 6.35938 6.35938 6.88404 6.35938 7.53125V30.9688C6.35938 31.616 6.88404 32.1406 7.53125 32.1406H12.2188C12.866 32.1406 13.3906 31.616 13.3906 30.9688V7.53125C13.3906 6.88404 12.866 6.35938 12.2188 6.35938Z" stroke="#111F5F" stroke-width="2.7" stroke-linecap="round" stroke-linejoin="round"/>
<path d="M6.35938 12.2188H13.3906" stroke="#111F5F" stroke-width="2.7" stroke-linecap="round" stroke-linejoin="round"/>
<path d="M19.25 6.35938H14.5625C13.9153 6.35938 13.3906 6.88404 13.3906 7.53125V30.9688C13.3906 31.616 13.9153 32.1406 14.5625 32.1406H19.25C19.8972 32.1406 20.4219 31.616 20.4219 30.9688V7.53125C20.4219 6.88404 19.8972 6.35938 19.25 6.35938Z" stroke="#111F5F" stroke-width="2.7" stroke-linecap="round" stroke-linejoin="round"/>
<path d="M13.3906 26.2812H20.4219" stroke="#111F5F" stroke-width="2.7" stroke-linecap="round" stroke-linejoin="round"/>
<path d="M26.0875 5.98445L21.5597 7.19767C20.9345 7.36518 20.5635 8.00777 20.731 8.63293L26.7971 31.2719C26.9646 31.8971 27.6072 32.2681 28.2324 32.1006L32.7602 30.8873C33.3853 30.7198 33.7563 30.0772 33.5888 29.4521L27.5227 6.8131C27.3552 6.18794 26.7126 5.81694 26.0875 5.98445Z" stroke="#111F5F" stroke-width="2.7" stroke-linecap="round" stroke-linejoin="round"/>
<path d="M25.584 26.7439L32.3757 24.9241" stroke="#111F5F" stroke-width="2.7" stroke-linecap="round" stroke-linejoin="round"/>
<path d="M21.9453 13.1606L28.737 11.3408" stroke="#111F5F" stroke-width="2.7" stroke-linecap="round" stroke-linejoin="round"/>
</svg>
