<svg width="94" height="90" viewBox="0 0 94 90" fill="none" xmlns="http://www.w3.org/2000/svg">
<path d="M56.7305 71.2023L64.1023 67.0399L68.3674 67.8192L70.332 60.6854L67.5392 61.4974L64.3298 73.0316L58.2949 78.3198L54.0893 76.0087M56.7305 71.2023L49.8674 70.1687M56.7305 71.2023L42.5119 77.86L46.1167 79.841L49.1313 69.373L68.6054 61.6922L67.9183 71.4835L64.0428 68.5717L57.7536 76.4579L53.8782 73.546L59.4044 73.4539M49.8674 70.1687L43.3076 77.1239L54.0893 76.0087M49.8674 70.1687L54.0893 76.0087M58.1596 77.8543L56.8659 71.6678L53.954 75.5432L67.6313 67.0236" stroke="#3F3E3E" strokeWidth="0.107005"/>
<circle cx="43.3038" cy="77.1286" r="1.93899" transform="rotate(163.79 43.3038 77.1286)" fill="#3F3E3E"/>
<circle cx="54.0875" cy="76.0106" r="0.969495" transform="rotate(163.79 54.0875 76.0106)" fill="#3F3E3E"/>
<circle cx="56.7281" cy="71.2059" r="0.969495" transform="rotate(163.79 56.7281 71.2059)" fill="#3F3E3E"/>
<circle cx="0.484747" cy="0.484747" r="0.484747" transform="matrix(-0.960244 0.279164 0.279164 0.960244 64.332 73.0352)" fill="#3F3E3E"/>
<circle cx="0.484747" cy="0.484747" r="0.484747" transform="matrix(-0.960244 0.279164 0.279164 0.960244 64.2969 65.9795)" fill="#3F3E3E"/>
<circle cx="0.484747" cy="0.484747" r="0.484747" transform="matrix(-0.960244 0.279164 0.279164 0.960244 70.6602 60.0869)" fill="#3F3E3E"/>
<circle cx="1.45424" cy="1.45424" r="1.45424" transform="matrix(-0.960244 0.279164 0.279164 0.960244 69.2188 65.5518)" fill="#3F3E3E"/>
<circle cx="0.484747" cy="0.484747" r="0.484747" transform="matrix(-0.960244 0.279164 0.279164 0.960244 68.7109 70.749)" fill="#3F3E3E"/>
<circle cx="2.42374" cy="2.42374" r="2.42374" transform="matrix(-0.960244 0.279164 0.279164 0.960244 51.6523 67.6357)" fill="#3F3E3E"/>
<circle cx="0.484747" cy="0.484747" r="0.484747" transform="matrix(-0.960244 0.279164 0.279164 0.960244 58.625 77.7197)" fill="#3F3E3E"/>
<path d="M71.3971 47.0468L71.5515 38.5824L74.3874 35.3028L69.2374 29.9898L68.5197 32.8083L76.8297 41.427L78.3239 49.3107L74.1983 51.7617M71.3971 47.0468L67.0236 52.436M71.3971 47.0468L69.9184 62.6771L73.4546 60.5762L65.9645 52.6665L69.2287 31.9884L77.3168 37.5493L72.8411 39.411L76.4449 48.8322L71.9691 50.6939L74.6941 45.8854M67.0236 52.436L69.6879 61.618L74.1983 51.7617M67.0236 52.436L74.1983 51.7617M77.8541 49.1911L71.8669 47.1664L73.7285 51.6421L73.3282 35.5333" stroke="#3F3E3E" strokeWidth="0.107005"/>
<circle cx="69.6816" cy="61.6193" r="1.93899" transform="rotate(104.285 69.6816 61.6193)" fill="#3F3E3E"/>
<circle cx="74.1963" cy="51.7599" r="0.969495" transform="rotate(104.285 74.1963 51.7599)" fill="#3F3E3E"/>
<circle cx="71.3916" cy="47.047" r="0.969495" transform="rotate(104.285 71.3916 47.047)" fill="#3F3E3E"/>
<circle cx="0.484747" cy="0.484747" r="0.484747" transform="matrix(-0.246747 0.96908 0.96908 0.246747 76.8281 41.4277)" fill="#3F3E3E"/>
<circle cx="0.484747" cy="0.484747" r="0.484747" transform="matrix(-0.246747 0.96908 0.96908 0.246747 70.7266 37.874)" fill="#3F3E3E"/>
<circle cx="0.484747" cy="0.484747" r="0.484747" transform="matrix(-0.246747 0.96908 0.96908 0.246747 68.8789 29.3984)" fill="#3F3E3E"/>
<circle cx="1.45424" cy="1.45424" r="1.45424" transform="matrix(-0.246747 0.96908 0.96908 0.246747 72.8633 33.415)" fill="#3F3E3E"/>
<circle cx="0.484747" cy="0.484747" r="0.484747" transform="matrix(-0.246747 0.96908 0.96908 0.246747 77.082 36.4883)" fill="#3F3E3E"/>
<circle cx="2.42374" cy="2.42374" r="2.42374" transform="matrix(-0.246747 0.96908 0.96908 0.246747 65.7422 49.6064)" fill="#3F3E3E"/>
<circle cx="0.484747" cy="0.484747" r="0.484747" transform="matrix(-0.246747 0.96908 0.96908 0.246747 77.9648 48.7188)" fill="#3F3E3E"/>
<path d="M55.7307 25.4233L62.6074 28.5987L66.3538 27.5861L68.6253 33.8183L66.0758 33.2993L62.3738 23.2252L56.6073 18.9444L53.0254 21.3219M55.7307 25.4233L49.6861 26.8557M55.7307 25.4233L42.567 20.5242L45.6371 18.4862L49.0877 27.6215L67.0124 33.0461L65.6864 24.3434L62.4428 27.2337L56.2602 20.649L53.0165 23.5393L57.951 23.2124M49.6861 26.8557L43.33 21.1233L53.0254 21.3219M49.6861 26.8557L53.0254 21.3219M56.5205 19.3705L55.8175 24.9972L52.9387 21.7481L65.7554 28.3519" stroke="#3F3E3E" strokeWidth="0.107005"/>
<ellipse cx="1.73457" cy="1.73962" rx="1.73457" ry="1.73962" transform="matrix(-0.979898 -0.199499 -0.199499 0.979898 45.3789 19.7637)" fill="#3F3E3E"/>
<ellipse cx="0.867283" cy="0.869812" rx="0.867283" ry="0.869812" transform="matrix(-0.979898 -0.199499 -0.199499 0.979898 54.0547 20.6426)" fill="#3F3E3E"/>
<ellipse cx="0.867283" cy="0.869812" rx="0.867283" ry="0.869812" transform="matrix(-0.979898 -0.199499 -0.199499 0.979898 56.7578 24.7412)" fill="#3F3E3E"/>
<ellipse cx="62.0368" cy="22.7119" rx="0.433642" ry="0.434906" transform="rotate(-168.492 62.0368 22.7119)" fill="#3F3E3E"/>
<ellipse cx="62.5251" cy="29.0264" rx="0.433642" ry="0.434906" transform="rotate(-168.492 62.5251 29.0264)" fill="#3F3E3E"/>
<ellipse cx="68.6306" cy="33.8194" rx="0.433642" ry="0.434906" transform="rotate(-168.492 68.6306 33.8194)" fill="#3F3E3E"/>
<ellipse cx="66.2668" cy="28.0128" rx="1.30092" ry="1.30472" transform="rotate(-168.492 66.2668 28.0128)" fill="#3F3E3E"/>
<ellipse cx="66.115" cy="24.4317" rx="0.433642" ry="0.434906" transform="rotate(-168.492 66.115 24.4317)" fill="#3F3E3E"/>
<ellipse cx="49.774" cy="26.4288" rx="2.16821" ry="2.17453" transform="rotate(-168.492 49.774 26.4288)" fill="#3F3E3E"/>
<ellipse cx="56.6072" cy="18.9453" rx="0.433642" ry="0.434906" transform="rotate(-168.492 56.6072 18.9453)" fill="#3F3E3E"/>
<path d="M28.9346 27.98L34.9355 23.3583L35.7747 19.5692L42.3499 20.445L40.7082 22.4636L30.0657 21.0747L23.5998 24.2004L24.0464 28.4762M28.9346 27.98L27.4022 34M28.9346 27.98L18.4921 37.3737L18.1093 33.7087L27.8034 34.8852L40.918 21.5163L32.592 18.6577L33.6496 22.8715L24.9494 25.298L26.0071 29.5118L28.0045 24.9878M27.4022 34L19.3768 36.9753L24.0464 28.4762M27.4022 34L24.0464 28.4762M23.9372 24.4748L28.5971 27.7056L24.3838 28.7506L36.1759 20.4544" stroke="#3F3E3E" strokeWidth="0.107005"/>
<ellipse cx="1.73457" cy="1.73962" rx="1.73457" ry="1.73962" transform="matrix(-0.630947 0.775826 0.775826 0.630947 19.1289 34.5312)" fill="#3F3E3E"/>
<ellipse cx="0.867283" cy="0.869812" rx="0.867283" ry="0.869812" transform="matrix(-0.630947 0.775826 0.775826 0.630947 23.9219 27.2539)" fill="#3F3E3E"/>
<ellipse cx="0.867283" cy="0.869812" rx="0.867283" ry="0.869812" transform="matrix(-0.630947 0.775826 0.775826 0.630947 28.8086 26.7549)" fill="#3F3E3E"/>
<ellipse cx="29.4554" cy="21.1372" rx="0.433642" ry="0.434906" transform="rotate(129.12 29.4554 21.1372)" fill="#3F3E3E"/>
<ellipse cx="35.2757" cy="23.6343" rx="0.433642" ry="0.434906" transform="rotate(129.12 35.2757 23.6343)" fill="#3F3E3E"/>
<ellipse cx="42.3499" cy="20.4439" rx="0.433642" ry="0.434906" transform="rotate(129.12 42.3499 20.4439)" fill="#3F3E3E"/>
<ellipse cx="36.1201" cy="19.8443" rx="1.30092" ry="1.30472" transform="rotate(129.12 36.1201 19.8443)" fill="#3F3E3E"/>
<ellipse cx="32.8695" cy="18.3218" rx="0.433642" ry="0.434906" transform="rotate(129.12 32.8695 18.3218)" fill="#3F3E3E"/>
<ellipse cx="27.0699" cy="33.7232" rx="2.16821" ry="2.17453" transform="rotate(129.12 27.0699 33.7232)" fill="#3F3E3E"/>
<ellipse cx="23.5999" cy="24.2007" rx="0.433642" ry="0.434906" transform="rotate(129.12 23.5999 24.2007)" fill="#3F3E3E"/>
<path d="M16.777 53.504L16.5308 45.9337L13.9454 43.0393L18.4968 38.2139L19.1764 40.7254L11.8329 48.5526L10.5932 55.6265L14.3247 57.7615M16.777 53.504L20.7683 58.2641M16.777 53.504L18.3024 67.4669L15.104 65.6369L21.7212 58.4555L18.5301 40.0018L11.3466 45.0903L15.3846 46.693L12.2724 55.1722L16.3104 56.7749L13.8051 52.5113M20.7683 58.2641L18.4957 66.5161L14.3247 57.7615M20.7683 58.2641L14.3247 57.7615M11.013 55.513L16.3572 53.6176L14.7445 57.6479L14.8983 43.2307" stroke="#3F3E3E" strokeWidth="0.107005"/>
<ellipse cx="1.73457" cy="1.73962" rx="1.73457" ry="1.73962" transform="matrix(0.261192 0.965287 0.965287 -0.261192 16.3633 65.2949)" fill="#3F3E3E"/>
<ellipse cx="0.867283" cy="0.869812" rx="0.867283" ry="0.869812" transform="matrix(0.261192 0.965287 0.965287 -0.261192 13.2656 57.1523)" fill="#3F3E3E"/>
<ellipse cx="0.867283" cy="0.869812" rx="0.867283" ry="0.869812" transform="matrix(0.261192 0.965287 0.965287 -0.261192 15.7109 52.8926)" fill="#3F3E3E"/>
<ellipse cx="11.5333" cy="49.0849" rx="0.433642" ry="0.434906" transform="rotate(74.8592 11.5333 49.0849)" fill="#3F3E3E"/>
<ellipse cx="16.9552" cy="45.8203" rx="0.433642" ry="0.434906" transform="rotate(74.8592 16.9552 45.8203)" fill="#3F3E3E"/>
<ellipse cx="18.502" cy="38.2158" rx="0.433642" ry="0.434906" transform="rotate(74.8592 18.502 38.2158)" fill="#3F3E3E"/>
<ellipse cx="14.3694" cy="42.9237" rx="1.30092" ry="1.30472" transform="rotate(74.8592 14.3694 42.9237)" fill="#3F3E3E"/>
<ellipse cx="11.2364" cy="44.6728" rx="0.433642" ry="0.434906" transform="rotate(74.8592 11.2364 44.6728)" fill="#3F3E3E"/>
<ellipse cx="20.3501" cy="58.3787" rx="2.16821" ry="2.17453" transform="rotate(74.8592 20.3501 58.3787)" fill="#3F3E3E"/>
<ellipse cx="10.5958" cy="55.6289" rx="0.433642" ry="0.434906" transform="rotate(74.8592 10.5958 55.6289)" fill="#3F3E3E"/>
<path d="M31.1715 70.8993L37.168 75.5267L41.0459 75.3742L41.8719 81.9558L39.5021 80.8818L38.1373 70.2362L33.4693 64.7784L29.4478 66.2983M31.1715 70.8993L24.9597 70.9491M31.1715 70.8993L19.4299 63.1907L22.8768 61.8879L24.2057 71.5623L40.4715 80.8437L41.1176 72.0643L37.3116 74.1593L32.7512 66.3629L28.9452 68.4579L33.8285 69.2385M24.9597 70.9491L20.0403 63.9448L29.4478 66.2983M24.9597 70.9491L29.4478 66.2983M33.2898 65.1745L31.351 70.5031L29.2683 66.6944L40.2918 75.9874" stroke="#3F3E3E" strokeWidth="0.107005"/>
<ellipse cx="1.73457" cy="1.73962" rx="1.73457" ry="1.73962" transform="matrix(-0.910832 -0.412776 -0.412776 0.910832 22.3359 63.0771)" fill="#3F3E3E"/>
<ellipse cx="0.867283" cy="0.869812" rx="0.867283" ry="0.869812" transform="matrix(-0.910832 -0.412776 -0.412776 0.910832 30.6016 65.8613)" fill="#3F3E3E"/>
<ellipse cx="0.867283" cy="0.869812" rx="0.867283" ry="0.869812" transform="matrix(-0.910832 -0.412776 -0.412776 0.910832 32.3203 70.4629)" fill="#3F3E3E"/>
<ellipse cx="37.9213" cy="69.6583" rx="0.433642" ry="0.434906" transform="rotate(-155.621 37.9213 69.6583)" fill="#3F3E3E"/>
<ellipse cx="36.9955" cy="75.921" rx="0.433642" ry="0.434906" transform="rotate(-155.621 36.9955 75.921)" fill="#3F3E3E"/>
<ellipse cx="41.8744" cy="81.9532" rx="0.433642" ry="0.434906" transform="rotate(-155.621 41.8744 81.9532)" fill="#3F3E3E"/>
<ellipse cx="40.8654" cy="75.7688" rx="1.30092" ry="1.30472" transform="rotate(-155.621 40.8654 75.7688)" fill="#3F3E3E"/>
<ellipse cx="41.5111" cy="72.2413" rx="0.433642" ry="0.434906" transform="rotate(-155.621 41.5111 72.2413)" fill="#3F3E3E"/>
<ellipse cx="25.1415" cy="70.5521" rx="2.16821" ry="2.17453" transform="rotate(-155.621 25.1415 70.5521)" fill="#3F3E3E"/>
<ellipse cx="33.4642" cy="64.7794" rx="0.433642" ry="0.434906" transform="rotate(-155.621 33.4642 64.7794)" fill="#3F3E3E"/>
<path d="M38.2633 27.4937L33.6706 27.0882L31.7323 28.4385L29.1496 25.3349L30.7171 25.1081L34.9092 30.1188L39.0931 31.3859L40.6564 29.2873M38.2633 27.4937L41.432 25.4303M38.2633 27.4937L46.8125 27.5943L45.4725 29.393L41.6174 24.8685L30.2325 25.4457L32.7813 30.1592L34.0455 27.8364L38.9415 30.3379L40.2057 28.0151L37.4457 29.2169M41.432 25.4303L46.2521 27.4079L40.6564 29.2873M41.432 25.4303L40.6564 29.2873M39.0552 31.1239L38.3012 27.7557L40.6185 29.0253L31.9177 27.8767" stroke="#3F3E3E" strokeWidth="0.107005"/>
<ellipse cx="1.05584" cy="1.05892" rx="1.05584" ry="1.05892" transform="matrix(0.989696 -0.143182 -0.143182 -0.989696 45.3594 28.6074)" fill="#3F3E3E"/>
<ellipse cx="0.527919" cy="0.529458" rx="0.527919" ry="0.529458" transform="matrix(0.989696 -0.143182 -0.143182 -0.989696 40.2109 29.8906)" fill="#3F3E3E"/>
<ellipse cx="0.527919" cy="0.529458" rx="0.527919" ry="0.529458" transform="matrix(0.989696 -0.143182 -0.143182 -0.989696 37.8164 28.0918)" fill="#3F3E3E"/>
<ellipse cx="35.2132" cy="30.3453" rx="0.263959" ry="0.264729" transform="rotate(-8.23201 35.2132 30.3453)" fill="#3F3E3E"/>
<ellipse cx="33.6312" cy="26.8258" rx="0.263959" ry="0.264729" transform="rotate(-8.23201 33.6312 26.8258)" fill="#3F3E3E"/>
<ellipse cx="29.1546" cy="25.3375" rx="0.263959" ry="0.264729" transform="rotate(-8.23201 29.1546 25.3375)" fill="#3F3E3E"/>
<ellipse cx="31.6904" cy="28.1775" rx="0.791878" ry="0.794187" transform="rotate(-8.23201 31.6904 28.1775)" fill="#3F3E3E"/>
<ellipse cx="32.5218" cy="30.1978" rx="0.263959" ry="0.264729" transform="rotate(-8.23201 32.5218 30.1978)" fill="#3F3E3E"/>
<ellipse cx="41.4684" cy="25.6962" rx="1.3198" ry="1.32364" transform="rotate(-8.23201 41.4684 25.6962)" fill="#3F3E3E"/>
<ellipse cx="39.0921" cy="31.3863" rx="0.263959" ry="0.264729" transform="rotate(-8.23201 39.0921 31.3863)" fill="#3F3E3E"/>
<path d="M61.6326 34.6573L64.8185 37.1158L66.8788 37.0348L67.3177 40.5315L66.0586 39.9609L65.3335 34.305L62.8535 31.4053L60.7169 32.2128M61.6326 34.6573L58.3323 34.6837M61.6326 34.6573L55.3944 30.5618L57.2257 29.8696L57.9317 35.0095L66.5737 39.9407L66.9169 35.2762L64.8948 36.3893L62.4719 32.2471L60.4498 33.3602L63.0443 33.7749M58.3323 34.6837L55.7187 30.9624L60.7169 32.2128M58.3323 34.6837L60.7169 32.2128M62.7581 31.6157L61.728 34.4468L60.6215 32.4232L66.4782 37.3606" stroke="#3F3E3E" strokeWidth="0.107005"/>
<ellipse cx="0.921565" cy="0.924253" rx="0.921565" ry="0.924253" transform="matrix(-0.910832 -0.412776 -0.412776 0.910832 56.9453 30.499)" fill="#3F3E3E"/>
<ellipse cx="0.460783" cy="0.462126" rx="0.460783" ry="0.462126" transform="matrix(-0.910832 -0.412776 -0.412776 0.910832 61.332 31.9805)" fill="#3F3E3E"/>
<ellipse cx="0.460783" cy="0.462126" rx="0.460783" ry="0.462126" transform="matrix(-0.910832 -0.412776 -0.412776 0.910832 62.2461 34.4238)" fill="#3F3E3E"/>
<ellipse cx="65.2293" cy="34.0001" rx="0.230391" ry="0.231063" transform="rotate(-155.621 65.2293 34.0001)" fill="#3F3E3E"/>
<ellipse cx="64.7254" cy="37.3253" rx="0.230391" ry="0.231063" transform="rotate(-155.621 64.7254 37.3253)" fill="#3F3E3E"/>
<ellipse cx="67.323" cy="40.5314" rx="0.230391" ry="0.231063" transform="rotate(-155.621 67.323 40.5314)" fill="#3F3E3E"/>
<ellipse cx="66.7855" cy="37.2445" rx="0.691174" ry="0.693189" transform="rotate(-155.621 66.7855 37.2445)" fill="#3F3E3E"/>
<ellipse cx="67.1355" cy="35.3702" rx="0.230391" ry="0.231063" transform="rotate(-155.621 67.1355 35.3702)" fill="#3F3E3E"/>
<ellipse cx="58.4316" cy="34.4732" rx="1.15196" ry="1.15532" transform="rotate(-155.621 58.4316 34.4732)" fill="#3F3E3E"/>
<ellipse cx="62.8543" cy="31.4054" rx="0.230391" ry="0.231063" transform="rotate(-155.621 62.8543 31.4054)" fill="#3F3E3E"/>
<path d="M22.8234 42.798L20.9556 46.3625L21.3932 48.3774L18.0258 49.4169L18.3691 48.0779L23.8131 46.3815L26.2381 43.4355L25.0717 41.4716M22.8234 42.798L22.2242 39.5525M22.8234 42.798L25.7732 35.9433L26.773 37.6266L21.8338 39.2145L18.4785 48.5816L23.1316 48.1095L21.6843 46.3114L25.3427 43.206L23.8954 41.4079L23.9376 44.035M22.2242 39.5525L25.435 36.3322L25.0717 41.4716M22.2242 39.5525L25.0717 41.4716M26.0142 43.3781L23.0473 42.8554L24.8479 41.4142L21.0028 48.0395" stroke="#3F3E3E" strokeWidth="0.107005"/>
<ellipse cx="0.921565" cy="0.924253" rx="0.921565" ry="0.924253" transform="matrix(0.248309 -0.968681 -0.968681 -0.248309 26.1016 37.4551)" fill="#3F3E3E"/>
<ellipse cx="0.460783" cy="0.462126" rx="0.460783" ry="0.462126" transform="matrix(0.248309 -0.968681 -0.968681 -0.248309 25.4102 42.0352)" fill="#3F3E3E"/>
<ellipse cx="0.460783" cy="0.462126" rx="0.460783" ry="0.462126" transform="matrix(0.248309 -0.968681 -0.968681 -0.248309 23.1602 43.3613)" fill="#3F3E3E"/>
<ellipse cx="24.0974" cy="46.217" rx="0.230391" ry="0.231063" transform="rotate(-75.6225 24.0974 46.217)" fill="#3F3E3E"/>
<ellipse cx="20.7342" cy="46.3039" rx="0.230391" ry="0.231063" transform="rotate(-75.6225 20.7342 46.3039)" fill="#3F3E3E"/>
<ellipse cx="18.031" cy="49.4182" rx="0.230391" ry="0.231063" transform="rotate(-75.6225 18.031 49.4182)" fill="#3F3E3E"/>
<ellipse cx="21.1673" cy="48.3239" rx="0.691174" ry="0.693189" transform="rotate(-75.6225 21.1673 48.3239)" fill="#3F3E3E"/>
<ellipse cx="23.074" cy="48.3342" rx="0.230391" ry="0.231063" transform="rotate(-75.6225 23.074 48.3342)" fill="#3F3E3E"/>
<ellipse cx="22.4481" cy="39.6085" rx="1.15196" ry="1.15532" transform="rotate(-75.6225 22.4481 39.6085)" fill="#3F3E3E"/>
<ellipse cx="26.2381" cy="43.4387" rx="0.230391" ry="0.231063" transform="rotate(-75.6225 26.2381 43.4387)" fill="#3F3E3E"/>
<path d="M63.5305 61.2541L61.6626 64.8186L62.1003 66.8335L58.7329 67.873L59.0761 66.5339L64.5202 64.8375L66.9451 61.8915L65.7788 59.9277M63.5305 61.2541L62.9312 58.0085M63.5305 61.2541L66.4803 54.3993L67.48 56.0826L62.5408 57.6706L59.1855 67.0377L63.8387 66.5656L62.3913 64.7675L66.0498 61.662L64.6024 59.864L64.6446 62.491M62.9312 58.0085L66.142 54.7883L65.7788 59.9277M62.9312 58.0085L65.7788 59.9277M66.7213 61.8341L63.7543 61.3114L65.5549 59.8703L61.7098 66.4955" stroke="#3F3E3E" strokeWidth="0.107005"/>
<ellipse cx="0.921565" cy="0.924253" rx="0.921565" ry="0.924253" transform="matrix(0.248309 -0.968681 -0.968681 -0.248309 66.8125 55.9141)" fill="#3F3E3E"/>
<ellipse cx="0.460783" cy="0.462126" rx="0.460783" ry="0.462126" transform="matrix(0.248309 -0.968681 -0.968681 -0.248309 66.1172 60.4912)" fill="#3F3E3E"/>
<ellipse cx="0.460783" cy="0.462126" rx="0.460783" ry="0.462126" transform="matrix(0.248309 -0.968681 -0.968681 -0.248309 63.8672 61.8145)" fill="#3F3E3E"/>
<ellipse cx="64.8045" cy="64.6701" rx="0.230391" ry="0.231063" transform="rotate(-75.6225 64.8045 64.6701)" fill="#3F3E3E"/>
<ellipse cx="61.4451" cy="64.7629" rx="0.230391" ry="0.231063" transform="rotate(-75.6225 61.4451 64.7629)" fill="#3F3E3E"/>
<ellipse cx="58.7381" cy="67.8762" rx="0.230391" ry="0.231063" transform="rotate(-75.6225 58.7381 67.8762)" fill="#3F3E3E"/>
<ellipse cx="61.8744" cy="66.777" rx="0.691174" ry="0.693189" transform="rotate(-75.6225 61.8744 66.777)" fill="#3F3E3E"/>
<ellipse cx="63.7849" cy="66.7912" rx="0.230391" ry="0.231063" transform="rotate(-75.6225 63.7849 66.7912)" fill="#3F3E3E"/>
<ellipse cx="63.1552" cy="58.0665" rx="1.15196" ry="1.15532" transform="rotate(-75.6225 63.1552 58.0665)" fill="#3F3E3E"/>
<ellipse cx="66.9451" cy="61.8938" rx="0.230391" ry="0.231063" transform="rotate(-75.6225 66.9451 61.8938)" fill="#3F3E3E"/>
<path d="M74.2211 59.5772L71.7814 62.7776L71.8746 64.8374L68.3805 65.2969L68.9436 64.0345L74.5952 63.276L77.4802 60.7788L76.6601 58.647M74.2211 59.5772L74.1751 56.2772M74.2211 59.5772L78.2796 53.3149L78.9826 55.1421L73.8469 55.8785L68.967 64.5494L73.6333 64.8651L72.5083 62.8496L76.6361 60.4023L75.5111 58.3868L75.1118 60.9836M74.1751 56.2772L77.8809 53.6416L76.6601 58.647M74.1751 56.2772L76.6601 58.647M77.2692 60.6847L74.4321 59.6714L76.4491 58.5529L71.5464 64.4387" stroke="#3F3E3E" strokeWidth="0.107005"/>
<ellipse cx="0.921565" cy="0.924253" rx="0.921565" ry="0.924253" transform="matrix(0.407384 -0.913257 -0.913257 -0.407384 78.3477 54.8623)" fill="#3F3E3E"/>
<ellipse cx="0.460783" cy="0.462126" rx="0.460783" ry="0.462126" transform="matrix(0.407384 -0.913257 -0.913257 -0.407384 76.8945 59.2607)" fill="#3F3E3E"/>
<ellipse cx="0.460783" cy="0.462126" rx="0.460783" ry="0.462126" transform="matrix(0.407384 -0.913257 -0.913257 -0.407384 74.4531 60.1895)" fill="#3F3E3E"/>
<ellipse cx="74.8986" cy="63.163" rx="0.230391" ry="0.231063" transform="rotate(-65.9594 74.8986 63.163)" fill="#3F3E3E"/>
<ellipse cx="71.5705" cy="62.6835" rx="0.230391" ry="0.231063" transform="rotate(-65.9594 71.5705 62.6835)" fill="#3F3E3E"/>
<ellipse cx="68.3791" cy="65.2988" rx="0.230391" ry="0.231063" transform="rotate(-65.9594 68.3791 65.2988)" fill="#3F3E3E"/>
<ellipse cx="71.6607" cy="64.7449" rx="0.691174" ry="0.693189" transform="rotate(-65.9594 71.6607 64.7449)" fill="#3F3E3E"/>
<ellipse cx="73.5353" cy="65.0761" rx="0.230391" ry="0.231063" transform="rotate(-65.9594 73.5353 65.0761)" fill="#3F3E3E"/>
<ellipse cx="74.3838" cy="56.3766" rx="1.15196" ry="1.15532" transform="rotate(-65.9594 74.3838 56.3766)" fill="#3F3E3E"/>
<ellipse cx="77.4807" cy="60.7831" rx="0.230391" ry="0.231063" transform="rotate(-65.9594 77.4807 60.7831)" fill="#3F3E3E"/>
</svg>
