<svg width="232" height="44" viewBox="0 0 232 44" fill="none" xmlns="http://www.w3.org/2000/svg">
<path d="M22.9167 32.3833C22.5917 32.6181 22.2125 32.8708 21.7792 33.1417C21.3639 33.4125 20.9035 33.6653 20.3979 33.9C19.8924 34.1167 19.3597 34.2972 18.8 34.4417C18.2403 34.5861 17.6535 34.6583 17.0396 34.6583C15.9924 34.6583 15.0083 34.4687 14.0875 34.0896C13.1667 33.6924 12.3722 33.1326 11.7042 32.4104C11.0361 31.6882 10.5035 30.8306 10.1063 29.8375C9.72708 28.8264 9.5375 27.7069 9.5375 26.4792C9.5375 25.2514 9.73611 24.1319 10.1333 23.1208C10.5486 22.1097 11.0993 21.2431 11.7854 20.5208C12.4715 19.7806 13.266 19.2118 14.1688 18.8146C15.0715 18.3993 16.0194 18.1917 17.0125 18.1917C18.0417 18.1917 19.0347 18.3451 19.9917 18.6521C20.9486 18.941 21.9958 19.4826 23.1333 20.2771C23.3139 20.4035 23.5306 20.4667 23.7833 20.4667C24.0722 20.4667 24.2799 20.3674 24.4062 20.1687L28.1167 14.4271C28.2611 14.1924 28.2972 13.9847 28.225 13.8042C28.1708 13.6056 28.0354 13.416 27.8188 13.2354C27.0604 12.6396 26.2931 12.1069 25.5167 11.6375C24.7583 11.1681 23.9458 10.7799 23.0792 10.4729C22.2125 10.1479 21.2826 9.90417 20.2896 9.74167C19.2965 9.56111 18.1861 9.47083 16.9583 9.47083C14.6292 9.47083 12.4354 9.92222 10.3771 10.825C8.33681 11.7097 6.54931 12.9194 5.01458 14.4542C3.49792 15.9889 2.29722 17.7854 1.4125 19.8437C0.527778 21.9021 0.0854168 24.1049 0.0854168 26.4521C0.0854168 28.9437 0.527778 31.2368 1.4125 33.3312C2.31528 35.4257 3.53403 37.2312 5.06875 38.7479C6.62153 40.2646 8.43611 41.4472 10.5125 42.2958C12.5889 43.1444 14.8007 43.5778 17.1479 43.5958C18.1229 43.5958 19.1069 43.4875 20.1 43.2708C21.1111 43.0542 22.0861 42.7653 23.025 42.4042C23.9819 42.025 24.8667 41.5917 25.6792 41.1042C26.5097 40.6167 27.2229 40.1111 27.8188 39.5875C28.1257 39.3167 28.2882 39.0639 28.3063 38.8292C28.3243 38.5944 28.225 38.2965 28.0083 37.9354L24.2979 32.4917C24.1715 32.2569 23.9458 32.1396 23.6208 32.1396C23.3861 32.1396 23.1514 32.2208 22.9167 32.3833ZM30.3003 26.5062C30.3003 28.8535 30.7426 31.0653 31.6273 33.1417C32.5301 35.2181 33.7579 37.0236 35.3107 38.5583C36.8635 40.0931 38.678 41.3118 40.7544 42.2146C42.8308 43.0993 45.0517 43.5417 47.4169 43.5417C49.7822 43.5417 52.003 43.0993 54.0794 42.2146C56.1558 41.3118 57.9704 40.0931 59.5232 38.5583C61.076 37.0056 62.3037 35.2 63.2065 33.1417C64.1093 31.0653 64.5607 28.8535 64.5607 26.5062C64.5607 24.159 64.1093 21.9562 63.2065 19.8979C62.3218 17.8396 61.103 16.0431 59.5503 14.5083C57.9975 12.9556 56.1739 11.7368 54.0794 10.8521C52.003 9.9493 49.7822 9.49792 47.4169 9.49792C45.0517 9.49792 42.8308 9.94028 40.7544 10.825C38.678 11.7097 36.8635 12.9285 35.3107 14.4812C33.7579 16.016 32.5301 17.8125 31.6273 19.8708C30.7426 21.9292 30.3003 24.141 30.3003 26.5062ZM39.8336 26.5062C39.8336 25.3868 40.0142 24.3306 40.3753 23.3375C40.7544 22.3444 41.278 21.4778 41.9461 20.7375C42.6142 19.9792 43.4086 19.3833 44.3294 18.95C45.2683 18.4986 46.3065 18.2729 47.444 18.2729C48.5815 18.2729 49.6107 18.4986 50.5315 18.95C51.4523 19.3833 52.2378 19.9792 52.8878 20.7375C53.5558 21.4958 54.0704 22.3715 54.4315 23.3646C54.7926 24.3576 54.9732 25.4049 54.9732 26.5062C54.9732 27.6076 54.7926 28.6549 54.4315 29.6479C54.0704 30.641 53.5558 31.5167 52.8878 32.275C52.2197 33.0333 51.4253 33.6382 50.5044 34.0896C49.5836 34.541 48.5544 34.7667 47.4169 34.7667C46.2794 34.7667 45.2412 34.55 44.3023 34.1167C43.3815 33.6653 42.5871 33.0604 41.919 32.3021C41.269 31.5437 40.7544 30.6681 40.3753 29.675C40.0142 28.6639 39.8336 27.6076 39.8336 26.5062ZM91.231 41.8083C91.231 42.6028 91.6463 43 92.4768 43H99.7622C100.557 43 100.954 42.6028 100.954 41.8083V23.6896C100.954 21.8479 100.746 20.2139 100.331 18.7875C99.9338 17.3611 99.3921 16.1243 98.706 15.0771C98.0379 14.0118 97.2706 13.1271 96.4039 12.4229C95.5372 11.7007 94.6435 11.1229 93.7227 10.6896C92.8199 10.2382 91.9171 9.92222 91.0143 9.74167C90.1115 9.54305 89.299 9.44375 88.5768 9.44375C87.6379 9.44375 86.699 9.53403 85.7602 9.71458C84.8213 9.89514 83.9095 10.184 83.0247 10.5812C82.14 10.9604 81.2914 11.4569 80.4789 12.0708C79.6845 12.6847 78.9532 13.425 78.2852 14.2917L77.5539 11.3125C77.4456 10.9153 77.2109 10.5722 76.8497 10.2833C76.4886 9.97639 76.1004 9.82291 75.6852 9.82291H70.8643C70.0338 9.82291 69.6185 10.2292 69.6185 11.0417V41.7812C69.6185 42.5937 70.0338 43 70.8643 43H77.8247C78.0234 43 78.222 42.9639 78.4206 42.8917C78.6372 42.8014 78.8359 42.6931 79.0164 42.5667C79.197 42.4222 79.3414 42.2597 79.4497 42.0792C79.5581 41.8986 79.6122 41.709 79.6122 41.5104V24.7187C79.6122 23.8701 79.7567 23.0847 80.0456 22.3625C80.3345 21.6222 80.7407 20.9812 81.2643 20.4396C81.7879 19.8979 82.4109 19.4736 83.1331 19.1667C83.8734 18.8597 84.6859 18.7062 85.5706 18.7062C86.4553 18.7062 87.2407 18.8597 87.9268 19.1667C88.631 19.4736 89.2268 19.8979 89.7143 20.4396C90.2018 20.9812 90.572 21.6222 90.8247 22.3625C91.0956 23.0847 91.231 23.8701 91.231 24.7187V41.8083ZM128.758 41.8083C128.758 42.6028 129.174 43 130.004 43H137.29C138.084 43 138.481 42.6028 138.481 41.8083V23.6896C138.481 21.8479 138.274 20.2139 137.858 18.7875C137.461 17.3611 136.919 16.1243 136.233 15.0771C135.565 14.0118 134.798 13.1271 133.931 12.4229C133.065 11.7007 132.171 11.1229 131.25 10.6896C130.347 10.2382 129.444 9.92222 128.542 9.74167C127.639 9.54305 126.826 9.44375 126.104 9.44375C125.165 9.44375 124.226 9.53403 123.288 9.71458C122.349 9.89514 121.437 10.184 120.552 10.5812C119.667 10.9604 118.819 11.4569 118.006 12.0708C117.212 12.6847 116.481 13.425 115.813 14.2917L115.081 11.3125C114.973 10.9153 114.738 10.5722 114.377 10.2833C114.016 9.97639 113.628 9.82291 113.213 9.82291H108.392C107.561 9.82291 107.146 10.2292 107.146 11.0417V41.7812C107.146 42.5937 107.561 43 108.392 43H115.352C115.551 43 115.749 42.9639 115.948 42.8917C116.165 42.8014 116.363 42.6931 116.544 42.5667C116.724 42.4222 116.869 42.2597 116.977 42.0792C117.085 41.8986 117.14 41.709 117.14 41.5104V24.7187C117.14 23.8701 117.284 23.0847 117.573 22.3625C117.862 21.6222 118.268 20.9812 118.792 20.4396C119.315 19.8979 119.938 19.4736 120.66 19.1667C121.401 18.8597 122.213 18.7062 123.098 18.7062C123.983 18.7062 124.768 18.8597 125.454 19.1667C126.158 19.4736 126.754 19.8979 127.242 20.4396C127.729 20.9812 128.099 21.6222 128.352 22.3625C128.623 23.0847 128.758 23.8701 128.758 24.7187V41.8083ZM160.084 17.3792C161.582 17.3792 162.909 17.7944 164.065 18.625C165.22 19.4556 166.141 20.6382 166.827 22.1729H153.692C153.999 21.5049 154.36 20.8819 154.775 20.3042C155.191 19.7264 155.669 19.2208 156.211 18.7875C156.752 18.3542 157.348 18.0111 157.998 17.7583C158.648 17.5056 159.343 17.3792 160.084 17.3792ZM168.398 32.3562C168.001 32.6632 167.604 32.9882 167.207 33.3312C166.809 33.6743 166.322 33.9993 165.744 34.3062C165.184 34.5951 164.498 34.8389 163.686 35.0375C162.873 35.2361 161.844 35.3354 160.598 35.3354C159.732 35.3354 158.901 35.2 158.107 34.9292C157.312 34.6583 156.59 34.2792 155.94 33.7917C155.29 33.2861 154.73 32.6812 154.261 31.9771C153.791 31.2729 153.43 30.4785 153.177 29.5938H171.919C172.623 29.5938 173.219 29.5576 173.707 29.4854C174.194 29.3951 174.591 29.2417 174.898 29.025C175.223 28.7903 175.449 28.4562 175.575 28.0229C175.72 27.5896 175.792 27.0208 175.792 26.3167C175.792 24.3125 175.548 22.5069 175.061 20.9C174.591 19.2931 173.959 17.8667 173.165 16.6208C172.37 15.375 171.45 14.3097 170.402 13.425C169.355 12.5222 168.263 11.7819 167.125 11.2042C165.988 10.6264 164.832 10.2021 163.659 9.93125C162.503 9.66042 161.411 9.525 160.382 9.525C157.908 9.525 155.642 9.97639 153.584 10.8792C151.525 11.7639 149.756 12.9826 148.275 14.5354C146.813 16.0701 145.675 17.8667 144.863 19.925C144.05 21.9833 143.644 24.1861 143.644 26.5333C143.644 28.8806 144.104 31.0924 145.025 33.1687C145.964 35.2271 147.21 37.0236 148.763 38.5583C150.334 40.0931 152.148 41.3118 154.207 42.2146C156.265 43.0993 158.413 43.5417 160.652 43.5417C161.663 43.5417 162.675 43.4785 163.686 43.3521C164.697 43.2257 165.717 42.991 166.746 42.6479C167.775 42.3049 168.822 41.8264 169.888 41.2125C170.953 40.5986 172.027 39.8132 173.111 38.8562C173.418 38.6035 173.571 38.3417 173.571 38.0708C173.571 37.7819 173.436 37.4569 173.165 37.0958L169.834 32.4917C169.653 32.2389 169.409 32.1125 169.102 32.1125C168.868 32.1125 168.633 32.1937 168.398 32.3562ZM203.292 32.3833C202.967 32.6181 202.588 32.8708 202.154 33.1417C201.739 33.4125 201.278 33.6653 200.773 33.9C200.267 34.1167 199.735 34.2972 199.175 34.4417C198.615 34.5861 198.028 34.6583 197.415 34.6583C196.367 34.6583 195.383 34.4687 194.463 34.0896C193.542 33.6924 192.747 33.1326 192.079 32.4104C191.411 31.6882 190.878 30.8306 190.481 29.8375C190.102 28.8264 189.913 27.7069 189.913 26.4792C189.913 25.2514 190.111 24.1319 190.508 23.1208C190.924 22.1097 191.474 21.2431 192.16 20.5208C192.847 19.7806 193.641 19.2118 194.544 18.8146C195.447 18.3993 196.394 18.1917 197.388 18.1917C198.417 18.1917 199.41 18.3451 200.367 18.6521C201.324 18.941 202.371 19.4826 203.508 20.2771C203.689 20.4035 203.906 20.4667 204.158 20.4667C204.447 20.4667 204.655 20.3674 204.781 20.1687L208.492 14.4271C208.636 14.1924 208.672 13.9847 208.6 13.8042C208.546 13.6056 208.41 13.416 208.194 13.2354C207.435 12.6396 206.668 12.1069 205.892 11.6375C205.133 11.1681 204.321 10.7799 203.454 10.4729C202.588 10.1479 201.658 9.90417 200.665 9.74167C199.672 9.56111 198.561 9.47083 197.333 9.47083C195.004 9.47083 192.81 9.92222 190.752 10.825C188.712 11.7097 186.924 12.9194 185.39 14.4542C183.873 15.9889 182.672 17.7854 181.788 19.8437C180.903 21.9021 180.46 24.1049 180.46 26.4521C180.46 28.9437 180.903 31.2368 181.788 33.3312C182.69 35.4257 183.909 37.2312 185.444 38.7479C186.997 40.2646 188.811 41.4472 190.888 42.2958C192.964 43.1444 195.176 43.5778 197.523 43.5958C198.498 43.5958 199.482 43.4875 200.475 43.2708C201.486 43.0542 202.461 42.7653 203.4 42.4042C204.357 42.025 205.242 41.5917 206.054 41.1042C206.885 40.6167 207.598 40.1111 208.194 39.5875C208.501 39.3167 208.663 39.0639 208.681 38.8292C208.699 38.5944 208.6 38.2965 208.383 37.9354L204.673 32.4917C204.547 32.2569 204.321 32.1396 203.996 32.1396C203.761 32.1396 203.526 32.2208 203.292 32.3833ZM229.996 19.0583C230.682 19.0583 231.025 18.7062 231.025 18.0021V10.9875C231.025 10.7347 230.935 10.5 230.754 10.2833C230.592 10.0667 230.339 9.95833 229.996 9.95833H225.635V2.34791C225.635 1.80625 225.5 1.4 225.229 1.12916C224.976 0.858331 224.651 0.722914 224.254 0.722914C224.038 0.722914 223.83 0.759026 223.631 0.831249L216.833 3.07917C216.31 3.25972 215.967 3.46736 215.804 3.70208C215.642 3.9368 215.56 4.24375 215.56 4.62291V9.95833H211.931C211.588 9.95833 211.326 10.0576 211.146 10.2562C210.965 10.4368 210.875 10.6806 210.875 10.9875V18.0021C210.875 18.7062 211.227 19.0583 211.931 19.0583H215.56V41.8625C215.56 42.6208 215.94 43 216.698 43H224.471C225.247 43 225.635 42.6208 225.635 41.8625V19.0583H229.996Z" fill="url(#paint0_linear_3511_8123)"/>
<defs>
<linearGradient id="paint0_linear_3511_8123" x1="-2" y1="-12" x2="211.607" y2="84.1765" gradientUnits="userSpaceOnUse">
<stop stop-color="#FF003C"/>
<stop offset="0.510417" stop-color="#FF2200"/>
<stop offset="1" stop-color="#FF6600"/>
</linearGradient>
</defs>
</svg>
