<svg width="300" height="300" viewBox="0 0 300 300" fill="none" xmlns="http://www.w3.org/2000/svg">
<path fill-rule="evenodd" clip-rule="evenodd" d="M93.5383 190.226C57.2302 198.69 36.4568 186.873 31.218 154.774C23.3598 106.626 49.9798 56.0429 86.5052 51.1939C123.031 46.3449 138.385 60.1767 164.057 77.5462C189.729 94.9157 264.135 135.785 272.588 142.721C281.042 149.657 299.129 176.761 262.951 193.929C238.833 205.375 208.829 203.219 172.939 187.463C160.323 181.947 148.833 179.027 138.472 178.705C128.11 178.383 113.132 182.224 93.5383 190.226Z" fill="#64FCD9"/>
<path d="M134.928 129.099C138.192 131.229 139.504 133.984 138.865 137.365C135.808 141.946 134.28 145.914 134.28 149.267C134.28 152.62 134.05 156.982 133.59 162.352L108.188 162.888L108.134 162.856C107.455 162.869 106.788 162.88 106.132 162.888C100.478 162.962 95.462 163.711 95.2253 163.747C93.3742 164.035 90.038 160.6 89.1122 159.437C87.6245 157.567 86.9174 155.354 86.6031 152.946C86.3065 150.674 86.7248 148.563 87.5461 146.538C88.5056 144.173 90.0075 142.125 91.9118 140.322C94.0001 138.408 96.2487 136.845 98.7696 135.693C98.8674 135.648 100.677 134.757 100.763 134.769C100.821 134.777 103.714 135.704 107.737 137.583C112.302 134.338 117.24 130.904 122.552 127.281C127.539 126.363 131.665 126.969 134.928 129.099Z" fill="white"/>
<path fill-rule="evenodd" clip-rule="evenodd" d="M102.055 184.383C106.049 185.206 108.457 183.639 109.279 179.681C110.511 173.746 103.065 174.807 100.786 171.752C98.5067 168.697 103.562 168.084 109.279 169.918C115.001 169.667 116.652 169.995 116.981 168.417C117.31 166.839 114.328 165.845 106.366 166.105C98.4027 166.365 99.574 166.376 100.18 173.029C100.584 177.464 101.209 181.249 102.055 184.383Z" fill="white"/>
<path d="M201.325 197.061C198.255 194.521 196.093 192.924 194.934 191.903C192.166 189.463 189.331 187.101 186.539 184.689C185.965 184.194 185.408 183.66 184.935 183.069C184.343 182.328 184.478 181.817 185.414 181.456C186.152 181.171 186.959 181.04 187.748 180.914C190.098 180.538 192.453 180.187 194.81 179.849C195.845 179.701 196.889 179.614 197.927 179.485C198.113 179.462 198.29 179.369 198.471 179.309C198.381 179.163 198.312 178.997 198.198 178.874C197.289 177.892 196.371 176.918 195.455 175.942C195.375 175.856 195.289 175.775 195.206 175.691C195.336 175.66 195.465 175.618 195.597 175.599C198.009 175.242 200.422 174.884 202.836 174.537C204.421 174.309 206.005 174.073 207.595 173.886C209.222 173.695 210.854 173.54 212.487 173.405C213.947 173.284 215.414 173.233 216.874 173.112C217.809 173.034 218.736 172.85 219.671 172.774C220.841 172.679 222.017 172.664 223.188 172.584C224.65 172.484 226.11 172.337 227.573 172.239C228.803 172.157 230.036 172.135 231.266 172.052C232.258 171.985 233.245 171.839 234.237 171.779C235.207 171.72 236.18 171.726 237.151 171.703C239.667 171.645 242.182 171.573 244.698 171.531C246.237 171.506 247.79 171.41 249.312 171.574C250.106 171.66 251.013 172.07 251.579 172.628C253.008 174.04 254.275 175.617 255.604 177.13C256.419 178.058 257.235 178.985 258.037 179.925C259.727 181.904 261.404 183.894 263.095 185.873C263.621 186.487 264.183 187.07 264.71 187.683C264.861 187.858 264.95 188.088 265.067 188.293C264.901 188.157 264.405 187.733 264.57 187.883C280.885 202.725 212.178 205.881 201.325 197.061Z" fill="white"/>
<path d="M15.4792 142.216C15.5348 140.688 15.5821 139.159 15.6414 137.631C15.6606 137.138 15.7164 136.645 15.7469 136.152C16 132.055 16.4868 127.984 17.5353 124.012C18.372 120.842 19.4769 117.759 20.8197 114.747C22.3514 111.312 24.2137 108.082 26.3594 105.011C27.4526 103.446 28.6467 101.938 29.9171 100.512C31.4457 98.7954 33.0163 97.0964 34.7293 95.5679C36.685 93.823 38.7867 92.2327 40.8973 90.6719C41.3672 90.3244 42.1979 90.155 42.7587 90.3001C43.7434 90.5549 43.8858 91.4109 43.1326 92.0646C41.4223 93.5489 40.6084 95.4438 40.4831 97.6445C40.4138 98.8601 40.5277 100.086 40.4602 101.302C40.2378 105.309 41.4081 108.998 43.1412 112.518C44.7982 115.882 47.2108 118.653 50.6728 120.271C52.6592 121.2 54.7835 121.852 56.8754 122.539C58.6924 123.136 60.5543 123.597 62.3907 124.137C64.1923 124.666 65.967 125.147 67.8759 124.51C68.8551 124.184 69.5898 125.059 69.2148 126.008C67.7968 129.597 66.5885 133.322 64.0976 136.349C62.6034 138.164 60.8746 139.844 59.0254 141.301C56.3105 143.441 53.1888 144.966 50.0706 146.469C47.0292 147.935 44.0564 149.542 41.0015 150.979C37.5601 152.597 34.0726 154.12 30.5828 155.633C27.7673 156.854 24.9251 158.015 22.08 159.167C21.3997 159.442 20.6709 159.635 19.9459 159.755C19.2195 159.876 17.6235 158.737 17.3384 157.984C16.6149 156.073 16.1231 154.109 15.92 152.072C15.7964 150.833 15.63 149.598 15.4387 148.361C15.3945 148.273 15.3945 148.185 15.4387 148.054C15.5123 146.359 15.5431 144.708 15.5636 143.057C15.5642 143.012 15.4534 142.965 15.3945 142.919C15.3945 142.714 15.3945 142.509 15.3945 142.26C15.424 142.216 15.4791 142.217 15.4792 142.216Z" fill="white"/>
<path fill-rule="evenodd" clip-rule="evenodd" d="M133.285 162.298L186.745 160.936H188.938C192.135 163.317 195.642 164.343 199.46 164.014C205.187 163.521 210.244 157.2 211.425 148.388C211.599 147.701 212.021 147.535 212.691 147.892C213.429 149.331 214.738 149.958 216.619 149.775C217.435 149.687 217.889 149.878 218.35 150.764C218.811 151.65 221.248 152.765 222.776 151.87C224.303 150.976 231.346 139.569 231.346 137.649C231.346 135.73 231.741 131.538 232.052 131.267C232.363 130.996 232.947 131.216 234.082 130.856C235.217 130.497 236.189 130.855 239.828 121.302C243.467 111.749 249.035 97.4691 249.628 87.4697C250.221 77.4703 243.158 81.0045 239.828 85.1772C236.498 89.3498 227.215 100.094 218.624 105.928C217.573 106.713 216.715 107.083 216.05 107.036C215.651 104.552 214.018 103.627 211.151 104.26C210.037 104.46 209.125 103.579 208.415 101.617C206.577 91.4315 202.387 84.0611 195.844 79.506C186.03 72.6734 169.308 68.7688 165.284 83.0547C162.602 92.5786 164.215 104.15 170.122 117.767L167.663 119.896C157.985 123.244 150.078 127.377 143.944 132.295C134.742 139.672 134.566 146.868 134.078 152.803C133.752 156.76 133.488 159.925 133.285 162.298Z" fill="white"/>
<path d="M113.505 121.166C113.586 120.392 113.624 119.613 113.713 118.84C113.718 118.799 114.111 118.71 114.224 118.788C115.276 119.51 116.317 120.251 117.337 121.019C117.613 121.228 117.635 121.435 117.76 120.89C117.956 120.038 119.167 119.801 119.893 120.406C121.556 121.793 122.396 123.659 123.005 125.688C123.533 127.448 123.324 129.236 123.375 131.014C123.408 132.156 124.477 133.016 125.599 133.062C126.428 133.096 127.301 133.46 128.047 133.872C129.852 134.868 131.013 136.439 131.584 138.418C132.198 140.55 131.626 142.447 130.391 144.218C129.267 145.829 128.244 147.516 126.613 148.697C125.711 149.35 124.672 149.893 123.966 150.718C123.208 151.604 122.337 152.182 121.304 152.58C118.76 153.562 115.981 152.289 114.735 150.168C113.419 147.369 108.723 149.65 106.903 145.521C105.985 144.159 105.628 143.016 105.826 142.902C106.068 142.763 105.733 142.41 105.305 141.961C103.436 139.998 101.777 137.872 100.641 135.383C100.462 134.99 100.277 134.585 100.198 134.166C100.15 133.908 100.222 133.541 100.389 133.363C100.494 133.252 100.912 133.332 101.123 133.447C101.439 133.62 101.69 133.91 101.983 134.132C102.481 134.511 102.758 134.35 102.623 133.759C102.239 132.08 102.592 130.486 103.182 128.945C103.501 128.115 104.019 127.357 104.5 126.6C104.546 126.528 105.008 126.636 105.21 126.767C105.583 127.008 105.906 127.327 106.251 127.614C106.274 127.155 106.281 126.694 106.326 126.238C106.353 125.966 106.419 125.695 106.502 125.434C106.914 124.126 107.135 124.06 108.227 124.88C108.373 124.99 108.548 125.061 108.71 125.151C108.732 124.984 108.762 124.819 108.776 124.651C108.896 123.214 108.608 121.91 107.558 120.843C107.545 120.831 107.773 120.455 107.904 120.445C109.418 120.326 110.931 120.264 112.316 121.072C112.599 121.237 112.881 121.404 113.208 121.614C113.339 121.494 113.486 121.337 113.505 121.166Z" fill="white"/>
<path fill-rule="evenodd" clip-rule="evenodd" d="M135.945 68.3024C131.476 72.0064 129.449 77.3689 129.865 84.3898C130.489 94.9212 142.74 102.424 148.667 99.2484C154.593 96.0726 161.136 91.4463 161.918 81.5987C162.25 90.9694 163.232 95.53 150.598 102.326C137.964 109.121 124.756 98.5768 122.845 94.2306C120.935 89.8844 116.336 80.2898 125.67 69.1588C126.947 67.6866 130.373 67.4012 135.945 68.3024Z" fill="white"/>
<path fill-rule="evenodd" clip-rule="evenodd" d="M242.426 191.522C243.507 191.404 244.504 191.309 245.492 191.162C247.737 190.829 249.978 190.462 252.223 190.124C253.559 189.923 254.915 189.826 256.232 189.542C257.156 189.342 257.993 189.472 258.844 189.752C258.981 189.797 259.086 189.939 259.205 190.037C259.061 190.117 258.924 190.251 258.773 190.27C256.799 190.519 254.82 190.727 252.85 190.996C250.868 191.267 248.896 191.61 246.916 191.893C245.536 192.09 244.148 192.23 242.767 192.415C242.046 192.511 241.334 192.666 240.614 192.762C239.594 192.898 238.568 192.988 237.548 193.126C236.352 193.287 235.162 193.487 233.966 193.652C233.005 193.785 232.039 193.882 231.077 194.013C229.853 194.18 228.631 194.371 227.407 194.542C226.504 194.669 225.599 194.783 224.694 194.899C223.742 195.02 222.785 195.115 221.837 195.263C221.262 195.352 220.734 195.348 220.564 194.687C220.408 194.084 220.716 193.612 221.303 193.482C222.106 193.304 222.931 193.207 223.752 193.13C224.726 193.038 225.706 192.998 226.683 192.945C227.887 192.881 229.093 192.847 230.295 192.76C231.574 192.668 232.849 192.521 234.127 192.413C235.63 192.285 237.136 192.192 238.637 192.048C239.417 191.973 240.19 191.815 240.967 191.701C241.423 191.635 241.881 191.581 242.426 191.522Z" fill="#E7EAEE"/>
<path fill-rule="evenodd" clip-rule="evenodd" d="M218.977 183.197C220.059 183.138 221.053 183.097 222.045 183.017C223.098 182.931 224.147 182.79 225.2 182.708C226.383 182.616 227.569 182.579 228.752 182.491C230.094 182.391 231.432 182.251 232.774 182.148C233.766 182.071 234.761 182.044 235.753 181.964C236.997 181.865 238.237 181.721 239.481 181.622C240.472 181.542 241.468 181.517 242.46 181.438C243.771 181.333 245.077 181.138 246.389 181.094C247.885 181.044 249.388 180.578 250.884 181.095C251.062 181.156 251.223 181.264 251.393 181.351C251.232 181.381 251.072 181.423 250.91 181.44C249.775 181.561 248.638 181.663 247.505 181.796C246.129 181.958 244.758 182.17 243.379 182.31C242.371 182.413 241.352 182.406 240.343 182.502C238.96 182.634 237.583 182.833 236.2 182.972C235.196 183.073 234.186 183.116 233.181 183.199C231.869 183.308 230.558 183.427 229.248 183.549C228.053 183.66 226.859 183.772 225.667 183.901C224.144 184.067 222.625 184.269 221.101 184.42C219.656 184.563 218.203 184.642 216.757 184.782C215.751 184.88 214.753 185.064 213.746 185.143C213.353 185.174 212.915 185.089 212.555 184.929C212.297 184.814 212.135 184.487 211.93 184.255C212.19 184.078 212.438 183.771 212.712 183.745C214.381 183.585 216.057 183.495 217.729 183.368C218.118 183.339 218.503 183.255 218.977 183.197Z" fill="#E7EAEE"/>
<path fill-rule="evenodd" clip-rule="evenodd" d="M127 205.331C126.91 205.403 126.862 205.459 126.817 205.458C126.404 205.445 125.991 205.423 125.578 205.404C125.972 205.132 126.333 204.714 126.767 204.614C128.477 204.223 130.017 203.533 131.444 202.514C133.308 201.184 134.459 199.439 134.878 197.21C134.942 196.866 134.845 196.712 134.431 196.715C133.84 196.718 133.247 196.621 132.656 196.554C131.499 196.423 130.579 195.606 130.478 194.631C130.413 194.006 131.351 192.697 132.044 192.359C133.657 191.573 135.449 193.125 135.907 194.468C136.091 195.009 136.179 194.813 136.423 194.59C137.574 193.539 137.951 192.188 137.859 190.704C137.761 189.119 137.063 187.844 135.687 186.952C135.21 186.642 135.028 186.202 135.397 185.641C135.8 185.028 136.918 184.986 137.355 185.528C137.946 186.261 138.464 187.105 138.79 187.982C139.58 190.111 139.378 192.181 138.048 194.085C137.953 194.221 137.874 194.379 137.752 194.485C136.708 195.391 136.146 196.519 135.721 197.848C134.463 201.788 131.574 204.115 127.659 205.28C127.47 205.336 127.25 205.287 127 205.331ZM132.326 193.412C131.571 193.86 131.364 195.144 132.08 195.368C132.906 195.626 133.861 195.484 134.76 195.492C134.799 195.493 134.863 195.267 134.875 195.142C134.993 193.934 133.86 193.1 132.326 193.412Z" fill="#FFB61D"/>
<path fill-rule="evenodd" clip-rule="evenodd" d="M232.483 187.05C234.978 186.813 237.383 186.558 239.792 186.345C241.499 186.195 243.212 186.118 244.919 185.978C245.973 185.891 247.023 185.752 248.074 185.627C249.524 185.455 250.975 185.134 252.422 185.15C253.247 185.159 254.207 185.428 254.77 186.263C254.813 186.328 254.862 186.389 254.909 186.452C254.8 186.474 254.683 186.532 254.583 186.511C252.696 186.111 250.839 186.498 248.966 186.671C247.661 186.792 246.333 186.648 245.019 186.707C243.7 186.767 242.386 186.936 241.069 187.048C239.615 187.172 238.158 187.268 236.706 187.412C235.926 187.489 235.156 187.663 234.377 187.755C233.219 187.893 232.056 187.98 230.898 188.12C229.574 188.279 228.249 188.438 226.934 188.656C225.371 188.917 223.822 189.262 222.26 189.53C220.713 189.795 219.163 190.078 217.602 190.216C216.891 190.278 216.138 190.057 215.428 189.874C214.881 189.733 215.005 189.349 215.353 189.096C215.634 188.892 215.979 188.715 216.316 188.663C217.332 188.504 218.357 188.409 219.38 188.294C220.46 188.172 221.539 188.037 222.622 187.942C224.164 187.806 225.709 187.717 227.25 187.576C228.187 187.491 229.116 187.33 230.052 187.232C230.83 187.15 231.614 187.109 232.483 187.05Z" fill="#E7EAEE"/>
<path fill-rule="evenodd" clip-rule="evenodd" d="M215.939 179.708C217.997 179.474 219.966 179.226 221.938 179.008C223.219 178.867 224.507 178.786 225.788 178.645C226.537 178.563 227.277 178.408 228.024 178.302C228.536 178.228 229.054 178.187 229.567 178.122C231.139 177.92 232.707 177.69 234.281 177.516C235.883 177.338 237.492 177.229 239.094 177.061C240.562 176.907 242.022 176.666 243.492 176.562C244.02 176.524 244.578 176.742 245.102 176.906C245.277 176.961 245.391 177.21 245.533 177.37C245.332 177.437 245.134 177.547 244.93 177.562C243.785 177.644 242.638 177.685 241.494 177.775C240.287 177.871 239.081 177.995 237.877 178.126C236.954 178.227 236.035 178.367 235.113 178.473C234.006 178.6 232.895 178.687 231.791 178.833C230.171 179.047 228.557 179.305 226.938 179.53C225.186 179.774 223.427 179.977 221.678 180.245C220.167 180.476 218.668 180.787 217.161 181.039C215.179 181.371 213.192 181.671 211.21 182.004C210.486 182.125 210.047 181.713 209.982 181.138C209.923 180.617 210.381 180.427 210.967 180.388C212.506 180.286 214.037 180.063 215.57 179.879C215.669 179.867 215.758 179.767 215.939 179.708Z" fill="#E7EAEE"/>
<path fill-rule="evenodd" clip-rule="evenodd" d="M238.93 198.168C237.01 198.408 235.177 198.643 233.347 198.89C232.567 198.996 231.791 199.198 231.012 199.208C230.759 199.211 230.256 198.691 230.295 198.501C230.375 198.117 230.704 197.544 231.005 197.491C232.288 197.268 233.599 197.212 234.898 197.086C236.071 196.972 237.242 196.842 238.414 196.729C239.714 196.603 241.014 196.482 242.314 196.369C243.771 196.242 245.228 196.119 246.685 196.01C247.684 195.935 248.686 195.906 249.684 195.822C250.857 195.723 252.027 195.573 253.2 195.471C254.139 195.389 255.083 195.369 256.021 195.28C256.989 195.189 257.952 195.045 258.917 194.929C259.034 194.914 259.162 194.899 259.27 194.932C259.643 195.046 260.01 195.182 260.379 195.31C260.054 195.422 259.736 195.593 259.402 195.637C257.425 195.897 255.444 196.12 253.466 196.37C252.15 196.536 250.838 196.745 249.521 196.902C248.313 197.047 247.097 197.13 245.888 197.275C245.252 197.351 244.628 197.539 243.992 197.609C242.637 197.758 241.277 197.858 239.92 197.992C239.617 198.022 239.319 198.108 238.93 198.168Z" fill="#E7EAEE"/>
<path fill-rule="evenodd" clip-rule="evenodd" d="M91.9118 140.323C94.0001 138.408 96.2487 136.846 98.7696 135.693C98.8674 135.648 98.9676 135.54 99.0544 135.552C99.4331 135.604 99.8073 135.689 100.183 135.762C99.9112 135.948 99.658 136.175 99.3642 136.314C96.4475 137.696 93.731 139.373 91.5212 141.776C89.3733 144.111 87.8335 146.732 87.4938 150.004C87.1815 153.011 87.5631 155.824 89.2645 158.361C90.1776 159.723 91.4105 160.739 92.9085 161.413C93.0275 161.467 93.1396 161.536 93.2549 161.598C93.1211 161.625 92.988 161.657 92.8533 161.678C91.0021 161.965 90.038 160.6 89.1122 159.437C87.6245 157.567 86.9174 155.355 86.6031 152.946C86.3065 150.675 86.7248 148.563 87.5461 146.538C88.5056 144.173 90.0075 142.126 91.9118 140.323Z" fill="#00160A"/>
<path fill-rule="evenodd" clip-rule="evenodd" d="M207.734 179.18C207.419 178.488 207.875 177.722 208.599 177.729C209.835 177.74 211.071 177.823 212.306 177.885C213.252 177.933 214.196 177.995 215.142 178.051C215.255 178.058 215.399 178.022 215.478 178.075C215.74 178.253 215.98 178.461 216.229 178.658C215.989 178.776 215.756 178.978 215.508 178.996C214.742 179.053 213.964 179.109 213.203 179.04C211.855 178.917 210.581 179.22 209.337 179.601C208.659 179.809 208.232 179.593 207.734 179.18Z" fill="#E7EAEE"/>
<path fill-rule="evenodd" clip-rule="evenodd" d="M29.2075 122.166C29.0312 123.236 28.8361 124.216 28.6855 125.202C28.5901 125.826 28.5688 126.462 28.5007 127.092C28.3896 128.119 28.1942 129.143 28.1644 130.172C28.0922 132.663 28.1149 135.158 28.0617 137.65C28.0104 140.054 28.4737 142.38 29.034 144.696C29.1429 145.146 29.1758 145.676 29.4426 146.011C29.8521 146.526 29.4719 146.776 29.1844 146.855C28.9098 146.93 28.374 146.796 28.2639 146.589C27.9621 146.022 27.7578 145.381 27.634 144.746C27.3207 143.138 26.9408 141.526 26.8305 139.899C26.6814 137.698 26.7848 135.481 26.7332 133.272C26.6706 130.595 27.065 127.966 27.4329 125.326C28.0401 120.969 28.9082 116.673 30.2851 112.491C30.4513 111.987 30.8245 111.499 31.2219 111.134C31.7073 110.687 32.455 111.095 32.5619 111.769C32.6885 112.566 32.3251 113.177 31.887 113.779C30.568 115.594 29.9086 117.664 29.5602 119.85C29.4418 120.593 29.325 121.336 29.2075 122.166Z" fill="#E7EAEE"/>
<path fill-rule="evenodd" clip-rule="evenodd" d="M38.0993 141.166C38.0372 141.713 39.0218 142.369 37.9241 142.576C37.6272 142.632 36.9777 142.039 36.8411 141.637C36.4274 140.419 36.027 139.161 35.9158 137.895C35.7622 136.147 35.8772 134.378 35.8772 132.618C35.8772 132.414 35.8772 132.209 35.8772 132.005C35.8772 129.234 35.8899 126.463 35.8688 123.692C35.8632 122.957 35.6913 122.221 35.7128 121.489C35.7286 120.951 35.8403 120.373 36.0881 119.896C36.2652 119.555 36.7228 119.178 37.0855 119.148C37.3348 119.128 37.8349 119.653 37.8755 119.974C37.9819 120.813 37.9391 121.677 37.8763 122.526C37.8275 123.186 37.596 123.834 37.5562 124.493C37.4568 126.139 37.4135 127.789 37.3603 129.437C37.2916 131.572 37.0971 133.713 37.2164 135.838C37.315 137.595 37.7907 139.332 38.0993 141.166Z" fill="#E7EAEE"/>
<path fill-rule="evenodd" clip-rule="evenodd" d="M46.503 137.611C44.835 135.032 43.5917 132.308 42.8137 129.385C42.6569 128.795 42.7932 128.048 43.0143 127.46C43.1205 127.178 43.8583 126.862 44.0972 126.987C44.4212 127.158 44.6791 127.722 44.7239 128.145C44.8965 129.776 45.0077 131.39 45.5455 132.977C46.1992 134.906 47.3202 136.515 48.406 138.168C48.632 138.512 49.308 138.852 48.8312 139.289C48.3561 139.724 47.8734 139.22 47.5151 138.82C47.1784 138.445 46.8679 138.044 46.503 137.611Z" fill="#E7EAEE"/>
<path fill-rule="evenodd" clip-rule="evenodd" d="M54.1565 132.084C53.1533 131.108 52.1488 130.218 51.2506 129.226C50.7834 128.71 50.871 128.055 51.4325 127.562C51.9925 127.071 52.3428 127.53 52.6654 127.903C53.8858 129.317 55.0892 130.746 56.2935 132.175C56.3618 132.256 56.434 132.459 56.4168 132.471C56.2199 132.608 55.9654 132.859 55.8039 132.81C55.2522 132.641 54.7317 132.364 54.1565 132.084Z" fill="#E7EAEE"/>
<path fill-rule="evenodd" clip-rule="evenodd" d="M107.005 250.75C109.273 251.318 111.463 251.855 113.624 252.482C114.02 252.597 114.302 253.076 114.637 253.387C114.167 253.416 113.668 253.561 113.233 253.457C110.988 252.919 108.74 252.38 106.532 251.721C104.365 251.075 102.244 250.285 100.105 249.555C100.003 249.52 99.9181 249.441 99.8203 249.392C99.2965 249.131 98.7385 248.865 99.1511 248.162C99.5316 247.513 100.124 247.529 100.71 247.86C101.569 248.346 102.361 248.959 103.256 249.367C104.438 249.905 105.693 250.296 107.005 250.75Z" fill="#E7EAEE"/>
<path fill-rule="evenodd" clip-rule="evenodd" d="M109.971 244.07C110.893 244.602 111.777 245.075 112.641 245.585C112.824 245.693 112.933 245.932 113.077 246.111C112.771 246.233 112.398 246.535 112.169 246.448C110.336 245.749 108.524 244.988 106.716 244.22C105.723 243.798 104.742 243.345 103.774 242.866C103.232 242.598 102.615 242.317 103.084 241.488C103.377 240.97 104.071 240.842 104.717 241.195C106.451 242.142 108.189 243.081 109.971 244.07Z" fill="#E7EAEE"/>
<path fill-rule="evenodd" clip-rule="evenodd" d="M104.872 234.241C104.836 232.967 105.652 232.43 106.712 233.058C108.514 234.127 110.269 235.275 112.029 236.413C112.554 236.752 113.05 237.145 113.517 237.56C113.692 237.716 113.748 238.007 113.858 238.236C113.553 238.23 113.206 238.318 112.95 238.203C111.443 237.522 109.952 236.805 108.466 236.078C107.275 235.497 106.099 234.884 104.872 234.241Z" fill="#E7EAEE"/>
<path fill-rule="evenodd" clip-rule="evenodd" d="M110.979 225.375C112.527 225.395 113.347 226.425 114.232 227.336C114.486 227.598 114.691 227.925 114.844 228.256C114.995 228.584 115.199 229.031 114.779 229.253C114.59 229.353 114.172 229.155 113.919 228.998C113.193 228.545 112.509 228.028 111.786 227.57C111.526 227.406 111.163 227.391 110.919 227.213C110.562 226.954 110.269 226.609 109.949 226.301C110.264 225.992 110.578 225.684 110.979 225.375Z" fill="#E7EAEE"/>
<path fill-rule="evenodd" clip-rule="evenodd" d="M115.929 200.23C117.206 202.88 118.23 205.614 118.572 208.561C118.755 210.142 118.964 211.721 119.089 213.307C119.203 214.747 119.291 216.196 119.258 217.638C119.22 219.363 119.034 221.085 118.928 222.809C118.854 224.008 118.842 225.212 118.741 226.408C118.598 228.091 118.369 229.766 118.23 231.449C118.125 232.723 118.055 234.004 118.058 235.282C118.061 236.736 118.165 238.19 118.22 239.645C118.282 241.304 118.142 243.001 118.443 244.615C118.893 247.031 119.51 249.439 120.31 251.762C121.488 255.178 123.525 258.147 125.772 260.942C127.16 262.668 128.762 264.201 131.018 264.796C131.047 264.804 131.072 265.075 131.014 265.126C130.182 265.854 129.147 265.558 128.269 265.441C126.307 265.179 124.366 264.715 122.438 264.244C117.54 263.046 112.649 261.82 107.766 260.563C105.387 259.95 103.034 259.236 100.665 258.585C100.316 258.489 99.8668 258.33 99.5931 258.464C98.2118 259.141 97.1446 258.397 96.1292 257.709C93.9039 256.201 92.6416 254.01 91.9871 251.436C91.0842 247.885 91.81 244.496 93.1203 241.211C93.9844 239.046 95.0148 236.942 96.0496 234.85C97.0998 232.727 98.4179 230.764 100.016 229.009C100.556 228.416 101.212 227.931 101.799 227.379C102.604 226.621 102.646 225.582 102.712 224.593C102.789 223.446 102.615 222.271 102.78 221.142C103.339 217.306 105.032 213.862 106.812 210.49C107.699 208.809 108.827 207.211 110.078 205.78C111.007 204.718 112.228 203.859 113.666 203.451C114.107 203.326 114.232 203.225 113.903 202.675C113.427 201.879 112.758 200.954 113.599 199.888C114.606 198.88 115.333 198.993 115.929 200.23ZM117.268 208.23C117.233 208.264 117.176 208.294 117.168 208.333C117.103 208.67 117.095 209.026 116.98 209.344C116.471 210.747 116.078 212.218 115.373 213.518C113.961 216.126 112.157 218.475 110.027 220.555C108.17 222.367 106.286 224.153 104.444 225.981C103.394 227.024 102.314 228.056 101.41 229.22C99.9591 231.086 98.4349 232.945 97.3244 235.013C96.0345 237.415 95.0675 240.006 94.1337 242.579C93.5472 244.195 93.1494 245.907 92.9038 247.611C92.6399 249.441 92.9927 251.267 93.8205 252.936C94.4308 254.166 95.2902 255.185 96.6977 255.629C98.3811 256.159 100.034 256.785 101.713 257.329C105.44 258.535 109.154 259.788 112.914 260.882C115.729 261.701 118.6 262.334 121.46 262.987C123.08 263.357 124.728 263.607 126.367 263.889C126.496 263.911 126.656 263.756 126.802 263.683C126.729 263.579 126.665 263.466 126.58 263.373C125.982 262.709 125.315 262.096 124.79 261.38C123.344 259.406 121.759 257.498 120.589 255.367C118.513 251.584 117.121 247.529 116.809 243.167C116.713 241.824 116.578 240.483 116.46 238.966C116.46 237.281 116.392 235.594 116.481 233.914C116.557 232.474 116.816 231.044 116.987 229.609C117.111 228.572 117.152 227.519 117.356 226.499C117.744 224.548 117.561 223.76 115.902 222.648C115.131 222.13 114.162 221.632 114.124 220.548C114.109 220.09 114.476 219.546 114.822 219.192C114.927 219.085 115.667 219.383 115.908 219.67C116.454 220.321 116.867 221.084 117.345 221.794C117.422 221.908 117.554 221.985 117.661 222.08C117.73 221.962 117.849 221.848 117.861 221.725C117.935 220.899 118.037 220.071 118.032 219.244C118.026 218.181 117.92 217.12 117.871 216.057C117.804 214.633 117.758 213.208 117.691 211.784C117.643 210.77 117.586 209.756 117.507 208.744C117.493 208.567 117.351 208.401 117.268 208.23ZM113.643 204.602C111.757 205.252 110.458 206.638 109.437 208.241C107.399 211.44 105.777 214.86 104.717 218.506C104.224 220.205 104.013 221.99 104.675 223.735C104.713 223.837 104.985 223.965 105.004 223.945C107.531 221.274 110.069 218.614 112.551 215.903C115.084 213.136 116.041 209.835 115.567 206.136C115.353 204.457 115.234 204.415 113.643 204.602ZM249.312 171.574C250.106 171.659 251.013 172.07 251.579 172.628C253.008 174.039 254.276 175.616 255.604 177.13C256.419 178.058 257.235 178.985 258.037 179.924C259.727 181.904 261.404 183.894 263.095 185.872C263.621 186.487 264.183 187.07 264.71 187.682C264.861 187.858 264.95 188.088 265.068 188.293C264.901 188.157 264.721 188.034 264.57 187.882C260.574 183.881 256.594 179.864 252.58 175.881C251.266 174.577 249.772 173.473 247.969 172.959C246.07 172.417 244.133 172.233 242.143 172.559C241.14 172.724 240.087 172.554 239.059 172.595C236.771 172.687 234.485 172.837 232.197 172.921C230.857 172.971 229.511 172.892 228.172 172.954C226.738 173.021 225.309 173.183 223.879 173.306C222.563 173.419 221.246 173.525 219.932 173.653C218.89 173.755 217.853 173.898 216.812 174.001C215.489 174.131 214.16 174.21 212.84 174.367C211.721 174.5 210.613 174.719 209.497 174.887C208.257 175.073 207.014 175.235 205.774 175.422C203.865 175.709 201.957 176.006 200.052 176.319C199.982 176.33 199.865 176.606 199.905 176.664C200.258 177.172 200.621 177.677 201.019 178.15C203.008 180.512 205.024 182.851 207.002 185.223C209.245 187.911 211.416 190.661 213.697 193.316C215.298 195.18 216.875 197.102 219.135 198.25C219.207 198.287 219.272 198.339 219.34 198.384C219.257 198.398 219.166 198.443 219.093 198.422C217.713 198.017 216.273 197.851 215.266 196.546C213.405 194.136 211.402 191.839 209.488 189.47C207.12 186.539 204.869 183.508 202.056 180.97C201.827 180.763 201.588 180.549 201.316 180.413C200.713 180.113 200.159 180.012 199.689 180.725C198.754 182.143 197.733 183.506 196.798 184.925C196.175 185.872 196.377 186.337 197.505 187.104C200.473 189.123 203.697 190.561 207.147 191.541C208.583 191.949 210.007 192.466 211.028 193.675C211.101 193.761 211.178 193.842 211.253 193.926C211.132 193.914 211.002 193.926 210.891 193.887C206.245 192.244 201.594 190.617 196.965 188.931C196.204 188.653 195.504 188.163 194.839 187.682C194.415 187.376 194.435 186.916 194.712 186.423C195.663 184.728 196.573 183.01 197.49 181.296C197.552 181.18 197.579 180.911 197.558 180.903C197.324 180.823 197.066 180.707 196.836 180.742C195.875 180.888 194.907 181.026 193.968 181.271C191.849 181.825 189.745 182.436 187.639 183.04C187.516 183.075 187.436 183.26 187.335 183.375C187.868 183.791 188.4 184.206 188.977 184.667C191.208 186.608 193.397 188.504 195.582 190.404C196.752 191.422 197.914 192.448 199.08 193.471C199.128 193.513 199.178 193.553 199.227 193.593C199.117 193.612 198.997 193.667 198.898 193.642C197.481 193.284 196.093 192.924 194.934 191.902C192.167 189.463 189.332 187.101 186.54 184.689C185.966 184.193 185.408 183.66 184.936 183.069C184.343 182.328 184.478 181.816 185.414 181.455C186.152 181.171 186.96 181.04 187.748 180.914C190.098 180.538 192.453 180.187 194.81 179.849C195.845 179.701 196.889 179.614 197.927 179.485C198.113 179.462 198.29 179.369 198.471 179.309C198.381 179.163 198.312 178.997 198.198 178.874C197.289 177.892 196.371 176.917 195.455 175.942C195.375 175.856 195.289 175.774 195.206 175.691C195.336 175.66 195.465 175.618 195.597 175.598C198.009 175.242 200.422 174.884 202.836 174.537C204.421 174.309 206.005 174.072 207.595 173.886C209.222 173.694 210.854 173.539 212.487 173.404C213.948 173.284 215.414 173.233 216.874 173.111C217.809 173.034 218.736 172.849 219.671 172.774C220.841 172.679 222.017 172.664 223.188 172.584C224.651 172.484 226.11 172.337 227.573 172.239C228.803 172.157 230.037 172.135 231.266 172.051C232.258 171.984 233.245 171.838 234.237 171.778C235.207 171.72 236.18 171.726 237.152 171.703C239.667 171.644 242.182 171.573 244.698 171.531C246.237 171.505 247.79 171.41 249.312 171.574ZM102.991 165.636C103.662 165.706 104.348 165.615 105.024 165.655C106.672 165.753 108.317 165.904 109.966 165.997C111.5 166.083 113.041 166.065 114.571 166.195C116.138 166.327 117.076 166.982 116.976 168.859C116.885 170.552 116.854 172.249 116.794 173.944C116.738 175.521 116.676 177.098 116.622 178.676C116.614 178.909 116.622 179.143 116.637 179.376C116.65 179.579 116.683 179.779 116.708 179.98C116.65 179.981 116.548 179.998 116.54 179.978C116.457 179.761 116.35 179.542 116.324 179.314C116.232 178.519 116.172 177.719 116.096 176.922C115.982 175.732 115.866 174.542 115.747 173.352C115.686 172.751 115.617 172.15 115.546 171.55C115.502 171.177 115.459 170.803 115.393 170.433C115.365 170.276 115.278 170.129 115.218 169.977C115.095 170.048 114.947 170.093 114.852 170.192C113.696 171.393 112.905 172.794 112.602 174.462C112.569 174.645 112.458 174.813 112.384 174.988C112.322 174.833 112.272 174.673 112.197 174.525C110.847 171.822 108.719 170.026 105.814 169.412C104.486 169.131 103.052 169.37 101.667 169.362C100.969 169.357 100.854 169.758 100.914 170.354C101.047 171.65 101.146 172.949 101.27 174.246C101.438 176.01 101.619 177.774 101.791 179.538C101.911 180.776 102.009 182.017 102.15 183.253C102.19 183.6 102.348 183.933 102.447 184.275C102.493 184.434 102.529 184.597 102.569 184.758C102.392 184.635 102.104 184.546 102.057 184.383C101.817 183.565 101.642 182.728 101.442 181.898C101.211 180.934 100.978 179.971 100.745 178.919C100.512 177.278 100.192 175.732 100.068 174.171C99.8926 171.964 99.5551 169.732 100.047 167.535C100.325 166.29 101.745 165.506 102.991 165.636ZM98.2595 169.973C98.6225 170.101 98.8964 170.488 99.2091 170.762C98.9933 171.013 98.8136 171.314 98.5542 171.504C97.9858 171.919 97.3085 172.201 96.7985 172.673C95.5869 173.795 96.1601 176.025 97.4175 176.614C97.9975 176.886 98.5768 177.163 99.137 177.473C99.3396 177.585 99.4855 177.803 99.6572 177.972C99.4482 177.978 99.2392 177.983 99.0302 177.989C97.688 178.024 96.6813 177.403 95.9292 176.324C94.7962 174.698 95.3977 173.108 96.7317 171.836C96.8574 171.716 96.9713 171.583 97.0997 171.467C97.2652 171.316 97.4399 171.177 97.6107 171.032C97.2787 170.99 96.9126 170.835 96.6209 170.925C95.5319 171.263 94.9138 172.173 94.5831 173.169C93.4474 176.588 96.1318 179.358 99.1773 179.002C99.4989 178.964 99.8463 179.153 100.182 179.237C100.101 179.287 100.027 179.357 99.9388 179.386C97.3889 180.217 95.2166 179.275 93.9848 176.812C93.8998 176.642 93.7835 176.488 93.6818 176.239C93.0926 173.219 94.3511 170.966 97.1128 170.065C97.4747 169.947 97.926 169.855 98.2595 169.973ZM101.364 166.544C100.824 166.668 100.634 167.252 100.92 167.77C101.312 168.48 101.915 168.506 102.643 168.434C103.791 168.321 104.961 168.232 106.106 168.33C107.557 168.454 108.985 168.85 110.436 168.987C111.644 169.101 112.871 169.01 114.178 168.922C114.688 168.892 115.198 168.854 115.709 168.836C116.322 168.813 116.673 168.322 116.343 167.796C116.14 167.473 115.721 167.137 115.365 167.093C113.873 166.906 112.37 166.797 110.868 166.721C109.806 166.666 108.738 166.753 107.676 166.7C106.068 166.62 104.464 166.452 102.856 166.369C102.362 166.344 101.851 166.433 101.364 166.544ZM180.943 160.157C182.719 160.193 184.49 160.48 186.263 160.664C186.395 160.678 186.538 160.719 186.648 160.791C186.88 160.942 187.093 161.122 187.313 161.29C187.032 161.318 186.751 161.353 186.468 161.373C184.7 161.494 182.932 161.622 181.163 161.72C180.869 161.736 180.564 161.547 180.27 161.563C178.442 161.661 176.616 161.805 174.788 161.897C174.377 161.918 173.955 161.721 173.544 161.743C171.774 161.834 170.007 161.981 168.238 162.076C167.914 162.094 167.58 161.903 167.257 161.92C165.429 162.016 163.603 162.161 161.775 162.254C161.393 162.274 161 162.079 160.618 162.099C158.849 162.192 157.082 162.339 155.312 162.433C154.96 162.452 154.596 162.259 154.244 162.277C152.416 162.372 150.59 162.515 148.762 162.612C148.439 162.629 148.104 162.438 147.781 162.455C145.953 162.551 144.127 162.692 142.299 162.79C142.005 162.806 141.7 162.617 141.406 162.633C139.578 162.731 137.753 162.876 135.925 162.968C135.513 162.988 135.091 162.792 134.68 162.813C132.91 162.904 131.144 163.051 129.374 163.147C129.051 163.164 128.717 162.973 128.393 162.99C126.565 163.087 124.74 163.23 122.911 163.325C122.559 163.343 122.195 163.15 121.843 163.169C120.044 163.264 118.248 163.409 116.449 163.503C116.096 163.522 115.733 163.329 115.38 163.347C113.552 163.442 111.726 163.587 109.898 163.682C109.546 163.7 109.182 163.507 108.829 163.526C107.06 163.62 105.293 163.764 103.524 163.86C103.2 163.878 102.866 163.687 102.543 163.704C100.715 163.8 98.8888 163.94 97.0609 164.04C96.7961 164.054 96.5201 163.866 96.2559 163.882C94.7483 163.975 93.2435 164.116 91.736 164.21C90.7099 164.274 89.6772 164.246 88.6538 164.335C87.1916 164.462 85.7263 164.602 84.2794 164.842C83.1474 165.03 82.0506 165.438 80.918 165.617C80.5988 165.668 80.1286 165.322 79.8889 165.024C79.7874 164.898 80.0158 164.319 80.243 164.132C81.1749 163.366 82.2963 163.236 83.5446 163.336C84.3216 163.277 85.011 163.221 85.6996 163.157C86.9507 163.041 88.1993 162.883 89.4527 162.81C91.1066 162.714 92.7645 162.627 94.4202 162.635C97.2001 162.649 99.9795 162.78 102.759 162.788C104.825 162.794 106.892 162.686 108.958 162.621C110.702 162.567 112.446 162.502 114.19 162.445C116.022 162.384 117.854 162.326 119.686 162.265C121.43 162.207 123.174 162.165 124.917 162.083C126.99 161.984 129.059 161.835 131.132 161.742C131.573 161.722 132.023 161.915 132.465 161.898C135.094 161.801 137.721 161.668 140.35 161.555C140.828 161.535 141.309 161.579 141.786 161.547C143.35 161.442 144.911 161.299 146.476 161.207C146.828 161.187 147.193 161.382 147.545 161.362C149.139 161.27 150.73 161.124 152.323 161.028C152.617 161.01 152.923 161.202 153.216 161.184C154.781 161.089 156.342 160.942 157.907 160.85C158.259 160.83 158.623 161.026 158.976 161.005C160.569 160.913 162.16 160.764 163.754 160.672C164.106 160.652 164.471 160.848 164.823 160.827C166.358 160.735 167.89 160.584 169.426 160.494C169.807 160.472 170.201 160.67 170.582 160.648C172.118 160.559 173.65 160.411 175.185 160.314C175.449 160.298 175.725 160.487 175.99 160.471C177.642 160.373 179.295 160.125 180.943 160.157ZM180.913 72.7278C184.785 73.086 188.433 74.3266 191.791 76.2433C193.764 77.3698 195.599 78.7629 197.396 80.1634C200.184 82.3358 202.374 85.0577 204.265 88.0256C205.676 90.2392 206.909 92.5509 207.641 95.0678C208.307 97.3562 208.902 99.6825 209.274 102.032C209.542 103.729 209.383 105.492 209.433 107.224C209.484 108.995 209.298 110.742 209.11 112.504C208.65 116.804 207.843 121.017 206.634 125.172C206.11 126.975 206.489 128.841 206.832 130.666C207.133 132.266 207.688 133.76 208.54 135.15C208.642 135.318 208.634 135.552 208.677 135.756C208.459 135.742 208.229 135.767 208.025 135.707C206.548 135.276 206.069 134.072 205.717 132.754C205.465 131.808 205.236 130.843 204.851 129.949C204.41 128.926 204.238 129.023 203.27 129.505C201.277 130.498 199.251 131.44 197.182 132.263C194.38 133.377 191.433 133.955 188.452 134.422C186.834 134.676 185.2 135.169 183.981 136.35C183.415 136.899 182.975 137.679 182.734 138.434C182.432 139.381 182.363 140.379 182.925 141.358C183.259 141.939 183.61 142.037 184.164 141.885C186.857 141.144 189.531 140.322 192.249 139.691C194.337 139.205 196.489 139.002 198.598 138.598C200.786 138.178 202.99 138.075 205.207 138.085C205.374 138.086 205.54 138.13 205.707 138.153C205.556 138.188 205.406 138.226 205.254 138.257C203.193 138.679 201.131 139.093 199.072 139.522C197.206 139.912 195.345 140.326 193.48 140.717C191.395 141.154 189.302 141.557 187.222 142.015C186.207 142.238 185.191 142.497 184.213 142.842C182.847 143.323 182.418 144.17 182.343 145.719C182.258 147.461 182.559 149.093 182.979 150.71C183.731 153.614 185.021 156.261 187.108 158.501C188.861 160.382 190.838 161.907 193.352 162.556C194.707 162.906 196.125 163.127 197.523 163.18C199.266 163.246 200.96 162.92 202.613 162.225C204.685 161.354 206.285 159.986 207.472 158.155C208.776 156.143 209.634 153.919 209.943 151.537C210.2 149.559 210.468 147.562 210.452 145.575C210.43 142.711 209.837 139.916 208.729 137.249C208.66 137.083 208.391 136.849 208.919 136.834C210.317 136.794 211.703 138.067 211.721 139.518C211.738 140.847 211.783 142.178 211.712 143.503C211.585 145.903 214.149 149.041 216.262 149.582C216.724 149.7 216.766 149.537 216.653 149.298C215.365 146.573 216.155 143.908 216.92 141.275C218.398 136.191 220.423 131.306 222.45 126.42C224.433 121.643 226.337 116.832 228.263 112.031C229.896 107.959 231.503 103.876 233.135 99.8032C234.706 95.8814 236.294 91.9663 237.877 88.049C237.928 87.9236 238.011 87.8111 238.061 87.6854C238.155 87.4469 238.235 87.2033 238.321 86.9618C238.075 87.1281 237.771 87.2474 237.592 87.4679C235.477 90.0763 233.508 92.8153 231.245 95.2878C228.827 97.9304 226.201 100.397 223.541 102.804C221.641 104.524 219.537 106.02 217.52 107.611C217.331 107.76 217.113 107.872 216.908 108.001C216.928 107.763 216.971 107.524 216.963 107.287C216.901 105.469 218.59 105.306 219.606 104.511C221.135 103.316 222.725 102.192 224.203 100.938C226.957 98.6007 229.15 95.7482 231.383 92.9379C231.987 92.1782 232.633 91.4522 233.304 90.6668C235.262 88.5413 237.105 86.3883 239.112 84.3997C240.871 82.6559 242.827 81.1313 245.298 80.4137C246.4 80.0937 248.402 80.8281 249.143 81.9893C249.916 83.201 250.224 84.5298 250.22 85.9743C250.212 88.973 249.601 91.8782 248.967 94.7825C248.276 97.9512 247.605 101.126 246.835 104.276C246.383 106.124 245.851 107.964 245.186 109.745C243.602 113.982 241.995 118.214 240.245 122.384C239.249 124.757 238.017 127.04 236.765 129.294C236.071 130.544 235.045 131.496 233.394 131.421C232.718 131.39 232.284 132.177 232.191 133.137C232.055 134.533 231.94 135.941 231.652 137.31C231.069 140.081 229.826 142.6 228.336 144.988C227.21 146.791 225.959 148.517 224.797 150.299C223.992 151.533 222.926 152.529 221.466 152.606C220.551 152.654 219.6 152.075 218.672 151.757C218.521 151.705 218.388 151.564 218.278 151.438C217.823 150.917 217.473 150.149 216.906 149.928C216.375 149.722 215.603 150.242 214.964 150.177C213.873 150.067 212.96 149.502 212.292 148.589C212.162 148.412 212.014 147.998 211.872 148.678C211.487 150.523 211 152.35 210.481 154.163C209.534 157.468 207.78 160.31 205.101 162.473C203.44 163.814 201.526 164.702 199.285 164.825C197.011 164.95 194.973 164.333 192.938 163.43C190.059 162.15 187.528 160.406 185.164 158.336C181.772 155.367 179.201 151.81 177.435 147.728C176.448 145.444 175.869 142.977 175.2 140.567C174.526 138.138 173.679 135.809 172.285 133.679C171.022 131.749 170.101 129.639 169.752 127.354C169.635 126.593 169.894 125.746 170.102 124.97C170.516 123.425 170.743 121.866 170.394 120.302C170.22 119.523 169.743 118.816 169.467 118.053C168.359 114.994 167.193 111.952 166.212 108.852C165.534 106.715 165.066 104.505 164.616 102.305C164.327 100.897 164.237 99.4475 164.066 98.0155C163.942 96.9709 163.789 95.9274 163.722 94.8788C163.625 93.372 163.645 91.857 163.523 90.353C163.365 88.4131 163.652 86.4919 164.13 84.6687C164.597 82.8854 165.509 81.1947 166.382 79.5461C167.395 77.6359 168.781 75.9959 170.656 74.8348C172.331 73.7977 174.119 73.0273 176.106 72.8816C177.705 72.7642 179.329 72.5812 180.913 72.7278ZM168.168 119.538C168.057 119.722 167.99 119.985 167.827 120.075C166.875 120.602 165.922 121.136 164.929 121.576C163.244 122.321 161.528 122.998 159.737 123.703C156.938 124.95 154.171 126.089 151.532 127.472C148.902 128.85 146.458 130.541 144.176 132.476C140.835 135.308 138.14 138.631 136.399 142.643C135.687 144.283 135.2 146.079 134.962 147.851C134.648 150.196 134.686 152.587 134.559 154.957C134.453 156.947 134.335 158.936 134.205 160.924C134.156 161.674 133.573 161.118 133.267 161.254C133.242 161.265 132.988 160.963 133.003 160.824C133.151 159.502 133.416 158.188 133.484 156.863C133.571 155.192 133.492 153.514 133.508 151.839C133.539 148.629 134.151 145.548 135.486 142.611C136.729 139.875 138.406 137.453 140.397 135.211C143.401 131.827 146.998 129.237 150.919 127.055C154.628 124.992 158.473 123.229 162.453 121.752C164.18 121.111 165.861 120.348 167.567 119.652C167.752 119.576 167.967 119.574 168.168 119.538ZM215.254 158.382C216.779 158.596 218.297 158.863 219.82 159.091C220.749 159.23 221.68 159.404 222.615 159.446C223.985 159.506 225.36 159.438 226.732 159.469C227.737 159.491 228.742 159.577 229.746 159.647C230.457 159.697 231.166 159.809 231.878 159.82C233.524 159.846 235.171 159.846 236.817 159.825C240.673 159.775 244.53 159.666 248.386 159.672C249.372 159.673 250.357 160.012 251.342 160.194C251.399 160.204 251.483 160.169 251.515 160.199C251.74 160.414 251.955 160.641 252.174 160.863C251.888 160.885 251.603 160.926 251.318 160.926C249.368 160.932 247.417 160.946 245.467 160.921C244.697 160.911 243.929 160.773 243.158 160.752C240.331 160.675 237.504 160.618 234.676 160.565C233.667 160.547 232.657 160.562 231.559 160.562C230.295 160.562 229.118 160.584 227.943 160.557C226.144 160.516 224.346 160.411 222.547 160.386C220.274 160.355 217.999 160.422 215.726 160.36C214.662 160.331 213.599 160.124 212.544 159.946C211.954 159.847 211.817 159.3 212.012 158.856C212.147 158.549 212.599 158.227 212.924 158.21C213.697 158.171 214.482 158.273 215.254 158.382ZM170.121 121.561C170.059 121.596 169.977 121.616 169.936 121.668C168.653 123.29 167.224 124.822 166.128 126.562C164.656 128.901 163.44 131.405 162.712 134.097C162.319 135.552 162.035 137.037 161.693 138.506C161.468 139.47 160.96 140.266 160.128 140.799C159.022 141.509 157.85 142.118 156.761 142.85C154.048 144.672 152.33 147.252 151.328 150.312C150.768 152.024 150.415 153.777 150.739 155.611C150.936 156.726 151.018 157.862 151.141 158.989C151.161 159.168 151.124 159.354 151.113 159.537C150.875 159.515 150.522 159.584 150.42 159.455C150.141 159.102 149.838 158.685 149.775 158.259C149.584 156.988 149.509 155.7 149.377 154.419C149.349 154.152 149.269 153.891 149.213 153.627C148.976 153.89 148.704 154.131 148.507 154.421C147.19 156.362 145.893 158.316 144.574 160.254C144.477 160.396 144.251 160.45 144.085 160.545C144.042 160.249 143.868 159.884 143.98 159.669C144.398 158.869 144.855 158.077 145.398 157.359C146.669 155.677 148.111 154.113 149.266 152.359C150.027 151.203 150.439 149.81 150.956 148.502C151.485 147.164 152.319 146.068 153.398 145.136C154.76 143.96 156.115 142.777 157.516 141.553C158.469 140.544 159.488 139.658 160.259 138.593C161.276 137.188 161.637 135.476 162.049 133.809C162.919 130.283 164.468 127.086 166.756 124.254C167.326 123.549 167.866 122.809 168.515 122.184C168.868 121.845 169.421 121.709 169.89 121.497C169.946 121.471 170.043 121.538 170.121 121.561ZM42.7587 90.2997C43.7434 90.5545 43.8858 91.4105 43.1326 92.0642C41.4223 93.5485 40.6084 95.4435 40.4831 97.6442C40.4138 98.8597 40.5277 100.086 40.4602 101.301C40.2378 105.309 41.4081 108.998 43.1412 112.517C44.7982 115.882 47.2108 118.652 50.6728 120.271C52.6592 121.2 54.7835 121.852 56.8754 122.539C58.6924 123.135 60.5543 123.596 62.3907 124.136C64.1923 124.666 65.967 125.146 67.8758 124.51C68.8551 124.183 69.5898 125.059 69.2148 126.008C67.7968 129.597 66.5885 133.322 64.0976 136.348C62.6034 138.163 60.8746 139.843 59.0254 141.301C56.3105 143.44 53.1888 144.966 50.0706 146.469C47.0292 147.934 44.0563 149.542 41.0015 150.978C37.5601 152.596 34.0726 154.119 30.5828 155.633C27.7673 156.854 24.9251 158.015 22.08 159.166C21.3997 159.442 20.6709 159.635 19.9459 159.755C19.2195 159.875 17.6235 158.736 17.3384 157.984C16.6149 156.073 16.1231 154.108 15.92 152.072C15.7964 150.833 15.63 149.598 15.4387 148.361C15.3945 148.273 15.3945 148.185 15.4387 148.053C15.5123 146.359 15.5431 144.708 15.5636 143.057C15.5642 143.011 15.4534 142.964 15.3945 142.918V142.26C15.424 142.216 15.4791 142.217 15.4792 142.216C15.5348 140.688 15.5821 139.159 15.6414 137.631C15.6606 137.137 15.7164 136.645 15.7469 136.152C16 132.055 16.4868 127.983 17.5353 124.011C18.372 120.842 19.4769 117.758 20.8197 114.747C22.3514 111.312 24.2137 108.082 26.3594 105.01C27.4526 103.445 28.6467 101.937 29.9171 100.511C31.4457 98.7951 33.0162 97.096 34.7293 95.5676C36.685 93.8227 38.7867 92.2324 40.8973 90.6715C41.3672 90.324 42.1979 90.1546 42.7587 90.2997ZM40.1923 92.7078C40.0931 92.7524 39.981 92.78 39.8967 92.8439C37.2431 94.8554 34.6055 96.8871 32.4081 99.4109C31.0431 100.979 29.6477 102.525 28.3589 104.153C25.2266 108.111 22.8027 112.473 20.9572 117.286C20.8945 117.466 20.8218 117.642 20.7707 117.825C19.9777 120.658 19.1386 123.48 18.419 126.332C18.0997 127.597 18.0081 128.92 17.8406 130.221C17.6563 131.652 17.451 133.084 17.3534 134.522C17.273 135.707 17.3813 136.903 17.3249 138.091C17.2549 139.566 17.0509 141.035 17.0015 142.51C16.9681 143.507 17.1289 144.508 17.1534 145.509C17.1831 146.718 17.1379 147.928 17.1675 149.137C17.1918 150.128 17.2156 151.127 17.353 152.107C17.5214 153.306 17.8213 154.487 18.0403 155.68C18.3565 157.403 19.0643 158.07 20.7514 158.192C21.9337 158.278 22.8324 157.579 22.9979 156.471C23.018 156.337 23.23 156.102 23.2575 156.115C24.7481 156.815 26.042 156.11 27.3483 155.556C30.1241 154.378 32.9123 153.227 35.6603 151.987C39.749 150.144 43.8208 148.261 47.8725 146.338C49.7682 145.439 51.6298 144.458 53.4546 143.423C57.0159 141.404 60.2715 139.009 62.9081 135.823C64.9516 133.355 66.2147 130.549 66.9467 127.478C67.0858 126.895 66.881 126.388 66.1838 126.239C64.2937 125.833 62.4081 125.406 60.5152 125.014C56.6679 124.218 52.9489 123.108 49.4912 121.166C45.0516 118.672 42.2076 114.906 40.4996 110.253C39.6894 108.046 39.0386 105.759 39.0554 103.355C39.0681 101.551 38.9092 99.7303 39.1015 97.9462C39.2792 96.2972 39.8242 94.6876 40.2008 93.0592C40.2264 92.9486 40.1964 92.8253 40.1923 92.7078ZM114.222 118.788C115.274 119.511 116.315 120.252 117.335 121.02C117.611 121.228 117.633 121.435 117.758 120.89C117.954 120.039 119.165 119.801 119.891 120.406C121.555 121.794 122.394 123.659 123.003 125.688C123.531 127.448 123.322 129.237 123.373 131.015C123.406 132.156 124.475 133.017 125.597 133.063C126.426 133.097 127.299 133.461 128.045 133.872C129.851 134.868 131.011 136.439 131.582 138.418C132.196 140.55 131.625 142.447 130.389 144.218C129.265 145.829 128.242 147.516 126.612 148.697C125.709 149.351 124.67 149.893 123.964 150.718C123.206 151.604 122.335 152.182 121.302 152.58C118.759 153.562 115.979 152.289 114.733 150.168C113.611 148.257 110.909 148.677 109.861 150.226C109.405 150.901 109.279 151.794 108.938 152.558C108.728 153.027 108.932 152.956 109.245 152.909C110.8 152.678 112.356 152.457 113.913 152.237C113.992 152.226 114.078 152.257 114.161 152.268C114.1 152.316 114.042 152.371 113.976 152.409C112.432 153.281 110.762 153.773 109.015 153.982C107.691 154.14 106.339 154.392 105.034 154.259C104.006 154.153 102.96 153.643 102.051 153.096C100.98 152.451 100.659 151.356 100.68 150.077C100.72 147.592 101.673 145.495 103.246 143.678C103.7 143.155 104.5 142.934 105.137 142.567C105.379 142.428 105.731 142.411 105.303 141.961C103.435 139.998 101.775 137.872 100.639 135.383C100.46 134.99 100.275 134.585 100.196 134.166C100.148 133.909 100.22 133.541 100.387 133.364C100.492 133.252 100.91 133.332 101.121 133.448C101.438 133.62 101.689 133.91 101.981 134.132C102.479 134.511 102.756 134.35 102.621 133.759C102.237 132.08 102.59 130.486 103.181 128.946C103.499 128.115 104.017 127.357 104.498 126.6C104.544 126.528 105.007 126.637 105.208 126.767C105.581 127.008 105.905 127.327 106.249 127.614C106.272 127.155 106.279 126.695 106.324 126.238C106.351 125.967 106.418 125.695 106.5 125.434C106.912 124.126 107.133 124.06 108.225 124.88C108.371 124.99 108.546 125.062 108.708 125.151L108.756 124.818C108.763 124.763 108.769 124.707 108.774 124.652C108.894 123.215 108.607 121.911 107.556 120.843C107.544 120.831 107.772 120.456 107.903 120.445C109.416 120.327 110.93 120.264 112.314 121.072C112.597 121.238 112.879 121.404 113.206 121.614C113.337 121.494 113.485 121.337 113.503 121.166C113.585 120.392 113.622 119.613 113.711 118.841C113.716 118.799 114.109 118.71 114.222 118.788ZM104.139 143.814C104.105 143.878 104.083 143.954 104.035 144.004C102.313 145.822 101.51 147.981 101.574 150.485C101.609 151.845 102.333 152.846 103.693 153.094C104.558 153.252 105.454 153.245 106.338 153.269C106.444 153.272 106.619 153.023 106.659 152.864C106.92 151.853 106.901 150.725 107.985 149.95C108.288 149.833 108.591 149.717 108.893 149.598C109.03 149.544 109.273 149.495 109.279 149.427C109.292 149.283 109.223 149.059 109.112 148.991C108.815 148.807 108.49 148.605 108.156 148.558C106.616 148.344 105.523 147.533 104.896 146.135C104.598 145.471 104.436 144.745 104.212 144.047C104.188 143.97 104.164 143.892 104.139 143.814ZM108.248 150.565C108.132 151.008 107.998 151.447 107.914 151.897C107.9 151.972 108.136 152.188 108.205 152.167C108.485 152.082 108.575 150.739 108.248 150.565ZM114.634 119.744C114.728 120.067 114.862 120.384 114.909 120.713C115.016 121.461 114.952 122.176 114.218 122.616C113.631 122.967 113.192 122.545 112.792 122.236C111.886 121.535 110.816 121.444 109.752 121.31C109.171 121.237 109.144 121.476 109.334 121.976C109.614 122.712 109.961 123.493 109.939 124.245C109.926 124.716 109.323 125.203 108.921 125.622C108.546 126.012 108.187 125.828 107.89 125.442C107.845 125.383 107.698 125.402 107.598 125.384C107.605 125.543 107.584 125.709 107.624 125.859C107.856 126.752 107.523 127.615 106.586 128.129C105.938 128.484 105.481 127.942 105.087 127.522C104.79 127.206 104.763 127.398 104.638 127.638C103.543 129.732 103.418 131.923 103.999 134.173C104.143 134.733 103.886 135.011 103.424 134.99C102.886 134.965 102.358 134.754 101.822 134.646C101.573 134.596 101.314 134.6 101.059 134.579C101.128 134.824 101.16 135.088 101.272 135.311C102.201 137.158 103.395 138.83 104.944 140.187C105.858 140.989 106.419 141.691 106.392 143.073C106.356 144.878 107.317 146.354 108.983 147.336C110.31 148.118 111.721 147.954 113.121 148.003C113.838 148.027 114.359 148.275 114.785 148.843L114.955 149.07C115.829 150.243 116.694 151.411 118.259 151.821C120.023 152.283 121.636 152.098 122.997 150.855C123.28 150.596 123.283 149.976 123.295 149.52C123.298 149.437 122.723 149.291 122.406 149.255C121.139 149.114 119.865 149.435 118.585 149.089C116.778 148.6 115.117 147.88 113.747 146.576C113.489 146.33 113.272 146.041 113.035 145.771C113.452 145.87 113.869 145.965 114.284 146.068C114.388 146.094 114.506 146.125 114.581 146.194C116.518 147.978 118.79 148.756 121.418 148.549C124.084 148.338 125.457 146.939 125.594 144.599C125.736 142.183 125.27 139.842 124.158 137.652C123.997 137.335 123.999 136.895 124.037 136.524C124.188 135.083 124.55 133.628 123.003 132.604C122.743 132.431 122.671 131.855 122.653 131.459C122.601 130.285 122.231 129.847 121.085 129.74C120.386 129.675 119.994 129.257 119.834 128.601C119.788 128.41 119.79 128.208 119.77 128.012C119.584 128.18 119.348 128.316 119.22 128.521C118.572 129.558 117.605 130.2 116.588 130.821C116.073 131.136 115.907 131.1 115.779 130.517C115.719 130.243 115.496 130.004 115.347 129.75C115.204 129.954 115.055 130.154 114.918 130.363C114.737 130.638 114.61 130.963 114.382 131.189C113.571 131.997 112.751 132.8 111.876 133.535C111.686 133.695 111.114 133.698 110.969 133.541C110.778 133.334 110.804 132.899 110.795 132.56C110.786 132.223 110.869 131.884 110.871 131.545C110.871 131.413 110.767 131.173 110.699 131.169C110.554 131.161 110.33 131.231 110.264 131.343L109.92 131.923C109.576 132.504 109.238 133.089 108.962 133.7C108.22 135.34 107.917 137.081 107.876 138.88C107.87 139.133 107.6 139.406 107.397 139.615C107.327 139.687 106.968 139.634 106.946 139.568C106.851 139.285 106.777 138.972 106.797 138.676C106.829 138.208 106.95 137.746 107.019 137.28C107.435 134.462 108.654 132.066 110.759 130.139C110.837 130.068 111.106 130.063 111.11 130.079C111.302 130.732 111.48 131.389 111.641 132.051C111.677 132.2 111.644 132.367 111.643 132.525C111.784 132.461 111.942 132.419 112.064 132.329C113.395 131.344 114.461 130.13 115.225 128.651C115.409 128.295 115.666 127.977 115.89 127.641L116.283 128.356C116.413 128.595 116.542 128.834 116.665 129.077C116.712 129.17 116.637 129.324 116.683 129.42C116.717 129.49 116.913 129.57 116.936 129.547C117.616 128.845 118.269 128.116 118.96 127.425C119.225 127.16 119.723 126.723 119.85 126.8C120.26 127.052 120.562 127.493 120.873 127.888C120.944 127.978 120.829 128.206 120.895 128.311C121.015 128.503 121.272 128.821 121.356 128.788C121.783 128.623 122.212 128.407 122.557 128.111C122.695 127.993 122.617 127.624 122.55 127.281C122.196 125.041 121.312 123.06 119.697 121.437C119.595 121.335 119.49 121.236 119.387 121.135C119.359 121.27 119.332 121.405 119.304 121.54C119.15 122.284 118.35 122.732 117.772 122.281C117.043 121.713 116.465 120.955 115.769 120.34C115.458 120.065 115.016 119.938 114.634 119.744ZM176.319 138.096C176.257 138.158 176.151 138.213 176.14 138.284C176.099 138.535 176.037 138.801 176.077 139.046C176.294 140.387 176.567 141.72 176.768 143.063C177.119 145.406 177.706 147.681 178.916 149.732C179.345 150.46 180.042 151.031 180.627 151.665C180.693 151.737 180.823 151.751 180.924 151.791C180.919 151.729 180.921 151.666 180.91 151.605C180.768 150.873 180.712 150.11 180.464 149.415C179.871 147.759 179.187 146.135 178.451 144.41C178.01 143.215 177.544 142.029 177.136 140.823C176.856 139.992 176.658 139.134 176.419 138.29C176.4 138.221 176.353 138.16 176.319 138.096ZM223.54 134.16C223.537 134.24 223.37 134.307 223.292 134.392C223.08 134.624 222.834 134.837 222.676 135.102C220.938 138.019 220.024 141.231 219.317 144.514C219.129 145.385 218.962 146.261 218.786 147.31C218.727 147.813 218.608 148.317 218.625 148.817C218.644 149.398 218.638 150.05 218.894 150.541C219.612 151.918 221.536 151.878 222.717 151.153C223.809 150.482 224.334 149.401 224.926 148.379C225.935 146.638 226.777 144.8 227.825 143.084C229.25 140.751 230.656 138.427 231.298 135.733C231.491 134.923 231.079 134.37 230.214 134.395C228.178 134.454 226.199 134.053 224.217 133.681C223.551 133.556 223.567 133.522 223.54 134.16ZM125.07 133.795C124.719 135.31 124.944 136.757 125.38 138.187C126.015 140.27 126.708 142.337 126.496 144.563C126.347 146.121 125.647 147.351 124.309 148.21C124.103 148.343 124.011 148.652 123.866 148.879C124.137 148.935 124.41 149.04 124.679 149.03C124.844 149.023 125.023 148.863 125.161 148.734C126.151 147.814 127.261 146.985 128.08 145.93C128.904 144.869 129.436 143.582 130.184 142.306C130.355 141.49 130.558 140.679 130.692 139.857C130.992 138.012 130.069 136.237 128.386 135.611C127.284 135.2 126.077 135.048 125.609 133.71C125.533 133.491 125.248 133.032 125.07 133.795ZM71.7678 93.7865C73.9186 94.042 76.0845 94.4406 78.148 95.0867C80.3596 95.7792 82.2973 97.097 83.8655 98.8328C86.0035 101.199 87.3982 103.95 88.0181 107.109C88.2805 108.446 88.3631 109.774 88.3377 111.118C88.3217 111.972 88.2337 112.824 88.1692 113.676C88.0313 115.498 88.4885 117.232 88.9407 118.968C89.4039 120.747 89.2352 122.529 89.0721 124.335C88.831 127.004 87.8272 129.418 86.7382 131.792C86.0371 133.32 85.0878 134.739 84.2031 136.178C83.4547 137.395 82.6392 138.572 81.8096 139.81C80.6905 141.571 79.5983 143.279 78.5481 145.011C78.0851 145.775 77.7084 146.591 77.2903 147.382C77.2392 147.479 77.1882 147.582 77.1133 147.658C76.8539 147.924 76.5838 148.179 76.3178 148.438C76.2927 148.06 76.1432 147.636 76.2621 147.31C77.2139 144.702 78.6806 142.374 80.2711 140.115C82.1968 137.379 84.2429 134.717 85.6084 131.629C86.5055 129.6 87.2134 127.512 87.4633 125.297C87.6081 124.013 87.7704 122.725 87.8 121.437C87.8294 120.157 87.704 118.873 87.6386 117.592C87.6354 117.529 87.5247 117.412 87.5186 117.416C87.3754 117.497 87.2106 117.568 87.1075 117.689C86.5596 118.335 86.0367 119.001 85.4881 119.646C84.0942 121.285 82.3968 122.387 80.2547 122.864C78.1388 123.335 76.3599 122.72 74.8566 121.341C72.9515 119.593 72.9802 117.456 74.2909 115.432C75.4899 113.582 77.2275 112.6 79.4623 112.286C81.6473 111.979 83.6308 112.586 85.6145 113.233C86.3474 113.472 86.7988 113.729 86.8336 112.692C86.8731 111.518 86.8005 110.328 86.9683 109.173C87.1841 107.688 86.6665 106.392 86.2477 105.044C85.4192 102.376 83.8184 100.289 81.6767 98.5222C80.0337 97.1672 78.1903 96.2357 76.1802 95.6897C74.1052 95.126 71.9992 94.8678 69.7918 95.0917C66.2155 95.4545 63.1079 96.8234 60.2843 98.917C58.2841 100.4 56.7276 102.32 55.3481 104.387C55.1426 104.694 54.8031 104.913 54.5268 105.174C54.1815 105.5 53.7211 105.594 53.4746 105.213C53.2874 104.923 53.2194 104.305 53.4025 104.07L53.8281 103.521C54.681 102.422 55.5508 101.324 56.5641 100.389C57.8053 99.2432 59.2279 98.279 60.6372 97.3337C62.9927 95.7537 65.5738 94.6907 68.3954 94.2588C69.5221 94.0864 70.6778 93.6571 71.7678 93.7865ZM105.657 145.077C105.643 145.188 105.607 145.302 105.62 145.41C105.739 146.418 106.399 147.086 107.146 147.644C107.396 147.831 107.834 147.766 108.186 147.816C108.001 147.53 107.827 147.235 107.625 146.961C107.505 146.798 107.34 146.668 107.196 146.347C106.765 145.975 106.337 145.601 105.904 145.232C105.83 145.17 105.74 145.128 105.657 145.077ZM244.396 82.6169C243.454 83.4009 242.517 84.1946 241.623 85.0316C240.156 86.4046 239.227 88.1617 238.459 89.9616C236.843 93.7465 235.35 97.5832 233.821 101.404C231.568 107.036 229.328 112.673 227.082 118.483C226.964 118.669 226.813 118.842 226.734 119.044C225.306 122.672 223.891 126.306 222.464 129.935C221.363 132.732 220.195 135.504 219.154 138.323C218.192 140.93 217.569 143.635 217.206 146.392C217.171 146.658 217.261 146.94 217.293 147.214C217.32 146.981 217.311 146.735 217.386 146.519C217.437 146.374 217.671 146.29 217.718 146.145C218.612 143.379 219.434 140.588 220.394 137.845C221.055 135.957 221.886 134.127 222.677 132.286C223.047 131.426 223.377 131.343 224.207 131.754C224.768 132.032 225.339 132.292 225.887 132.592C226.754 133.068 227.672 133.248 228.652 133.161C229.35 133.099 230.223 132.293 230.24 131.543C230.257 130.81 229.931 130.222 229.081 130.144C228.549 130.096 228.006 130.122 227.486 130.021C227.102 129.946 226.748 129.72 226.381 129.561C226.62 129.379 226.843 129.164 227.105 129.025C227.267 128.938 227.491 128.964 227.687 128.942C229.002 128.79 230.117 129.419 231.272 129.869C233.353 130.679 234.526 130.525 235.583 129.137C236.151 128.391 236.532 127.487 236.907 126.616C238.612 122.662 240.421 118.746 241.931 114.719C243.493 110.553 244.949 106.326 246.093 102.031C247.324 97.4108 248.673 92.784 248.911 87.9551C248.976 86.6254 248.862 85.3382 248.482 84.0251C247.869 81.9113 245.874 81.3872 244.396 82.6169ZM172.057 124.938C171.982 125.083 171.886 125.22 171.835 125.373C171.174 127.331 171.277 129.292 172.192 131.105C173.15 133.004 174.323 134.795 175.413 136.626C175.459 136.704 175.613 136.718 175.717 136.762C175.75 136.621 175.843 136.462 175.808 136.341C175.496 135.271 175.141 134.214 174.849 133.14C174.789 132.919 174.854 132.548 175.009 132.411C175.238 132.207 175.622 132.01 175.899 132.056C176.698 132.189 177.362 133.139 177.44 134.087C177.57 135.652 177.616 137.231 177.853 138.78C178.234 141.273 179.217 143.581 180.309 145.84C180.368 145.962 180.483 146.057 180.572 146.165C180.66 146.025 180.788 145.896 180.827 145.744C180.964 145.212 180.989 144.638 181.202 144.142C181.952 142.394 181.94 140.714 181.022 139.021C180.519 138.094 180.128 137.108 179.599 136.061C179.225 134.985 179.048 133.779 178.432 132.866C177.483 131.457 176.204 130.273 175.12 128.949C174.164 127.78 173.283 126.549 172.369 125.346L172.057 124.938ZM121.954 141.623C122.155 141.967 122.31 142.286 122.566 142.472C123.524 143.173 123.417 145.059 122.473 145.641C122.262 145.771 121.898 145.661 121.604 145.662C121.604 145.424 121.53 145.156 121.615 144.951C122.213 143.515 121.593 142.337 120.028 141.96C119.783 141.901 119.56 141.752 119.327 141.645C119.541 141.513 119.751 141.374 119.971 141.252C120.206 141.122 120.449 141.007 120.69 140.887C121.595 140.435 121.74 140.51 121.954 141.623ZM123.538 134.109C123.681 134.927 123.637 135.81 123.49 136.633C123.375 137.274 121.693 137.627 120.778 137.508C119.811 137.383 119.216 136.806 118.615 136.191C118.092 135.655 117.495 135.234 116.757 135.532C116.007 135.834 115.979 136.579 116.014 137.371C115.804 138.765 115.399 139.893 114.182 140.718C112.57 141.811 110.714 141.011 109.99 139.686C109.908 139.537 109.763 139.421 109.647 139.29C109.559 139.418 109.444 139.536 109.388 139.677C108.953 140.777 108.481 141.865 108.121 142.988C107.896 143.689 108.216 144.007 108.932 144C109.41 143.995 109.889 143.991 110.367 144.004C110.492 144.008 110.615 144.077 110.74 144.116C110.671 144.233 110.628 144.414 110.528 144.455C110.076 144.641 109.542 145.014 109.159 144.903C108.157 144.613 107.278 144.063 107.22 142.82C107.127 140.796 108.214 139.268 109.37 137.779C110.686 136.083 112.629 135.484 114.589 134.929C117.049 134.232 119.509 133.532 121.971 132.838C122.484 132.693 123.398 133.302 123.538 134.109ZM114.127 135.684C113.25 136.032 112.382 136.416 111.543 136.848C110.095 137.593 109.943 138.912 111.149 139.957C112.403 141.044 114.012 140.675 114.486 139.122C114.751 138.251 114.808 137.317 114.959 136.238C115 135.584 114.588 135.501 114.127 135.684ZM117.764 136.331C117.841 136.362 117.916 136.402 117.996 136.422C119.187 136.726 120.114 138.666 119.547 139.716C119.436 139.924 119.207 140.065 119.032 140.237C118.988 140.066 118.939 139.896 118.902 139.723C118.79 139.212 118.682 138.701 118.532 138.147C118.26 137.59 118.028 137.075 117.801 136.557C117.772 136.49 117.776 136.407 117.764 136.331ZM121.466 133.377C120.479 133.722 119.529 134.174 118.387 134.581C118.358 134.713 118.264 134.874 118.309 134.973C118.878 136.222 121.016 137.102 122.297 136.632C123.053 136.354 123.471 135.397 123.222 134.514C123.049 133.902 122.036 133.178 121.466 133.377ZM212.237 103.144C213.938 103.31 215.296 104.053 216.332 105.518C216.9 106.322 216.468 106.989 216.334 107.665C215.852 110.101 215.269 112.517 214.716 114.938C214.261 116.932 213.797 118.924 213.331 120.915C212.71 123.568 212.086 126.221 211.458 128.873C211.006 130.781 210.548 132.687 210.081 134.592C210.033 134.791 209.909 134.971 209.82 135.16C209.737 134.961 209.57 134.755 209.586 134.566C209.715 133.062 209.845 131.558 210.041 130.063C210.247 128.489 210.499 126.92 210.78 125.358C211.115 123.495 211.468 121.633 211.876 119.784C212.799 115.599 213.992 111.494 215.356 107.434C215.898 105.821 214.358 104.756 213.113 104.784C212.317 104.802 211.63 104.984 210.899 105.162C210.778 105.192 210.588 104.924 210.43 104.707C210.43 104.561 210.411 104.494 210.433 104.445C210.602 104.06 209.987 103.354 210.894 103.269C211.342 103.228 211.797 103.101 212.237 103.144ZM124.961 126.568C126.029 126.584 127.096 126.726 128.162 126.716C129.688 126.702 131.143 127.027 132.506 127.627C133.704 128.155 134.811 128.885 136.002 129.57C137.392 130.807 138.45 132.191 138.856 133.964C138.91 134.197 138.653 134.499 138.54 134.769C138.358 134.607 138.061 134.473 138.011 134.277C137.042 130.524 134.315 128.697 130.755 127.781C128.809 127.28 126.841 127.403 124.867 127.579C124.611 127.602 124.038 127.94 124.017 127.267C123.997 126.647 124.52 126.562 124.961 126.568ZM175.716 73.9697C172.248 74.462 169.683 76.4524 167.739 79.3101C165.62 82.4245 164.911 85.9641 164.818 89.6016C164.752 92.1985 165.062 94.8127 165.321 97.4077C165.514 99.3465 165.788 101.29 166.214 103.19C166.751 105.584 167.491 107.933 168.122 110.307C169.178 114.277 170.508 118.153 172.194 121.898C173.991 125.891 176.354 129.508 179.673 132.433C180.745 133.377 181.987 134.059 183.432 134.203C185.231 134.381 186.979 134.042 188.699 133.516C192.38 132.39 196.1 131.378 199.744 130.145C203.072 129.019 205.144 126.604 205.883 123.175C206.438 120.604 206.905 118.01 207.293 115.409C207.622 113.196 207.89 110.962 207.983 108.729C208.055 107.021 207.831 105.298 207.701 103.585C207.602 102.28 207.444 100.978 207.312 99.4995C206.883 96.9007 206.105 94.4136 205.08 91.9818C203.523 88.2867 201.377 85.0356 198.477 82.2301C195.316 79.1718 191.537 77.2264 187.428 75.8883C185.109 75.1332 182.709 74.5775 180.307 74.1398C178.811 73.8673 177.212 73.7574 175.716 73.9697ZM72.4403 97.7507C72.3372 97.9119 72.2453 98.0818 72.1291 98.233C69.9712 101.039 67.6866 103.758 65.6825 106.67C63.3178 110.106 61.342 113.786 59.8081 117.748C59.2107 118.99 58.664 120.192 58.1005 121.385C57.8022 122.017 57.182 121.938 56.7593 121.734C56.3015 121.514 56.358 121.047 56.6322 120.557C58.8907 116.514 61.0585 112.42 63.3693 108.409C64.7867 105.948 66.318 103.541 67.9721 101.234C68.857 100.001 70.1049 99.0261 71.2041 97.9501C71.3501 97.8071 71.5781 97.7061 71.7816 97.6755C71.9926 97.6437 72.2201 97.7211 72.4403 97.7507ZM78.2303 113.885C75.8106 114.527 74.6079 116.299 74.8175 118.628C74.9496 120.096 75.5306 121.036 76.9222 121.432C78.5175 121.886 80.1103 121.678 81.6124 121.074C83.7673 120.207 85.5299 118.897 86.0646 116.267C86.1206 115.559 85.9167 115.041 85.2855 114.58C83.0489 112.945 80.6881 113.234 78.2303 113.885ZM128.671 67.7682C128.612 67.8414 128.553 67.8707 128.494 67.9439C128.305 68.0292 128.071 68.0133 127.934 68.1204C124.513 70.7932 122.367 74.2849 121.24 78.4336C120.704 80.4038 120.462 82.413 120.55 84.4398C120.707 88.0066 121.826 91.2663 123.854 94.2327C126.071 97.4737 129.015 99.8587 132.531 101.532C134.546 102.491 136.684 103.181 138.949 103.302C139.969 103.356 141.012 103.189 142.011 103.337C143.932 103.623 145.719 103.106 147.493 102.59C151.066 101.551 154.211 99.7554 156.904 97.1604C158.891 95.2459 160.61 93.1646 161.745 90.6399C161.767 90.5904 161.795 90.5433 161.82 90.4951C161.853 90.5605 161.924 90.6307 161.916 90.6906C161.746 91.9723 161.828 93.2701 160.917 94.414C158.096 97.9546 154.824 100.937 150.585 102.669C148.771 103.41 146.835 103.886 144.92 104.337C143.768 104.609 142.546 104.724 141.361 104.693C138.363 104.614 135.471 103.981 132.704 102.791C129.749 101.519 127.162 99.7337 124.958 97.4149C122.394 94.718 120.605 91.579 119.849 87.9294C119.548 86.4757 119.308 84.973 119.328 83.4966C119.392 78.8843 120.748 74.6319 123.434 70.8563C124.166 69.8275 125.15 68.9727 126.043 68.0618C126.464 67.6325 128.333 67.4255 128.671 67.7682ZM132.441 67.8127C132.485 67.8179 132.524 67.8721 132.565 67.9035C132.489 67.9308 132.413 67.9612 132.336 67.9848C129.325 68.9038 127.181 70.8801 125.749 73.6163C124.871 75.2933 124.395 77.1156 124.127 79.0162C123.582 82.8798 124.474 86.4372 126.329 89.7523C128.621 93.8482 131.861 96.9654 136.347 98.5791C137.778 99.0938 139.256 99.6462 140.749 99.7811C144.333 100.105 147.775 99.4626 150.966 97.6666C153.344 96.3279 155.299 94.5363 157.052 92.4566C159.085 90.0444 160.242 87.2329 160.961 84.2279C161.213 83.1745 161.105 82.0353 161.17 80.9358C161.183 80.7298 161.24 80.5264 161.277 80.3219C161.518 80.4463 161.89 80.5118 161.976 80.7056C162.285 81.3962 162.762 82.158 162.691 82.8422C162.544 84.2489 162.192 85.6592 161.735 87.0034C160.548 90.4918 158.453 93.4018 155.733 95.8519C153.203 98.1316 150.286 99.7242 146.966 100.523C145.842 100.794 144.705 101.105 143.561 101.171C142.502 101.232 141.416 101.047 140.359 100.869C138.95 100.631 137.511 100.433 136.167 99.9764C132.456 98.714 129.342 96.5689 126.832 93.493C124.826 91.0355 123.668 88.2435 123.112 85.1817C122.458 81.5789 123.044 78.0882 124.377 74.7181C125.279 72.4377 126.594 70.4168 128.396 68.7324C128.533 68.6049 128.608 68.4118 128.712 68.1612C128.77 68.0439 128.829 68.0146 128.887 67.9853C130.042 67.3261 131.247 67.6739 132.441 67.8127ZM264.73 99.2302C265.938 99.243 267.142 99.4071 268.349 99.5017C269.818 99.6169 271.286 99.7616 272.757 99.8182C274.165 99.8724 275.578 99.7954 276.986 99.8446C277.68 99.8688 278.387 99.9915 279.046 100.188C279.271 100.255 279.369 100.683 279.524 100.946C279.31 101.009 279.1 101.091 278.881 101.132C278.626 101.179 278.364 101.191 278.06 101.178C275.133 101.082 272.25 101.006 269.366 100.984C268.198 100.975 267.029 101.125 265.861 101.118C265.288 101.115 264.715 100.928 264.146 100.807C263.552 100.682 263.375 100.189 263.596 99.8299C263.786 99.5211 264.341 99.226 264.73 99.2302ZM141.133 70.2475C141.793 73.3944 142.404 76.5521 143.051 79.702C143.383 81.319 142.988 81.9902 141.598 82.7754C139.76 83.8128 137.983 84.9684 136.227 86.147C135.347 86.7374 134.625 86.9429 134.144 86.4763C133.689 86.0359 133.614 85.648 134.221 85.2349C136.12 83.9418 138.029 82.6578 139.865 81.275C140.265 80.9739 140.625 80.2551 140.584 79.7659C140.433 77.9791 140.115 76.2064 139.839 74.4317C139.725 73.6911 139.56 72.9587 139.418 72.1341C139.35 71.4066 139.155 70.7444 139.26 70.1371C139.326 69.7564 139.806 69.2367 140.167 69.1715C140.809 69.0559 141.025 69.735 141.133 70.2475ZM262.208 62.8945C262.315 63.0064 262.374 63.3113 262.298 63.4226C261.937 63.9564 261.521 64.4543 261.08 65.0089C259.659 66.9469 258.299 68.854 256.883 70.7191C256.698 70.9634 256.098 71.1961 255.909 71.0808C255.428 70.7877 255.861 70.4749 256.06 70.1426C257.384 67.9377 258.664 65.7077 259.976 63.4959C260.58 62.4774 261.562 62.2188 262.208 62.8945ZM221.882 34.4011C222.114 34.4205 222.374 34.7001 222.53 34.9307C223.103 35.7769 222.802 36.728 222.688 37.6071C222.489 39.1409 222.128 40.6528 221.847 42.1761C221.716 42.8876 221.613 43.6044 221.497 44.4069C221.266 45.6009 221.014 46.7028 220.807 47.8134C220.432 49.8308 220.096 51.8558 219.719 53.8728C219.404 55.5554 219.064 57.2333 218.717 58.9094C218.147 61.6612 217.581 64.4142 216.971 67.1571C216.803 67.9096 216.217 68.1915 215.737 67.8314C215.575 67.7099 215.413 67.3988 215.451 67.2186C216.35 63.023 217.314 58.8414 218.186 54.6403C218.827 51.5515 219.286 48.423 219.955 45.341C220.592 42.4048 220.92 39.4612 220.826 36.4566C220.81 35.9369 221.053 35.388 221.265 34.8912C221.361 34.6661 221.684 34.3845 221.882 34.4011ZM174.259 55.2371C174.428 55.5229 174.601 55.8059 174.773 56.1799C175.059 57.6999 175.354 59.1283 175.627 60.5612C175.765 61.2834 175.871 62.0127 175.974 62.7414C176 62.9224 175.959 63.1138 175.948 63.3004C175.696 63.2581 175.289 63.301 175.218 63.1591C174.851 62.4283 174.52 61.6672 174.271 60.8838C173.986 59.9863 173.867 59.0277 173.546 58.1478C173.37 57.6663 172.89 57.3155 172.612 56.863C172.37 56.4715 172.087 56.0234 172.075 55.5929C172.068 55.3166 172.481 54.8525 172.774 54.7818C173.287 54.658 173.896 54.6238 174.259 55.2371Z" fill="#00160A"/>
<path d="M115.819 142.944C116.861 142.665 117.615 142.1 117.503 141.684C117.392 141.267 116.456 141.156 115.414 141.435C114.372 141.714 113.618 142.278 113.73 142.695C113.841 143.112 114.777 143.223 115.819 142.944Z" fill="#FFB61D"/>
<path fill-rule="evenodd" clip-rule="evenodd" d="M122.991 139.556C123.735 139.277 124.164 138.713 124.01 138.296C123.867 137.88 123.316 137.768 122.719 138.047C122.064 138.326 121.48 138.89 121.477 139.307C121.483 139.724 122.188 139.835 122.991 139.556Z" fill="#FFB61D"/>
</svg>
