<svg width="202" height="200" viewBox="0 0 202 200" fill="none" xmlns="http://www.w3.org/2000/svg">
<path d="M125.026 0H75.7772C73.0285 0 70.9377 2.46814 71.3896 5.17944L76.8421 37.8947L79.7865 71.2646C79.9013 72.5651 78.8765 73.6842 77.571 73.6842H0V122.427C0 125.068 2.28746 127.128 4.91383 126.851L76.3139 119.335C78.2037 119.136 79.7903 120.741 79.5697 122.629L70.623 199.173C70.5715 199.613 70.9158 200 71.3594 200H128.732C129.142 200 129.474 199.668 129.474 199.259V127.368H201.053V78.1324C201.053 75.6757 199.061 73.6842 196.604 73.6842H129.474V4.44817C129.474 1.99151 127.482 0 125.026 0Z" fill="url(#paint0_linear_3614_397)"/>
<defs>
<linearGradient id="paint0_linear_3614_397" x1="-14.3609" y1="-31.4286" x2="153.824" y2="144.033" gradientUnits="userSpaceOnUse">
<stop stop-color="#FF003C"/>
<stop offset="0.63927" stop-color="#FF2200"/>
<stop offset="1" stop-color="#FF6600"/>
</linearGradient>
</defs>
</svg>
