<svg  width="38" height="38" viewBox="0 0 38 38"  fill="none" xmlns="http://www.w3.org/2000/svg">
<path d="M5.375 0H25.625C28.2245 0 30.3489 2.03468 30.4923 4.59836L30.5 4.875V19.125C30.5 21.7245 28.4653 23.8489 25.9016 23.9923L25.625 24H5.375C2.77545 24 0.651131 21.9653 0.507717 19.4016L0.5 19.125V4.875C0.5 2.27545 2.53468 0.151131 5.09836 0.00771689L5.375 0H25.625H5.375ZM28.25 8.0595L16.024 14.4955C15.7428 14.6435 15.4147 14.6646 15.1201 14.5589L14.976 14.4955L2.75 8.061V19.125C2.75 20.5023 3.81067 21.6318 5.15971 21.7413L5.375 21.75H25.625C27.0023 21.75 28.1318 20.6893 28.2413 19.3403L28.25 19.125V8.0595ZM25.625 2.25H5.375C3.99774 2.25 2.86821 3.31067 2.7587 4.65971L2.75 4.875V5.5185L15.5 12.2287L28.25 5.517V4.875C28.25 3.49774 27.1893 2.36821 25.8403 2.2587L25.625 2.25Z" fill="#111F5F"/>
</svg>
