<svg width="36" height="36" viewBox="0 0 36 36" fill="none" xmlns="http://www.w3.org/2000/svg">
<path d="M15.75 12C13.2647 12 11.25 14.0147 11.25 16.5C11.25 18.9853 13.2647 21 15.75 21C18.2353 21 20.25 18.9853 20.25 16.5C20.25 14.0147 18.2353 12 15.75 12ZM13.5 16.5C13.5 15.2574 14.5074 14.25 15.75 14.25C16.9926 14.25 18 15.2574 18 16.5C18 17.7426 16.9926 18.75 15.75 18.75C14.5074 18.75 13.5 17.7426 13.5 16.5ZM3 10.875C3 9.01104 4.51104 7.5 6.375 7.5H25.125C26.989 7.5 28.5 9.01104 28.5 10.875V22.125C28.5 23.989 26.989 25.5 25.125 25.5H6.375C4.51104 25.5 3 23.989 3 22.125V10.875ZM6.375 9.75C5.75368 9.75 5.25 10.2537 5.25 10.875V12H6.375C6.99632 12 7.5 11.4963 7.5 10.875V9.75H6.375ZM5.25 18.75H6.375C8.23896 18.75 9.75 20.261 9.75 22.125V23.25H21.75V22.125C21.75 20.261 23.261 18.75 25.125 18.75H26.25V14.25H25.125C23.261 14.25 21.75 12.739 21.75 10.875V9.75H9.75V10.875C9.75 12.739 8.23896 14.25 6.375 14.25H5.25V18.75ZM26.25 12V10.875C26.25 10.2537 25.7463 9.75 25.125 9.75H24V10.875C24 11.4963 24.5037 12 25.125 12H26.25ZM26.25 21H25.125C24.5037 21 24 21.5037 24 22.125V23.25H25.125C25.7463 23.25 26.25 22.7463 26.25 22.125V21ZM5.25 22.125C5.25 22.7463 5.75368 23.25 6.375 23.25H7.5V22.125C7.5 21.5037 6.99632 21 6.375 21H5.25V22.125ZM6.60205 27.75C7.38012 29.0951 8.8344 30 10.5 30H25.875C29.8101 30 33 26.8101 33 22.875V15C33 13.3344 32.0951 11.8801 30.75 11.1021V22.875C30.75 25.5674 28.5674 27.75 25.875 27.75H6.60205Z" fill="#111F5F"/>
</svg>
