<svg width="300" height="300" viewBox="0 0 300 300" fill="none" xmlns="http://www.w3.org/2000/svg">
<path d="M255.394 215.319C253.727 247.825 227.683 277.282 195.757 283.618C163.832 289.954 128.891 273.101 113.335 244.511C111.618 241.356 110.089 238.047 108.561 234.738C104.614 226.195 100.669 217.656 93.4954 211.78C85.3044 205.071 74.77 203.276 64.1295 201.464C57.3727 200.313 50.5731 199.155 44.3036 196.726C29.19 190.872 17.4551 177.003 14.1838 161.128C8.88271 135.404 25.674 109.14 48.0659 95.4118C70.4577 81.6839 97.3646 77.8606 123.464 74.9145C133.448 73.7875 141.558 66.2638 147.35 58.0541C149.592 54.8759 151.61 51.5362 153.626 48.199C156.818 42.916 160.005 37.6391 164.076 33.0186C181.311 13.4535 213.407 10.1519 235.359 24.2204C257.312 38.2889 267.82 67.2177 261.982 92.6297C260.976 97.0066 259.549 101.268 258.122 105.531L258.122 105.531C256.755 109.611 255.389 113.691 254.392 117.873C252.262 126.811 251.855 136.06 251.613 145.246C251.324 156.197 251.256 167.177 252.281 178.084C252.638 181.878 253.127 185.668 253.616 189.456C254.727 198.066 255.838 206.671 255.394 215.319Z" fill="#64FCD9"/>
<path d="M123.428 67.1508C135.365 61.2123 144.866 50.8988 150.849 38.9838C151.633 37.4216 152.377 35.7616 152.349 34.0137C152.322 32.2658 151.305 30.4143 149.614 29.9704C147.191 29.3343 145.107 31.6575 143.596 33.6558C133.215 47.3827 118.107 58.159 101.059 60.5092C94.5107 61.4119 87.8629 61.0729 81.262 60.7321L70.9517 60.1997C62.6475 59.771 54.2281 59.3508 46.0997 61.1031C37.9712 62.8554 30.0287 67.0696 25.5643 74.0847C24.1433 76.3176 23.0789 78.949 23.4721 81.5663C23.875 84.2485 25.7815 86.525 28.0781 87.968C30.3746 89.411 33.0427 90.1329 35.6868 90.7369C37.6228 91.1792 39.6001 91.5709 41.581 91.4314C44.8196 91.2034 47.7586 89.593 50.6182 88.0261C50.8087 87.9217 50.9989 87.8175 51.1887 87.7139C56.1867 84.9873 61.3657 82.5657 66.7673 80.7665C74.6443 78.1427 82.927 76.8587 91.1892 75.5779C102.32 73.8525 113.413 72.1327 123.428 67.1508Z" fill="#64FCD9"/>
<path d="M61.3501 225.358L61.3571 225.358C61.8436 225.377 62.3298 225.397 62.8148 225.422C70.4855 225.821 78.0764 227.702 85.0462 230.93C87.7036 232.16 90.395 233.701 91.8875 236.221C93.7342 239.338 95.9511 242.237 98.4766 244.835C99.4564 245.843 100.517 246.829 101.825 247.344C103.133 247.859 104.749 247.812 105.81 246.89C107.099 245.77 107.183 243.782 106.786 242.121C106.134 239.399 104.511 237.027 102.903 234.736C97.6292 227.217 92.0767 219.7 84.7372 214.179C77.3976 208.659 67.9257 205.316 58.9419 207.223C55.84 207.882 52.7656 209.224 50.7091 211.638C48.6525 214.051 47.8398 217.684 49.321 220.488C50.496 222.712 52.8782 224.081 55.317 224.698C57.2827 225.195 59.3184 225.276 61.3496 225.358H61.3501Z" fill="#64FCD9"/>
<path d="M268.833 112.274C266.783 111.501 264.461 112.434 262.725 113.773C259.297 116.415 257.269 120.549 256.346 124.778C255.423 129.007 255.498 133.381 255.577 137.709L256.255 174.893C256.304 177.61 256.425 180.538 258.095 182.681C258.618 183.351 259.334 183.94 260.18 184.026C261.205 184.131 262.153 183.484 262.894 182.767C266.943 178.846 267.474 172.671 267.959 167.043L267.976 166.838C268.689 158.576 269.922 150.359 271.666 142.252C272.157 139.972 272.696 137.677 273.722 135.583C276.938 129.018 276.169 120.684 271.805 114.819C271.015 113.758 270.071 112.74 268.833 112.274Z" fill="#64FCD9"/>
<path d="M195.382 162.606C197.546 163.202 199.484 165.004 199.697 167.238C200.107 166.349 201.008 165.707 201.983 165.609L200.569 167.112L202.358 167.148L199.896 168.523C201.422 171.346 201.175 174.827 200.197 177.884C199.598 179.754 198.732 181.628 198.9 183.585C199.067 185.51 200.776 187.476 202.644 187.082L202.738 187.06C204.983 186.493 207.442 186.821 209.46 187.958C212.36 189.592 214.118 192.625 216.111 195.29C217.87 197.643 219.952 199.831 222.554 201.194C225.157 202.557 228.348 203.007 231.059 201.875C232.404 201.314 233.608 200.384 235.036 200.088C236.463 199.793 237.926 200.586 238.45 201.939C238.682 202.537 238.183 204.754 236.913 207.344C237.119 207.285 237.336 207.246 237.562 207.232C244.239 206.798 250.977 205.347 256.723 201.918C258.549 200.829 260.255 199.552 261.949 198.265L262.936 197.512L263.534 197.052C267.251 194.173 270.92 190.963 272.448 186.584L272.528 186.348L272.697 185.83C273.024 184.851 273.438 183.838 274.385 183.533C275.694 183.112 276.886 184.379 277.682 185.501L283.417 193.586C283.564 193.794 283.715 194.009 283.771 194.257C284.019 195.356 282.379 195.911 281.323 195.521C279.401 194.811 277.858 192.698 275.842 193.06C274.425 193.315 273.578 194.688 272.878 195.98L272.7 196.31C268.457 204.256 261.315 210.612 252.932 213.907C250.77 214.756 248.537 215.406 246.308 216.056L241.804 217.368L242.598 217.509C249.318 218.688 256.488 219.407 262.591 216.429C266.654 214.446 269.784 211.033 272.736 207.583L273.808 206.324L274.25 205.798C276.062 203.624 277.784 201.297 278.313 198.542C278.516 197.484 279.851 196.979 280.89 197.266C281.928 197.553 282.719 198.374 283.454 199.161L289.029 205.129C289.469 205.599 289.931 206.117 289.995 206.758C290.06 207.398 289.486 208.122 288.868 207.943L282.822 206.187C282.255 206.022 281.627 205.861 281.093 206.113C280.684 206.307 280.42 206.703 280.186 207.095L273.687 218.07C271.857 221.161 268.465 222.953 265.132 224.293C257.141 227.507 248.469 229.016 239.861 228.693C238.927 228.658 237.991 228.601 237.067 228.456C233.594 227.908 230.458 226.143 227.422 224.357C227.955 226.304 227.48 227.946 224.318 228.071C221.518 228.182 214.658 216.651 212.525 216.052C200.88 212.787 198.968 206.341 195.227 201.939C195.227 201.939 187.667 202.916 182.676 201.875C170.976 199.436 163.113 191.932 160.278 191.455C157.444 190.977 155.575 192.794 154.699 191.692L154.699 190.893C154.835 190.674 156.189 189.408 160.053 190.23C165.449 191.378 174.075 195.712 180.662 196.521C187.577 197.371 193.435 196.246 193.403 196.057C193.337 195.672 195.075 194.036 193.686 193.21C192.298 192.384 172.136 184.292 167.754 177.549L167.702 177.465C166.948 176.214 166.376 173.106 167.892 174.529L168.317 173.776C169.949 175.316 175.309 178.835 180.876 182.304C186.763 185.971 195.075 188.32 195.227 188.217C198.615 185.926 195.61 184.267 195.05 183.78C193.737 182.64 191.995 182.019 190.864 180.699C188.151 177.532 190.089 171.867 186.988 169.079C186.519 168.657 185.95 168.325 185.61 167.793C185.027 166.883 185.314 165.615 186.019 164.796C186.724 163.977 187.756 163.519 188.777 163.163C190.896 162.423 193.219 162.01 195.382 162.606Z" fill="white"/>
<circle cx="197.198" cy="178.8" r="0.8" fill="#FFB61D"/>
<ellipse cx="192.324" cy="178.8" rx="0.593289" ry="0.8" fill="#FFB61D"/>
<path d="M163.332 182.677C155.894 180.754 148.077 180.31 140.469 181.379C141.044 178.535 141.765 175.722 142.627 172.952C140.152 173.75 137.229 171.482 137.389 168.886C137.549 166.289 140.728 164.397 143.087 165.494C143.897 163.624 143.948 161.439 143.227 159.533C142.881 158.619 144.26 158.092 145.238 158.092L150.639 158.09C151.394 158.09 152.446 157.739 152.259 157.008C151.814 155.274 153.006 153.293 154.747 152.874C156.456 152.462 158.38 153.633 158.821 155.328L158.844 155.423C159.254 157.244 161.561 157.822 163.427 157.787L164.357 157.764C165.971 157.731 167.653 157.783 168.734 158.912C170.026 160.263 169.737 162.413 169.311 164.247L169.283 164.368C168.679 166.913 168.036 169.449 167.353 171.973C168.679 182.65 165.394 183.21 163.332 182.677Z" fill="white"/>
<path d="M101.294 173.762C100.505 168.63 100.506 163.378 101.297 158.247L101.337 157.998C101.533 156.834 101.878 155.604 102.851 154.963C103.579 154.483 104.499 154.447 105.377 154.446L112.095 154.465C112.4 154.466 112.736 154.477 112.965 154.679C113.195 154.88 113.189 155.343 112.894 155.425C112.191 155.62 111.786 156.431 111.872 157.156C111.957 157.882 112.429 158.509 112.982 158.985C114.303 160.121 116.355 160.524 117.817 159.577C119.279 158.631 119.623 156.193 118.238 155.137C121.376 155.074 124.515 155.083 127.653 155.167L128.829 155.202C129.209 155.214 129.63 155.244 129.896 155.517C130.095 155.721 130.161 156.018 130.206 156.3C130.553 158.472 130.173 160.754 129.141 162.697C128.976 163.006 128.596 163.347 128.336 163.112C127.234 162.111 125.38 162.247 124.251 163.219C123.123 164.191 122.687 165.805 122.887 167.281C123.079 168.701 124.114 170.218 125.545 170.146C126.672 170.09 127.926 169.104 128.778 169.844L127.343 176.256C127.088 177.396 126.63 178.747 125.488 178.991C118.899 180.401 111.989 180.294 105.446 178.682L105.129 178.602C104.335 178.394 103.544 178.125 102.924 177.595C101.846 176.672 101.509 175.165 101.294 173.762Z" fill="white"/>
<path d="M152.992 123.443L168.917 123.763L169.177 123.77C169.655 123.785 170.137 123.827 170.567 124.028C171.541 124.482 171.987 125.602 172.283 126.635C173.863 132.147 173.668 138.153 171.734 143.551L171.653 143.772C171.401 144.436 171.072 145.098 170.477 145.472C169.988 145.78 169.391 145.844 168.811 145.875L168.687 145.881C166.319 145.993 163.943 145.933 161.584 145.7C162.812 144.944 163.122 143.102 162.342 141.889C161.562 140.675 159.914 140.168 158.526 140.562C157.68 140.803 156.892 141.381 156.586 142.205C156.28 143.03 156.576 144.089 157.358 144.491C157.898 144.77 157.805 145.646 157.332 146.028C156.858 146.41 156.2 146.437 155.592 146.447L147.602 146.577C147.002 146.586 146.37 146.589 145.843 146.301C145.096 145.893 144.752 145.014 144.541 144.189C144.033 142.198 143.964 140.096 144.341 138.076C144.796 139.671 146.762 140.64 148.303 140.028C149.845 139.416 150.612 137.363 149.849 135.89C149.086 134.417 146.966 133.86 145.577 134.767L145.52 134.252C145.32 132.448 145.165 130.62 145.512 128.843C145.891 126.897 146.974 124.985 148.749 124.101C150.043 123.456 151.538 123.42 152.992 123.443Z" fill="white"/>
<path d="M104.698 141.356C102.455 141.365 100.213 141.272 97.9785 141.079L97.7616 141.059C96.9615 140.98 96.1225 140.819 95.5983 140.224C94.8908 139.421 95.0635 138.211 95.276 137.151L95.2974 137.046C96.2469 132.398 96.6199 127.633 96.4057 122.894L96.3658 122.077C96.3063 120.607 96.4002 118.941 97.6207 118.186C97.9921 117.956 98.4231 117.849 98.8528 117.762L98.9959 117.734C106.81 116.212 114.947 116.366 122.698 118.184C123.719 118.423 124.003 119.806 123.664 120.798C123.326 121.79 122.599 122.624 122.327 123.636C122.055 124.649 122.554 126.019 123.601 126.052C125.782 126.12 127.631 128.336 127.337 130.498C127.044 132.66 124.708 134.3 122.569 133.87C122.067 133.77 121.889 134.511 121.944 135.021L122.554 140.664C122.654 141.585 121.347 141.876 120.423 141.804L115.034 141.385C114.187 141.319 113.052 141.465 112.921 142.304C112.597 144.394 110.454 146.025 108.354 145.783C106.253 145.541 104.539 143.464 104.698 141.356Z" fill="white"/>
<path fill-rule="evenodd" clip-rule="evenodd" d="M90.191 176.089C90.7889 176.234 91.6449 176.492 91.5974 177.058C90.6405 188.454 86.5213 186.357 82.8482 189.625C81.8777 190.488 81.2977 192.53 80.8807 192.577C82.4266 193.291 84.6699 196.155 88.5307 196.286C99.2875 196.651 103.203 188.802 103.203 188.802C103.456 186.285 102.179 181.752 103.773 183.022C104.872 183.898 104.655 179.63 106.157 180.055C106.609 180.182 105.82 183.02 106.157 183.19C106.343 183.284 106.619 182.51 107.099 181.895C107.5 181.381 108.118 181.001 108.246 181.113C108.333 181.19 108.25 181.923 107.889 182.543C107.382 183.416 106.534 184.255 106.652 184.395C106.783 184.549 109.019 182.468 109.155 182.65C110.06 183.857 104.329 197.749 94.6592 200.371L93.8934 200.577C88.2563 202.075 85.889 202.279 80.6662 200.371C78.1898 199.467 76.6496 207.915 75.273 210.727C74.4038 212.503 70.1822 216.854 68.2544 215.538C65.7111 213.802 63.6372 210.571 61.4728 208.936L61.3337 208.834C59.8587 207.776 56.5225 206.171 51.325 204.019L51.5591 203.911C52.6436 203.418 55.4367 202.213 57.5813 200.371C60.6287 197.755 62.2791 192.135 64.4034 189.104C66.5008 186.112 69.3154 186.553 67.6168 186.023C67.6168 186.023 63.3124 183.743 61.3337 183.534C54.7255 182.837 46.1108 185.96 43.3549 187.972C39.5736 190.734 43.3306 194.798 38.1057 192.806C36.3644 192.142 41.0316 183.542 47.4696 180.055C56.4181 175.208 64.8793 173.874 73.3624 181.59C76.8147 184.73 77.1564 187.526 78.0822 189.657L77.8927 189.134C88.1264 188.46 72.7931 178.214 85.5941 175.65C86.9385 175.381 88.3494 175.661 89.697 175.973L90.191 176.089Z" fill="white"/>
<circle cx="83.6008" cy="183.2" r="0.8" fill="#FFB61D"/>
<circle cx="87.9992" cy="184.8" r="0.8" fill="#FFB61D"/>
<path fill-rule="evenodd" clip-rule="evenodd" d="M41.5586 214.225C50.23 220.229 39.1352 211.936 48.6097 221.819C50.523 223.815 60.2102 212.416 61.2095 219.172C61.574 221.636 60.7792 224.201 61.2638 226.644C61.7159 228.924 71.6322 227.556 72.3982 226.558C75.1748 222.943 66.5337 213.658 64.7218 212.174C54.611 203.891 51.2746 204.466 41.8274 213.035L41.5586 214.225Z" fill="white"/>
<path fill-rule="evenodd" clip-rule="evenodd" d="M267.136 64.1419C268.836 64.3452 270.418 64.5343 270.418 62.5519C270.418 62.0803 264.694 57.9371 262.998 59.5326C260.816 61.5845 259.084 63.9374 257.406 66.2165C253.884 71.001 250.601 75.4601 243.907 76.1244L243.826 76.1333C241.232 76.4467 246.066 78.7496 251.495 76.1244C255.227 74.3194 260.193 68.6092 262.552 65.8969C263.169 65.1871 263.608 64.6827 263.799 64.5072L263.849 64.4651C264.653 63.8451 265.924 63.9971 267.136 64.1419ZM275.211 69.507L280.874 74.0027C281.978 74.8785 280.686 76.7659 279.28 76.8564C278.464 76.9088 277.682 76.6578 276.896 76.4055C276.327 76.223 275.756 76.0398 275.168 75.9703C271.842 75.5771 269.307 78.7095 267.243 81.3477C265.358 83.7587 263.293 86.0295 261.072 88.1354L260.772 88.4177L260.459 88.7057C258.672 90.33 256.668 91.8012 254.311 92.2251C250.841 92.8492 247.394 91.0722 244.559 88.9752C243.867 88.4635 243.188 87.9267 242.508 87.3896L242.508 87.3894C240.403 85.7256 238.294 84.0588 235.797 83.1248C233.634 84.3055 231.609 85.7321 229.76 87.3595L229.842 87.2946C232.947 90.4062 235.117 94.4377 236.006 98.7424L235.412 98.638L235.02 98.5712C231.352 97.9561 227.423 97.5921 224.323 99.5552C223.231 100.247 222.256 101.213 221.293 102.168C220.622 102.833 219.957 103.493 219.26 104.052C219.437 104.157 219.618 104.266 219.803 104.379C223.234 105.782 226.87 106.681 230.559 107.038C231.123 107.092 231.693 107.135 232.265 107.179C234.911 107.38 237.591 107.583 239.852 108.912L240.646 109.386C241.918 110.139 243.335 110.856 244.402 109.984C244.708 109.733 244.909 109.389 245.111 109.044C245.233 108.833 245.356 108.623 245.504 108.432C245.893 107.927 246.666 107.572 247.15 107.987L247.347 109.528C247.489 108.536 248.446 107.73 249.448 107.758C250.449 107.786 251.36 108.644 251.447 109.642C251.605 111.454 249.551 112.538 247.808 113.114L238.772 116.026C235.544 117.067 231.965 116.528 228.852 115.179C225.955 113.923 223.398 112.012 220.955 110.004L220.414 109.556C218.569 108.021 216.075 106.353 213.982 107.527C217.619 107.748 220.272 110.883 222.441 113.847L222.65 114.133C223.001 114.617 223.362 115.127 223.449 115.719C223.692 117.375 221.81 118.475 220.221 119.002C221.56 119.719 220.896 121.802 219.859 122.912C218.349 124.526 216.372 125.688 214.239 126.263L214.044 126.937C214.032 126.982 214.026 127.006 214.027 127.007C215.033 126.937 215.654 128.288 215.244 129.21C214.834 130.131 213.822 130.622 212.852 130.896C209.654 131.8 206.043 131.087 203.429 129.035L202.921 129.3C200.712 130.443 198.428 131.506 195.974 131.866C193.331 132.254 190.421 131.709 188.51 129.842L188.636 130.117C188.906 130.717 189.149 131.337 189.157 131.99C189.167 132.743 188.778 133.556 188.064 133.798C186.886 134.197 185.858 132.938 185.246 131.856C184.911 132.689 185.257 133.627 185.593 134.54C185.976 135.58 186.346 136.587 185.68 137.366C184.987 138.177 183.672 137.97 182.718 137.491C179.144 135.698 177.465 131.186 178.239 127.264C179.014 123.341 181.834 120.057 185.192 117.887C182.912 116.216 181.244 113.728 180.565 110.984C180.746 111.217 181.554 110.466 182.703 109.398C184.803 107.446 188.042 104.436 190.658 104.464C191.159 104.469 191.969 104.857 192.761 105.237L192.761 105.237C193.336 105.512 193.901 105.783 194.334 105.902C194.37 105.855 194.414 105.813 194.464 105.777L193.969 105.421C192.973 104.714 191.933 104.048 190.754 103.755C189.379 103.413 187.75 103.695 186.874 104.809C184.731 107.533 182.015 109.805 178.956 111.434L180.769 114.782C180.02 115.14 179.086 115.075 178.39 114.623L178.305 114.565L178.359 114.632C179.403 115.995 178.485 118.37 176.775 118.639C175.04 119.368 173.29 117.193 173.461 115.318C173.581 114.005 174.231 112.841 174.883 111.675C175.161 111.177 175.44 110.679 175.677 110.168C176.48 108.444 176.832 106.529 177.183 104.626C177.664 102.018 178.14 99.4324 179.764 97.3936C180.901 95.9657 182.494 94.9728 184.128 94.1584C190.612 90.9267 198.285 90.1539 205.284 92.0278C206.475 87.7573 208.839 83.8199 212.046 80.7592L212.238 80.5799C213.465 79.4492 214.991 78.439 216.619 78.6245L216.748 78.6416C218.364 78.8882 219.769 77.6408 220.944 76.4864L221.306 76.1309L221.59 75.8575C223.922 73.6308 226.628 71.5758 229.813 71.3541C232.647 71.1568 235.359 72.4579 237.805 73.9023C240.572 75.5364 243.204 77.3991 245.666 79.465L246.099 79.8317C246.214 79.9306 246.33 80.0303 246.447 80.1305C248.768 82.1246 251.308 84.3065 254.33 84.1257C257.429 83.9403 259.692 81.3684 261.778 78.9984L261.779 78.9969L261.782 78.9936C261.949 78.8035 262.115 78.6147 262.281 78.4286C264.853 75.5324 267.783 72.9827 270.748 70.4852L272.02 69.4171C272.405 69.0945 272.819 68.7585 273.318 68.6938C274.018 68.6029 274.657 69.0677 275.211 69.507ZM219.213 118.6C218.584 118.474 217.725 118.529 216.636 118.764C217.353 118.767 217.956 118.754 218.446 118.725C218.683 118.696 218.919 118.659 219.151 118.613L219.213 118.6ZM195.891 104.732C196.121 104.497 196.364 104.248 196.632 104.035C197.132 103.772 197.695 103.638 198.263 103.692C200.181 103.874 201.634 105.915 201.383 107.826C200.37 110.335 197.864 111.768 195.385 113.184C193.858 114.057 192.341 114.923 191.19 116.032C191.479 115.556 191.795 115.176 192.116 114.942C193.116 114.214 194.163 113.583 195.149 112.988C195.978 112.488 196.764 112.014 197.445 111.529C198.516 110.766 199.236 110.04 199.794 109.479C200.22 109.049 200.552 108.715 200.874 108.532C200.9 108.517 202.109 106.066 199.186 104.464C196.979 103.254 195.996 104.785 195.468 105.607C195.296 105.874 195.173 106.066 195.071 106.066C195.044 106.066 195.007 106.062 194.961 106.054C195.034 105.793 195.145 105.541 195.287 105.305C195.485 105.149 195.683 104.946 195.891 104.732ZM196.515 104.1C196.014 104.391 195.583 104.813 195.287 105.305L195.214 105.36C195.069 105.466 194.923 105.544 194.772 105.579C194.468 105.651 193.745 105.096 193.132 104.626C192.766 104.345 192.439 104.094 192.265 104.026C191.119 103.577 190.985 103.57 190.191 103.533L190.191 103.533H190.191C190.056 103.526 189.903 103.519 189.724 103.509L189.394 103.488C189.322 103.484 189.243 103.48 189.158 103.477L189.158 103.477L189.157 103.477C188.499 103.449 187.551 103.409 187.74 102.897C191.125 93.7363 205.587 91.7427 203.196 102.099C202.998 102.955 202.479 103.704 201.96 104.454C201.701 104.828 201.441 105.203 201.222 105.591C200.287 104.263 199.269 103.563 198.167 103.491C197.553 103.451 197.059 103.698 196.632 104.035L196.515 104.1ZM222.748 95.8817L222.751 95.8764C221.955 97.3894 221.101 99.2104 220.187 101.34C220.874 99.4478 221.734 97.6203 222.748 95.8817ZM229.196 97.277L229.085 97.2812C228.203 97.3182 227.411 97.4503 226.71 97.6773C225.933 97.9292 225.106 98.3504 224.229 98.941C225.763 98.0909 227.46 97.5222 229.196 97.277Z" fill="white"/>
<path fill-rule="evenodd" clip-rule="evenodd" d="M184.072 135.645C183.379 136.456 182.374 136.195 181.453 135.297C179.526 133.419 178.752 129.794 179.526 125.872C180.301 121.95 183.318 120.333 186.677 118.164C185.169 117.544 182.439 113.608 182.165 109.783C183.094 110.982 183.143 113.133 184.072 114.332C184.954 115.469 186.715 116.854 187.597 117.991C187.709 118.137 187.806 118.381 187.646 118.471C184.427 120.3 182.34 120.905 180.441 125.872C178.542 130.838 182.398 135.432 182.91 135.297C183.541 135.13 183.318 134.293 182.955 133.75C181.933 132.219 182.905 130.177 183.739 128.535C184.184 129.035 183.113 130.468 183.339 131.958C183.559 133.413 184.689 134.922 184.072 135.645Z" fill="#E7EAEE"/>
<circle cx="197.198" cy="119.2" r="0.8" fill="#FFB61D"/>
<circle cx="194.402" cy="116" r="0.8" fill="#FFB61D"/>
<path d="M74.766 123.856C75.2285 124.72 74.5015 125.954 73.5223 125.968C72.6836 121.254 71.7794 116.376 69.0506 112.441C63.8256 104.908 53.0587 102.433 48.5852 94.4308C45.5393 96.5987 40.8818 96.0461 38.4278 93.2256C36.9017 91.4715 34.2414 91.2561 31.9495 91.6475C29.6575 92.0388 27.4184 92.9039 25.0944 92.8304C24.086 92.7985 22.9874 92.5273 22.4005 91.7067C21.8136 90.8861 22.1526 89.4418 23.1514 89.2989C27.5023 88.6761 31.8533 88.0533 36.2043 87.4305C36.546 87.3816 36.9086 87.3234 37.168 87.0957C37.4615 86.8381 37.5536 86.4261 37.6297 86.0431C38.2596 82.873 38.7135 79.0939 36.3792 76.8585C34.4446 75.0058 31.3912 75.0697 28.7629 75.5866C26.1345 76.1034 23.4258 76.9538 20.8355 76.2714C18.2453 75.5889 16.0791 72.5119 17.4754 70.226C18.4107 68.695 17.3561 66.6531 15.9135 65.5866C14.4708 64.52 12.6755 63.9947 11.2772 62.8706C9.87883 61.7466 8.9914 59.5777 10.1052 58.1712C10.595 57.5526 11.362 57.2267 12.1145 56.9893C14.605 56.2037 17.382 56.1438 19.7826 57.1717C22.1832 58.1996 24.1327 60.4027 24.5234 62.9848C24.8417 65.0884 24.2369 67.5356 25.6275 69.1457C27.4456 71.2508 30.8059 70.0701 33.5874 70.0447C36.4321 70.0188 39.2452 71.5271 40.798 73.9109C42.3507 76.2946 42.5933 79.4773 41.4198 82.0689C44.7241 78.7068 49.1747 76.1277 53.8855 76.3033C58.2366 76.4655 62.2345 78.9682 65.1446 82.2071C68.0547 85.4459 70.0399 89.3905 71.9865 93.2852C72.7118 94.7362 74.5513 95.5227 76.1013 95.0444C77.6514 94.566 78.7279 92.8797 78.5093 91.2724C79.8602 91.5668 80.0008 93.3929 80.0425 94.7749C80.1299 97.6785 81.1814 100.545 82.9921 102.816C83.5979 101.699 84.0601 100.504 84.3637 99.2696C85.6854 100.789 86.1785 102.988 85.6322 104.927C85.0859 106.865 83.5168 108.483 81.5962 109.089C80.5741 109.411 79.3244 109.566 78.8171 110.51C80.7337 113.866 82.3822 117.375 83.7417 120.993C84.4708 122.933 84.9968 125.429 83.4622 126.822C81.6882 125.512 80.68 123.435 79.7387 121.44C78.2704 118.33 76.8022 115.219 75.3339 112.108" fill="white"/>
<path fill-rule="evenodd" clip-rule="evenodd" d="M79.6068 92.7171C79.2212 96.484 80.6312 100.395 83.3315 103.05C84.2944 102.469 84.9101 101.354 84.8888 100.229C85.9007 101.893 85.3338 104.149 84.0755 105.636C82.8172 107.122 81.0119 108.013 79.26 108.863C78.2562 109.351 77.2141 109.848 76.0988 109.881C74.3972 109.932 72.8728 108.909 71.4815 107.928L67.3996 105.05C69.5085 108.985 74.3088 111.277 78.6949 110.442C81.7451 114.721 83.6127 119.834 84.0387 125.071L83.2187 123.556L83.2138 123.545C83.212 123.541 83.21 123.537 83.2079 123.533C83.2046 123.527 83.2008 123.52 83.1968 123.514C83.1943 123.509 83.1917 123.505 83.1889 123.501L83.2187 123.556C83.3366 123.847 82.8757 124.168 82.5655 124.018C82.2355 123.858 82.111 123.461 82.0135 123.107C80.8127 118.753 78.6606 114.664 75.7516 111.208L80.1565 120.541C81.0977 122.535 82.1059 124.613 83.88 125.923C85.4145 124.53 84.8885 122.033 84.1595 120.093C82.7999 116.476 81.1515 112.967 79.2349 109.611C79.6468 108.844 80.5483 108.598 81.42 108.36L81.4202 108.36L81.4204 108.359L81.4207 108.359L81.4209 108.359L81.4211 108.359L81.4214 108.359C81.6226 108.304 81.8223 108.25 82.0139 108.189C83.9346 107.584 85.5036 105.966 86.05 104.027C86.5963 102.089 86.1031 99.8894 84.7814 98.3699C84.4778 99.6041 84.0156 100.799 83.4099 101.917C81.5991 99.6452 80.5477 96.7788 80.4602 93.8752C80.4186 92.4933 80.2779 90.6672 78.927 90.3727C79.1456 91.9801 78.0691 93.6664 76.5191 94.1447C74.9691 94.623 73.1295 93.8366 72.4043 92.3856C70.4577 88.4908 68.4724 84.5462 65.5624 81.3074C62.6523 78.0685 58.6543 75.5658 54.3032 75.4036C49.5924 75.228 45.1419 77.8071 41.8375 81.1692C43.011 78.5776 42.7685 75.3949 41.2157 73.0112C39.6629 70.6274 36.8499 69.1191 34.0051 69.145C33.2835 69.1516 32.5229 69.236 31.7604 69.3205C29.5839 69.5619 27.3917 69.805 26.0452 68.246C25.0943 67.1449 25.0764 65.6524 25.0584 64.146C25.0501 63.4496 25.0417 62.7502 24.9411 62.0851C24.5505 59.5031 22.601 57.2999 20.2003 56.272C17.7997 55.2441 15.0227 55.304 12.5323 56.0897C11.7798 56.3271 11.0128 56.653 10.5229 57.2715C9.40914 58.678 10.2966 60.8469 11.6949 61.9709C12.4308 62.5625 13.2767 62.9883 14.1233 63.4144L14.1233 63.4144L14.1233 63.4144C14.8853 63.7979 15.6478 64.1817 16.3312 64.6869C17.7739 65.7534 18.8284 67.7953 17.8932 69.3263C16.4968 71.6122 18.663 74.6892 21.2533 75.3717C23.3945 75.9359 25.6167 75.4525 27.8075 74.9761C28.2669 74.8761 28.725 74.7765 29.1806 74.6869C31.8089 74.1701 34.8623 74.1061 36.7969 75.9588C39.1312 78.1943 38.6774 81.9734 38.0475 85.1434C37.9714 85.5265 37.8792 85.9384 37.5857 86.196C37.3263 86.4237 36.9637 86.4819 36.6221 86.5308L23.5691 88.3992C22.5704 88.5421 22.2313 89.9864 22.8182 90.807C23.4051 91.6277 24.5038 91.8988 25.5122 91.9307C27.054 91.9795 28.5585 91.6151 30.0659 91.2501L30.0659 91.2501L30.066 91.25L30.066 91.25L30.0661 91.25L30.0663 91.25L30.0664 91.25L30.0665 91.2499C30.8309 91.0648 31.5961 90.8795 32.3672 90.7478C34.6591 90.3565 37.3194 90.5718 38.8456 92.3259C41.2996 95.1464 45.957 95.699 49.0029 93.5311C51.3569 97.7422 55.4535 100.423 59.5683 103.115C63.2732 105.539 66.9928 107.972 69.4683 111.542C72.1971 115.476 73.1014 120.354 73.94 125.068C74.9192 125.054 75.6463 123.82 75.1837 122.957L74.2637 124.17C73.9238 116.74 70.1291 109.54 64.1923 105.06C62.7221 103.95 61.1099 102.977 59.5011 102.007C55.966 99.8744 52.4476 97.7519 50.4902 94.2095C50.3139 93.8905 50.1498 93.5527 50.1212 93.1893C50.0851 92.7296 50.2684 92.2863 50.4452 91.8585L50.4705 91.7975C51.1761 90.0857 51.6689 88.2075 51.3224 86.3887C50.9758 84.57 49.6066 82.8502 47.7755 82.5766C50.8749 84.5591 51.5103 89.4792 49.0162 92.184C46.522 94.8889 41.5667 94.6538 39.3398 91.725C37.5551 89.3777 33.9864 89.6651 31.1138 90.3308C28.2413 90.9965 24.8586 91.6932 22.6395 89.7514C27.387 88.4461 32.2722 87.6424 37.1877 87.3579C38.3587 87.2902 38.818 85.8294 38.9757 84.6672C39.2181 82.8804 39.4606 81.065 39.195 79.2816C38.9294 77.4981 38.0817 75.7191 36.5683 74.7388C34.751 73.5617 32.4049 73.7442 30.2515 73.9695L24.5286 74.5683C23.2955 74.6973 22.0282 74.8238 20.8327 74.4955C19.6371 74.1671 18.5122 73.2757 18.2829 72.0572C18.1382 71.2877 18.3585 70.5299 18.5806 69.7659C18.7405 69.2159 18.9013 68.6626 18.9275 68.0995C19.0022 66.4961 17.9664 65.0269 16.7077 64.0308C15.9366 63.4204 15.0773 62.9402 14.2172 62.4595L14.2172 62.4595C13.6735 62.1556 13.1294 61.8515 12.6071 61.5143C11.624 60.8796 10.6153 59.854 10.8887 58.7162C11.0635 57.9885 11.722 57.4841 12.384 57.1351C14.6191 55.9569 17.4129 55.9039 19.6911 56.9966C21.9694 58.0892 23.6769 60.3011 24.1573 62.7817C24.2758 63.3936 24.3296 64.0328 24.3834 64.6706C24.5077 66.1461 24.6314 67.6146 25.5532 68.7231C26.6544 70.0473 28.5576 70.3809 30.2778 70.2989C30.8676 70.2708 31.4574 70.2047 32.0466 70.1387C33.176 70.0122 34.3037 69.8859 35.4265 70.0273C39.2022 70.5029 42.177 74.4314 41.6111 78.1946C41.5798 78.4027 41.5395 78.6126 41.4991 78.8232C41.355 79.5739 41.2095 80.3318 41.4659 81.037C41.7943 81.9398 43.2305 82.4206 43.6855 81.5745C45.7244 77.7831 50.4009 75.8729 54.6766 76.3736C58.9522 76.8744 62.7786 79.4489 65.5857 82.7127C68.3928 85.9764 70.3024 89.904 72.0439 93.8409C72.6574 95.2276 74.4837 95.7297 75.9428 95.3172C77.4019 94.9046 78.5597 93.8138 79.6068 92.7171ZM71.9447 99.3249C71.9862 99.319 72.0824 99.5073 72.2274 99.7912L72.2274 99.7912C72.5843 100.49 73.2369 101.767 74.0975 102.156C74.0592 102.518 73.4899 102.324 73.2532 102.048C72.5803 101.261 71.8662 100.357 71.9447 99.3249ZM73.976 105.531C74.4202 106.182 71.7601 106.505 70.8758 105.938C71.0315 105.908 71.2367 105.924 71.4639 105.941C71.7334 105.962 72.0338 105.986 72.3193 105.938C72.7375 105.867 73.1411 105.739 73.4459 105.642L73.4459 105.642C73.7415 105.548 73.9439 105.484 73.976 105.531ZM73.3374 103.112C72.2785 103.293 70.9776 101.883 70.9776 100.556C71.2828 101.537 72.3671 102.315 72.9662 102.745C73.2711 102.964 73.4503 103.092 73.3374 103.112ZM77.1314 108.658C75.721 108.658 75.0817 106.28 75.721 106.127C75.874 106.058 75.8812 106.271 75.8918 106.586C75.903 106.916 75.918 107.359 76.1102 107.704C76.3238 108.088 76.7761 108.344 77.0401 108.493C77.2397 108.606 77.3317 108.658 77.1314 108.658ZM78.7026 105.42C79.0122 105.591 79.2947 105.855 79.3749 106.199C79.455 106.544 79.2625 106.961 78.9164 107.033C78.808 106.873 78.8667 106.772 78.9287 106.665C79.0198 106.508 79.1177 106.34 78.7026 105.957C78.5278 105.796 78.3243 105.726 78.1816 105.677C78.0717 105.639 77.9978 105.614 78.0007 105.569C78.0186 105.283 78.4515 105.282 78.7026 105.42ZM76.0627 102.321C75.9929 102.369 75.9449 102.403 75.9861 102.441C76.1136 102.56 76.2635 102.616 76.4133 102.53C76.5276 102.465 76.5855 102.331 76.6125 102.202C76.763 101.482 76.0021 100.738 75.2851 100.904C75.3487 101.072 75.4705 101.126 75.6184 101.191C75.789 101.266 75.9944 101.356 76.185 101.655C76.442 102.057 76.2063 102.221 76.0627 102.321ZM75.8216 109.113C74.9911 108.871 74.1699 106.91 74.612 106.762C74.8878 106.669 74.8862 106.684 74.8702 106.839C74.8555 106.981 74.8286 107.241 74.9911 107.643C75.1929 108.143 75.4755 108.549 75.6555 108.807C75.7788 108.984 75.8539 109.092 75.8216 109.113ZM76.1496 124.762C76.2993 124.959 76.6417 124.873 76.7735 124.663C76.9053 124.454 76.8887 124.187 76.8649 123.941C76.5201 120.379 75.5958 116.875 74.1394 113.606C73.7246 112.676 73.2883 111.515 73.9234 110.718C75.3917 114.388 76.8724 118.103 77.4072 122.019C77.5531 123.088 77.6055 124.259 77.0096 125.158C76.4136 126.057 74.9288 126.402 74.2667 125.55C75.285 125.337 76.0642 124.306 75.9907 123.268C76.4611 123.589 76.542 124.35 76.1496 124.762ZM88.018 195.477C93.3457 195.185 99.5179 194.416 102.312 189.87C103.037 188.692 102.883 186.839 102.755 185.312C102.653 184.085 102.568 183.069 102.971 182.782C103.875 182.137 104.598 183.799 104.598 183.799C104.625 183.689 104.655 183.553 104.69 183.399C104.942 182.267 105.407 180.181 106.138 180.573C106.438 180.734 106.335 181.748 106.264 182.445L106.264 182.445C106.247 182.609 106.232 182.755 106.225 182.868C106.208 182.976 106.205 183.066 106.218 183.129C106.228 183.125 106.239 183.119 106.25 183.112C106.258 183.111 106.267 183.104 106.278 183.09C106.396 182.991 106.558 182.744 106.738 182.47L106.738 182.47C107.111 181.902 107.562 181.215 107.865 181.467C108.339 181.864 106.651 184.395 106.651 184.395C106.651 184.395 108.656 182.192 108.825 183.129C108.995 184.067 104.429 192.536 100.307 195.857C96.1854 199.179 90.3779 201.038 85.1266 200.372C85.2438 198.29 85.9352 195.592 88.018 195.477ZM106.561 181.966C106.737 181.659 106.975 181.366 107.27 181.179C108.858 180.175 108.324 181.73 108.077 182.45C108.014 182.633 107.97 182.762 107.984 182.782C108.006 182.813 108.105 182.741 108.237 182.644C108.482 182.465 108.841 182.202 109.043 182.361C109.583 182.619 108.978 184.951 108.503 185.951L108.438 186.087C106.012 191.117 102.409 195.707 97.5964 198.541C92.7838 201.374 86.6782 202.268 81.509 200.154C79.7007 199.415 78.1816 201.667 77.5129 203.503L75.5116 208.997C74.4896 211.802 73.175 214.918 70.3893 215.993C72.8878 222.506 73.6914 229.661 72.7001 236.567C72.3566 238.96 71.7245 241.465 69.9894 243.148C67.0491 246.001 62.2652 245.396 58.3416 244.218L56.3561 243.613C53.0135 242.607 49.5339 241.74 46.3688 243.019C45.8015 243.248 45.2614 243.543 44.7221 243.837C43.9618 244.251 43.203 244.664 42.3717 244.894C40.9506 245.286 39.1213 244.904 38.5692 243.537C40.1006 240.541 42.2261 237.85 44.7861 235.666C45.1782 235.332 45.642 234.99 46.1539 235.049C46.7464 235.118 47.0739 235.643 47.4076 236.177C47.5701 236.438 47.7341 236.701 47.9309 236.914C48.6973 237.747 49.9631 237.797 51.1033 237.765L64.1971 237.34C62.8511 234.29 61.956 231.041 61.55 227.732L65.533 237.7C62.7726 238.41 59.8979 238.675 57.0542 238.479L56.6461 238.449L56.4329 238.432C55.2755 238.339 54.1069 238.246 52.9943 238.552C51.682 238.912 50.451 240.02 50.4698 241.381L61.7059 244.005C63.5551 244.429 65.5106 244.783 67.2663 244.101C70.0499 243.019 71.282 239.774 71.745 236.824C72.1723 234.102 72.2186 231.32 71.8824 228.585L71.8617 228.432C71.8114 228.096 71.7199 227.755 71.4587 227.549C71.2092 227.353 70.8712 227.335 70.5503 227.338L61.6207 227.496C60.0251 227.524 59.5636 225.227 60.1268 223.734C60.2561 223.391 60.411 223.046 60.5666 222.699C61.0887 221.535 61.6184 220.354 61.2137 219.193C60.4521 217.009 57.2041 217.135 55.246 218.368C54.6673 218.732 54.112 219.158 53.5574 219.584C52.2836 220.561 51.0135 221.536 49.4717 221.751L49.2958 221.772C47.2112 221.98 45.4891 223.396 43.9242 224.811L24.8172 242.233C24.515 242.508 24.184 242.797 23.7776 242.844C23.3756 242.89 22.9942 242.688 22.6474 242.473L22.5737 242.426C19.7254 240.619 17.1134 238.441 14.8248 235.963C13.7914 234.844 15.3192 232.992 16.8416 232.949C17.7462 232.923 18.6034 233.227 19.465 233.532L19.4651 233.532L19.4653 233.532C20.0536 233.74 20.6439 233.949 21.2528 234.055C24.6205 234.637 27.6412 232.043 29.9675 229.539C34.2462 224.934 38.1312 219.963 41.5662 214.698L40.4839 213.356L54.592 204.968C53.8248 204.872 53.1545 204.244 53.0082 203.484C56.8566 202.737 59.1551 198.893 60.91 195.368L61.1511 194.883C62.8891 191.403 65.0696 187.636 68.8244 186.745C66.0727 183.823 61.7998 182.71 57.7956 182.991C53.9026 183.265 50.1945 184.702 46.6355 186.313L46.3307 186.451C44.8198 187.141 43.141 188.083 42.834 189.715C42.7714 190.048 42.7726 190.39 42.7739 190.731C42.7755 191.169 42.7771 191.605 42.644 192.018C42.4072 192.754 41.3787 193.309 40.8759 192.722C41.1988 193.722 39.9136 194.697 38.9225 194.348C37.9313 194 37.4478 192.804 37.5828 191.762C37.7177 190.72 38.3237 189.806 38.9429 188.957C43.9073 182.151 51.4866 176.6 59.9105 176.587C67.1861 176.576 74.2842 181.048 77.4158 187.615C78.0548 188.955 80.3101 188.538 80.9727 187.21C81.6353 185.882 81.1742 184.277 80.5524 182.929L80.4064 182.618C80.3524 182.505 80.2977 182.391 80.2429 182.277L80.2418 182.275C79.6958 181.141 79.1413 179.989 79.1565 178.744C79.1594 178.504 79.184 178.264 79.2085 178.024V178.024V178.024C79.2449 177.669 79.2811 177.315 79.2471 176.961C79.2178 176.656 79.1372 176.358 79.0567 176.06L79.0567 176.06C78.942 175.636 78.8279 175.213 78.864 174.779C78.9254 174.04 79.8068 173.319 80.3746 173.796C80.0156 171.705 82.0963 169.581 84.1939 169.897C85.2666 170.058 86.1498 170.704 87.0404 171.355C87.7055 171.841 88.3748 172.331 89.1301 172.624C90.9406 173.325 93.1769 172.708 94.3705 171.176C95.141 172.492 94.3868 174.168 93.4691 175.386L93.2891 175.621C93.2165 175.715 93.1431 175.81 93.0695 175.904C92.2497 176.956 91.4016 178.044 91.3624 179.352C91.23 183.777 87.9774 187.932 83.7135 189.123C82.0338 189.592 82.0323 192.246 83.37 193.365C84.6683 194.451 86.5105 194.49 88.2117 194.446L88.9069 194.426C91.8866 194.333 94.9331 194.154 97.6176 192.88C100.465 191.529 102.813 188.601 102.47 185.469C102.449 185.273 102.418 185.074 102.386 184.876C102.283 184.22 102.178 183.56 102.424 182.957C102.743 182.171 104.062 181.831 104.378 182.618C104.18 181.63 105.296 179.772 106.438 179.92C107.112 180.007 106.835 181.1 106.561 181.966ZM106.561 181.966C106.526 182.077 106.492 182.183 106.459 182.283C106.313 182.732 106.207 183.057 106.317 183.032C106.302 183.058 106.289 183.077 106.278 183.09C106.273 183.094 106.269 183.098 106.264 183.102C106.259 183.105 106.255 183.109 106.25 183.112C106.218 183.117 106.215 183.023 106.225 182.868C106.263 182.623 106.378 182.287 106.561 181.966ZM73.063 212.021C72.4377 213.427 71.4029 215.081 69.8755 214.895C69.0577 214.795 68.4399 214.177 67.8841 213.543L67.5863 213.198C64.3582 209.451 59.9729 206.96 55.5653 204.668L54.0968 203.909C57.6871 203.203 59.9019 199.652 61.4834 196.352L61.9874 195.301C63.4336 192.303 65.0791 189.218 68.0618 187.868C68.4741 187.682 68.947 187.533 69.3722 187.688C69.4366 187.712 69.5061 187.739 69.5785 187.766C70.1035 187.968 70.7796 188.228 70.7688 187.731C69.8117 187.345 69.6543 185.949 70.2064 185.077C70.7105 184.281 71.5835 183.822 72.448 183.426L72.6944 183.314C72.143 182.554 70.9478 183.193 70.3234 183.895L70.272 183.952C69.6454 184.64 68.6835 185.392 67.9603 184.834C64.9716 182.524 60.9886 181.783 57.2292 182.146C53.4698 182.508 49.8831 183.883 46.4487 185.454C45.19 186.03 43.9114 186.658 42.9773 187.68C42.2547 188.47 42.1798 189.522 42.1045 190.579L42.1045 190.579C42.0825 190.889 42.0604 191.199 42.0221 191.502C41.9293 192.238 41.525 192.266 41.1688 192.29C40.9779 192.304 40.8009 192.316 40.6931 192.436C40.6885 192.441 40.6788 192.455 40.6647 192.476C40.6516 192.496 40.6347 192.522 40.6145 192.553C40.4006 192.881 39.822 193.77 39.5606 193.681C39.1768 193.551 39.3725 192.722 39.3725 192.722C39.3725 192.722 38.2334 193.048 38.1486 192.722C37.8519 191.583 39.5606 189.252 39.5606 189.252C42.4334 185.026 46.6937 181.519 51.3774 179.481C56.148 177.405 61.7148 177.004 66.5916 178.816C72.0896 180.86 76.4433 185.741 77.8469 191.436C78.1968 192.856 79.8484 193.483 81.2915 193.719C81.4273 193.741 81.5647 193.763 81.703 193.784C83.0349 193.992 84.4512 194.214 85.3 195.231C85.5502 195.53 85.481 195.974 85.3951 196.355L85.3699 196.464C85.0534 197.823 84.501 199.343 83.1814 199.755C81.982 200.129 80.561 199.162 80.4692 197.909C80.4611 197.799 80.4587 197.682 80.4563 197.564C80.4462 197.077 80.4356 196.564 80.0266 196.363L73.063 212.021ZM61.7209 219.448C61.2725 217.143 59.9093 215.07 58.1208 213.549C58.1906 214.455 58.5738 215.334 59.1902 216.001C56.1594 216.965 53.3013 218.469 50.7908 220.421C50.1189 220.944 48.9774 221.42 48.5839 220.665C47.0356 217.696 44.5709 215.213 41.6133 213.642L53.7725 206.655C54.3221 206.339 54.9033 206.014 55.5371 206.008C56.0285 206.003 56.4952 206.191 56.9394 206.41L57.1597 206.522C61.7099 208.865 65.7829 212.13 69.0603 216.062C69.8718 217.035 70.2495 218.281 70.5709 219.514L72.0172 225.165C72.113 225.539 72.1832 226.002 71.89 226.254C71.725 226.395 71.4927 226.42 71.276 226.436L71.0224 226.456H71.0222C67.4218 226.733 64.517 226.957 60.91 226.436C60.3717 225.404 60.7784 224.126 61.1984 222.805C61.5583 221.674 61.9279 220.511 61.7209 219.448ZM43.6322 215.973C44.9813 217.162 46.1975 218.5 47.251 219.957C47.3637 220.113 47.4797 220.287 47.4677 220.479C47.4537 220.703 47.2722 220.875 47.1034 221.023L31.3879 234.778C30.7326 235.351 29.6873 235.251 28.9533 234.782C28.311 234.372 27.8518 233.743 27.4305 233.103L27.2518 232.828C31.3475 230.675 33.9748 226.82 36.6254 222.929C38.288 220.489 39.9598 218.036 42.009 215.981C42.2081 215.781 42.4329 215.574 42.7132 215.543C43.0599 215.504 43.3703 215.743 43.6322 215.973ZM89.3976 177.607L89.7987 177.73C90.5801 177.972 90.71 179.019 90.6105 179.831C90.1987 183.192 88.1093 186.519 84.8878 187.564L84.7727 187.603C82.6734 188.344 81.1726 190.54 81.2623 192.767C79.8532 193.031 78.3424 191.904 78.1943 190.478C78.1648 190.194 78.249 189.824 78.5315 189.781C79.8117 189.584 80.9892 188.799 81.6623 187.692C82.3353 186.586 82.4914 185.179 82.0772 183.951C81.9926 183.701 81.885 183.45 81.7773 183.198C81.4712 182.484 81.1639 181.767 81.379 181.046C81.8696 181.091 81.9627 181.764 81.9109 182.254L81.9053 182.314C81.8655 182.797 81.9508 183.416 82.4194 183.481C82.7284 182.772 82.7926 181.978 82.8564 181.19C82.9368 180.194 83.0165 179.209 83.5872 178.416C84.2396 177.51 85.4099 177.093 86.5266 177.08C87.5038 177.068 88.4592 177.322 89.3976 177.607ZM18.786 234.281L18.8868 234.165C19.4492 234.042 19.9863 234.762 19.7077 235.266C19.529 235.589 20.0786 235.909 20.3855 235.704C20.6923 235.498 20.7542 235.08 20.788 234.712C21.0967 234.616 21.3638 234.969 21.4221 235.288C21.4375 235.372 21.447 235.459 21.4566 235.546C21.4832 235.788 21.5099 236.031 21.6628 236.213C21.8707 236.461 22.4214 236.333 22.3311 236.022C22.1964 235.559 22.7438 235.181 23.2216 235.112C23.336 235.096 23.4542 235.086 23.5727 235.076H23.5729L23.574 235.076C23.9497 235.046 24.3285 235.015 24.602 234.77L24.6432 234.738C24.9903 234.491 25.42 234.947 25.682 235.351L25.8039 235.547C26.3799 236.443 27.359 237.07 28.4146 237.213C28.6215 237.241 28.5163 237.564 28.3643 237.707L24.8017 241.062C24.629 241.225 24.3491 241.109 24.1468 240.985C22.0321 239.69 20.0799 238.13 18.3504 236.353C17.8055 235.794 18.2676 234.901 18.786 234.281ZM49.9416 240.526C49.8389 240.949 49.5468 241.422 49.1126 241.39C48.0661 241.313 47.005 241.439 46.0058 241.76C46.0975 241.334 45.9111 240.861 45.5533 240.612C45.2922 240.986 45.399 241.564 45.7761 241.82L44.78 242.804L44.3032 241.708C44.068 241.771 44.0612 242.059 44.0774 242.324L44.089 242.488C44.1367 243.182 43.5483 243.856 42.8545 243.903C42.1608 243.95 41.4871 243.361 41.4412 242.667C41.3913 241.911 41.9701 241.277 42.5083 240.744L46.3298 236.96C46.4111 236.883 46.5041 236.811 46.6139 236.813C46.7351 236.815 46.8334 236.907 46.9187 236.993L48.4099 238.498C48.6991 238.79 48.5163 239.236 48.3382 239.671C48.1549 240.119 47.9765 240.555 48.3227 240.798C48.6598 240.818 48.9405 240.525 49.0701 240.213C49.1362 240.054 49.1763 239.886 49.2165 239.718C49.2551 239.557 49.2937 239.396 49.3552 239.242C49.4809 238.929 49.7522 238.631 50.0897 238.638C50.4273 238.645 50.6878 239.127 50.4268 239.341C50.1484 239.57 50.0689 239.941 49.9917 240.302C49.9755 240.377 49.9594 240.453 49.9416 240.526ZM23.8135 242.199C20.3786 240.362 17.3424 237.783 14.9726 234.692C15.2833 234.397 15.7507 234.71 16.0512 235.044L16.1256 235.131C18.3774 237.918 21.2053 240.236 24.379 241.898C24.3533 242.149 24.0356 242.318 23.8135 242.199ZM40.2866 241.495C41.7745 239.549 43.423 237.726 45.21 236.051C45.487 235.791 46.0624 235.616 46.1324 235.989C44.0521 237.975 42.0624 240.056 40.1715 242.223C39.966 242.045 40.1213 241.712 40.2866 241.495ZM28.8595 236.63C27.8212 236.261 26.8956 235.581 26.2325 234.701C25.9829 234.37 25.8255 233.794 26.2036 233.624C26.5025 233.49 26.7895 233.772 26.9979 234.046L27.1542 234.259C27.8258 235.145 28.7837 235.811 29.8492 236.13C29.851 236.414 29.6157 236.681 29.3334 236.714C29.1726 236.733 29.012 236.684 28.8595 236.63ZM79.8102 179.045C80.2984 179.057 80.7116 179.565 80.6229 180.046L80.6344 180.052C80.7019 180.4 80.6575 180.769 80.5093 181.091C79.9755 180.568 79.7082 179.786 79.8102 179.045ZM89.1091 179.057C89.1707 179.052 89.2355 179.046 89.3012 179.045C89.3836 179.044 89.4786 179.059 89.5682 179.073C89.8098 179.11 90.012 179.141 89.821 178.842C89.5592 178.432 88.7931 178.386 88.6675 178.856C88.7026 179.093 88.8851 179.077 89.1091 179.057ZM89.7258 181.084L89.7368 181.041C89.923 180.336 89.8152 179.779 89.3012 179.779C89.1029 179.794 88.8001 180.804 88.829 181.11C88.8579 181.416 89.203 181.7 89.4704 181.548C89.6289 181.458 89.6797 181.262 89.7258 181.084ZM86.335 180.869C85.9767 180.372 85.9391 179.663 86.2427 179.13C86.288 179.051 86.3429 178.972 86.4222 178.927C86.6233 178.812 86.8923 178.968 86.9809 179.182C87.0695 179.396 87.0308 179.639 86.9907 179.867C86.9907 179.867 86.6934 181.367 86.335 180.869ZM140.868 180.978C148.476 179.909 156.193 180.723 163.731 182.277C168.352 183.229 168.274 181.879 167.961 176.43C167.883 175.074 167.79 173.464 167.752 171.573C167.699 169.015 168.286 167.636 168.866 166.272C169.171 165.556 169.474 164.844 169.682 163.968L169.71 163.846C170.136 162.013 170.425 159.862 169.133 158.512C168.052 157.383 166.37 157.33 164.755 157.364L163.826 157.386C161.96 157.422 159.653 156.844 159.243 155.023L159.22 154.928C158.779 153.232 156.855 152.062 155.146 152.473C153.405 152.892 152.213 154.874 152.658 156.608C152.845 157.339 151.793 157.69 151.038 157.69L145.637 157.691C144.659 157.691 143.28 158.219 143.626 159.133C144.347 161.038 144.296 163.224 143.486 165.093C141.127 163.997 137.948 165.889 137.788 168.485C137.628 171.082 140.55 173.35 143.026 172.551C142.164 175.321 141.443 178.135 140.868 180.978ZM162.249 180.884C155.702 179.278 148.863 178.872 142.173 179.693C143.334 176.988 143.844 174.005 143.647 171.068C141.904 172.29 139.041 170.856 138.975 168.728C138.909 166.6 141.677 164.992 143.493 166.104C143.974 166.398 144.503 165.787 144.696 165.257C145.352 163.45 145.358 161.415 144.714 159.603C144.463 158.898 145.527 158.515 146.276 158.53L152.629 158.656C153.056 158.664 153.509 158.666 153.873 158.444C154.237 158.222 154.444 157.687 154.177 157.355C153.077 155.991 154.341 153.55 156.089 153.66C157.838 153.769 158.786 156.35 157.525 157.566C157.289 157.792 157.747 158.084 158.073 158.092L166.38 158.283C168.033 158.321 169.2 160.081 169.267 161.732C169.325 163.13 168.828 164.468 168.338 165.79C168.295 165.905 168.253 166.02 168.21 166.135L168.075 166.509C166.604 170.638 166.13 175.118 166.706 179.463C166.818 180.31 166.038 181.064 165.203 181.248C164.466 181.41 163.707 181.249 162.969 181.065L162.249 180.884Z" fill="#00160A"/>
<path fill-rule="evenodd" clip-rule="evenodd" d="M73.7049 104.85C73.7654 104.459 74.2872 104.233 74.6643 104.367C75.0415 104.501 75.3782 105.042 75.1018 105.348C74.6643 105.833 73.5875 105.61 73.7049 104.85Z" fill="#FFB61D"/>
<path fill-rule="evenodd" clip-rule="evenodd" d="M237.867 206.244C237.621 206.451 237.126 206.526 237.08 206.207C238.042 205.228 238.704 203.958 238.956 202.608C239.27 202.524 239.361 203.025 239.282 203.34C239.016 204.403 238.707 205.539 237.867 206.244Z" fill="#00160A"/>
<path d="M25.4492 89.6099C25.4395 89.9255 24.9607 89.9071 24.6713 89.7811C24.7755 89.4995 25.1979 89.4053 25.4119 89.6159L25.4492 89.6099Z" fill="black"/>
<path fill-rule="evenodd" clip-rule="evenodd" d="M162.054 176.307C161.721 176.604 161.159 176.15 161.209 175.707C161.259 175.263 161.652 174.946 162.029 174.707C163.38 173.85 164.946 173.334 166.541 173.219C166.584 173.828 165.795 174.079 165.197 174.196C163.926 174.443 162.716 174.994 161.694 175.788C161.879 175.902 162.013 176.095 162.054 176.307V176.307Z" fill="#00160A"/>
<path fill-rule="evenodd" clip-rule="evenodd" d="M166.586 177.084C165.837 177.445 165.075 177.779 164.302 178.085C164.39 178.411 164.858 178.4 165.176 178.285C165.494 178.171 165.912 178.05 166.118 178.318C165.595 179.116 164.3 179.24 163.635 178.556C163.345 178.259 162.822 178.455 162.449 178.274C161.914 178.016 162.014 177.209 162.328 176.706C162.985 175.655 164.238 175.007 165.475 175.078C165.946 175.105 166.509 175.338 166.54 175.809C165.063 175.716 163.557 176.325 162.559 177.419C163.126 177.858 163.939 177.53 164.578 177.206C165.217 176.882 166.061 176.596 166.586 177.084Z" fill="#00160A"/>
<path fill-rule="evenodd" clip-rule="evenodd" d="M87.9311 181.274C88.3552 181.699 88.5312 181.893 88.5312 182.517C88.5312 183.141 88.1926 183.542 87.6214 183.725C87.3579 183.809 86.9933 183.745 86.9249 183.477C88.8286 183.088 88.129 182.258 87.9311 181.274Z" fill="#00160A"/>
<path fill-rule="evenodd" clip-rule="evenodd" d="M85.3887 178.62C85.5918 177.947 86.4752 177.583 87.0938 177.918C87.3385 178.05 87.5421 178.292 87.5547 178.57C86.8327 178.586 86.2382 178.12 85.3887 178.62Z" fill="#00160A"/>
<path fill-rule="evenodd" clip-rule="evenodd" d="M87.1172 184.636C86.2428 185.265 83.0898 182.4 87.1172 184.636V184.636Z" fill="#00160A"/>
</svg>
